<?xml version="1.0" encoding="utf-8"?>
<!-- Generator: Adobe Illustrator 21.0.2, SVG Export Plug-In . SVG Version: 6.00 Build 0)  -->
<svg version="1.1" id="Capa_1" xmlns="http://www.w3.org/2000/svg" xmlns:xlink="http://www.w3.org/1999/xlink" x="0px" y="0px"
	 viewBox="0 0 141.7 141.7" style="enable-background:new 0 0 141.7 141.7;" xml:space="preserve">
<style type="text/css">
	.st0{fill:none;stroke:#000000;}
</style>
<g>
	<path class="st0" d="M48.3,83c1.1,0.7,3.7,1.8,6.5,1.8c5.1,0,6.7-3.2,6.6-5.7c0-4.1-3.7-5.8-7.6-5.8h-2.2v-3h2.2
		c2.9,0,6.5-1.5,6.5-4.9c0-2.3-1.5-4.4-5.1-4.4c-2.3,0-4.6,1-5.8,1.9l-1-2.9c1.5-1.1,4.5-2.2,7.6-2.2c5.8,0,8.4,3.4,8.4,7
		c0,3-1.8,5.6-5.4,6.9v0.1c3.6,0.7,6.5,3.4,6.5,7.5c0,4.7-3.6,8.8-10.7,8.8c-3.3,0-6.2-1-7.6-2L48.3,83z"/>
	<path class="st0" d="M71.8,57.7c2.4-0.4,5.2-0.6,8.3-0.6c5.6,0,9.6,1.3,12.3,3.8c2.7,2.5,4.3,6,4.3,10.9c0,4.9-1.5,9-4.4,11.8
		c-2.8,2.8-7.5,4.4-13.4,4.4c-2.8,0-5.1-0.1-7.1-0.4V57.7z M75.7,84.5c1,0.2,2.4,0.2,4,0.2c8.4,0,12.9-4.7,12.9-12.9
		c0-7.2-4-11.7-12.3-11.7c-2,0-3.6,0.2-4.6,0.4V84.5z"/>
</g>
</svg>
