<?xml version="1.0" encoding="utf-8"?>
<!-- Generator: Adobe Illustrator 21.0.2, SVG Export Plug-In . SVG Version: 6.00 Build 0)  -->
<svg version="1.1" id="Capa_1" xmlns="http://www.w3.org/2000/svg" xmlns:xlink="http://www.w3.org/1999/xlink" x="0px" y="0px"
	 viewBox="0 0 141.7 141.7" style="enable-background:new 0 0 141.7 141.7;" xml:space="preserve">
<style type="text/css">
	.st0{fill:none;stroke:#1D1D1B;stroke-width:0.9068;stroke-linejoin:bevel;stroke-miterlimit:10;}
	.st1{fill:none;stroke:#1D1D1B;stroke-width:0.9023;stroke-linejoin:bevel;stroke-miterlimit:10;}
	.st2{fill:none;stroke:#1D1D1B;stroke-width:0.7504;stroke-linejoin:bevel;stroke-miterlimit:10;}
</style>
<g>
	<polygon class="st0" points="70.4,67.1 43.3,57.2 72.4,44.1 99.5,54.1 	"/>
	<line class="st0" x1="70.4" y1="67.1" x2="70.4" y2="100.6"/>
	<polyline class="st1" points="99.2,54.1 99.2,87.6 70.5,100.6 43.6,90.7 43.6,57.2 	"/>
	<line class="st2" x1="70.4" y1="72.6" x2="99.5" y2="59.9"/>
	<line class="st2" x1="70.4" y1="78" x2="99.5" y2="65.4"/>
	<line class="st2" x1="70.4" y1="83.4" x2="99.5" y2="70.7"/>
	<line class="st2" x1="70.4" y1="88.8" x2="99.5" y2="76.2"/>
	<line class="st2" x1="70.4" y1="94.7" x2="99.5" y2="82"/>
	<line class="st2" x1="47.4" y1="58.8" x2="47.4" y2="92.2"/>
	<line class="st2" x1="51.6" y1="60.4" x2="51.6" y2="93.8"/>
	<line class="st2" x1="56" y1="61.7" x2="56" y2="95.1"/>
	<line class="st2" x1="64.9" y1="64.9" x2="64.9" y2="98.3"/>
	<line class="st2" x1="60" y1="63.3" x2="60" y2="96.7"/>
	<line class="st2" x1="47.9" y1="54.9" x2="75.2" y2="64.9"/>
	<line class="st2" x1="53" y1="52.7" x2="80.2" y2="62.7"/>
	<line class="st2" x1="57.9" y1="50.4" x2="85.2" y2="60.3"/>
	<line class="st2" x1="62.9" y1="48.1" x2="90.2" y2="58.1"/>
	<line class="st2" x1="68.2" y1="46" x2="95.1" y2="55.8"/>
</g>
</svg>
