<svg xmlns="http://www.w3.org/2000/svg" viewBox="0 0 72.35 64.38"><defs><style>.cls-1{fill:#1d1d1b;}</style></defs><title>Recurso 1</title><g id="Capa_2" data-name="Capa 2"><g id="Capa_1-2" data-name="Capa 1"><path class="cls-1" d="M14.66,64.38v-9.8H9.36A9.37,9.37,0,0,1,0,45.21V9.36A9.37,9.37,0,0,1,9.36,0H63a9.37,9.37,0,0,1,9.36,9.36V45.21A9.37,9.37,0,0,1,63,54.58H24.46ZM9.36,1.24A8.13,8.13,0,0,0,1.24,9.36V45.21a8.13,8.13,0,0,0,8.12,8.12h6.54v8l8-8H63a8.13,8.13,0,0,0,8.12-8.12V9.36A8.13,8.13,0,0,0,63,1.24Z"/><path class="cls-1" d="M57.44,21.38a2.62,2.62,0,0,0-4.68-1.62l-1.56-2.7H40L34.43,7.38H22.74l-1.61,2.79a2.62,2.62,0,1,0-2.46,4.27l-1.77,3.07,5.59,9.68-5.59,9.68,2.3,4,.4-.57A1.73,1.73,0,1,1,21.16,43l-.7.06L22.74,47H34.43L40,37.31H51.2L57,27.19,55.19,24A2.63,2.63,0,0,0,57.44,21.38ZM19.81,14.22l.42-.79-.9.13-.22,0a1.74,1.74,0,1,1,1.61-2.38l.34.85,2.19-3.79H33.92l5.33,9.24-1.86,3.23.59.13a1.73,1.73,0,1,1-1.65,2.86l-.41-.44-2,3.45H31.15a2.56,2.56,0,0,0,.09-.67,2.62,2.62,0,1,0-5.24,0,2.56,2.56,0,0,0,.09.67H23.25l-5.33-9.24ZM33.92,46.1H23.25l-1.36-2.36a2.6,2.6,0,0,0,1.75-2.46,2.62,2.62,0,0,0-4.32-2l-1.39-2.42,5.33-9.24h4.28l-.4-.67a1.71,1.71,0,0,1-.25-.88,1.74,1.74,0,1,1,3.47,0,1.71,1.71,0,0,1-.25.88l-.4.67h4.22l1.4,2.43a2.62,2.62,0,0,0,.75,5.13,2.59,2.59,0,0,0,1.8-.72l1.38,2.39ZM56,27.19l-5.33,9.24H40l-2.08-3.61-.39.64a1.73,1.73,0,0,1-3.22-.89A1.74,1.74,0,0,1,36,30.83h.75l-2.1-3.63,1.1-1.9h0l.32-.56a2.58,2.58,0,0,0,1.47.46,2.62,2.62,0,0,0,1.14-5l.36-.62h0L40,17.95H50.69l2.18,3.77.32-.91a1.73,1.73,0,1,1,1.63,2.31,1.8,1.8,0,0,1-.32,0l-.94-.17Z"/></g></g></svg>