<svg xmlns="http://www.w3.org/2000/svg" viewBox="0 0 41.15 39.81"><defs><style>.cls-1{fill:none;stroke:#1d1d1b;stroke-miterlimit:10;stroke-width:1.09px;}</style></defs><title>Recurso 4</title><g id="Capa_2" data-name="Capa 2"><g id="Capa_1-2" data-name="Capa 1"><path class="cls-1" d="M6.6,19.91,1,29.59l1.82,3.16a2.17,2.17,0,1,1,2,3.41l1.8,3.11H17.78l5.59-9.68"/><path class="cls-1" d="M19,17.78l-1.23,2.12,1.85,3.2a2.18,2.18,0,1,0,1.9,3.29l1.84,3.18H34.55l5.59-9.68L38,16.24a2.18,2.18,0,1,0-1.65-2.86l-1.82-3.16H23.37L22.3,12.08"/><path class="cls-1" d="M21.68,13.16l1.69-2.93L17.78.55H6.6L4.74,3.76a2.18,2.18,0,1,0-2,3,2.16,2.16,0,0,0,.31,0l-2,3.5L6.6,19.91h3.76a2.18,2.18,0,1,1,3.73,0h3.69l1.82-3.15a2.18,2.18,0,1,0,2.08-3.6Z"/></g></g></svg>