<?xml version="1.0" encoding="utf-8"?>
<!-- Generator: Adobe Illustrator 21.0.2, SVG Export Plug-In . SVG Version: 6.00 Build 0)  -->
<svg version="1.1" id="Capa_1" xmlns="http://www.w3.org/2000/svg" xmlns:xlink="http://www.w3.org/1999/xlink" x="0px" y="0px"
	 viewBox="0 0 141.7 141.7" style="enable-background:new 0 0 141.7 141.7;" xml:space="preserve">
<style type="text/css">
	.st0{fill:none;stroke:#1D1D1B;stroke-linejoin:bevel;stroke-miterlimit:10;}
	.st1{fill-rule:evenodd;clip-rule:evenodd;fill:none;stroke:#1D1D1B;stroke-miterlimit:10;}
	.st2{fill:none;stroke:#1D1D1B;stroke-miterlimit:10;}
</style>
<g>
	<polygon class="st0" points="118.4,90.3 42.8,116.4 24.2,62.6 29.9,50.9 96.8,27.7 	"/>
	<polyline class="st0" points="24.2,62.6 31.5,59.6 29.9,50.9 	"/>
	<g>
		<path class="st1" d="M79.5,83.1c-3.6,1.2-7,2.4-10.6,3.7c-0.3-1-0.7-1.9-1-2.9c-0.2-0.7-0.5-1.2-1.1-1.6c-1.5-1.1-2.9-2.2-4.4-3.2
			c-3.8-2.6-5.7-6.2-5.3-10.8c0.3-4.6,2.7-7.9,6.9-9.8c4.6-2.1,9-1.4,12.8,1.9c3.8,3.3,4.8,7.6,3.4,12.4c-0.6,2-1.1,4-1.7,6
			c-0.1,0.4-0.1,0.8,0.1,1.2C78.7,80.9,79.1,82,79.5,83.1z"/>
		<g>
			<polyline class="st1" points="72.8,85.4 71.3,80.9 69.1,79.6 69.9,72.3 			"/>
			<ellipse transform="matrix(0.9455 -0.3255 0.3255 0.9455 -21.1918 27.478)" class="st1" cx="71.5" cy="77.1" rx="0.8" ry="0.8"/>
			<polyline class="st1" points="75.6,84.4 74.1,79.9 75,77.5 69.9,72.3 			"/>
			<line class="st2" x1="69.9" y1="72.3" x2="71.3" y2="76.3"/>
		</g>
		<g>
			<path class="st1" d="M80.9,83.8c-0.2-0.6-0.9-0.9-1.5-0.7l-10.3,3.6c-0.6,0.2-1,0.9-0.8,1.5c0.2,0.6,0.9,0.9,1.5,0.7l0.6-0.2
				c-0.5,0.4-0.7,1-0.4,1.7c0.2,0.5,0.6,0.9,1.1,1c0.3,1.4,1.4,2.3,2.9,2.4c0.5,0,0.8,0.1,1.1,0.4c0.8,0.7,1.7,0.9,2.6,0.5
				c1-0.4,1.5-1.1,1.6-2.1c0-0.3,0.2-0.5,0.4-0.7c1-0.8,1.4-1.9,1.2-3.2c-0.1-0.3-0.1-0.5-0.3-0.5c0.3-0.4,0.5-0.9,0.3-1.5
				c-0.2-0.6-0.8-1-1.4-1l0.6-0.2C80.7,85,81.1,84.4,80.9,83.8z"/>
			<line class="st2" x1="71" y1="91.2" x2="77.4" y2="89"/>
			<line class="st2" x1="79.5" y1="91.9" x2="76" y2="93.1"/>
			<line class="st2" x1="79.5" y1="85.4" x2="73.5" y2="87.5"/>
		</g>
		<g>
			<line class="st2" x1="63.8" y1="54.8" x2="61.9" y2="49.1"/>
			<line class="st2" x1="47.9" y1="76.3" x2="53.5" y2="74.4"/>
			<line class="st2" x1="84.1" y1="63.9" x2="89.7" y2="61.9"/>
			<line class="st2" x1="54.7" y1="62.8" x2="49.3" y2="60.2"/>
			<line class="st2" x1="75.9" y1="55.5" x2="78.5" y2="50.2"/>
			<line class="st2" x1="61.4" y1="84.3" x2="58.8" y2="89.7"/>
			<line class="st2" x1="83.7" y1="77.2" x2="89.1" y2="79.8"/>
		</g>
	</g>
</g>
</svg>
