<?xml version="1.0" encoding="utf-8"?>
<!-- Generator: Adobe Illustrator 21.0.2, SVG Export Plug-In . SVG Version: 6.00 Build 0)  -->
<svg version="1.1" id="Capa_1" xmlns="http://www.w3.org/2000/svg" xmlns:xlink="http://www.w3.org/1999/xlink" x="0px" y="0px"
	 viewBox="0 0 141.7 141.7" style="enable-background:new 0 0 141.7 141.7;" xml:space="preserve">
<style type="text/css">
	.st0{fill:#1D1D1B;}
</style>
<path class="st0" d="M100.2,93.7l-1.7-9.4l-0.3-0.4l-24.7-11l1-1L73.6,71c6.4-7.5,7.2-18,2.1-25.3l1.3-1.3l-2.8-2.8l-2.8,2.8
	l2.8,2.8l0.8-0.8c4.7,6.9,3.9,16.8-2.1,23.9l-1.2-1.2L69,71.9l1.2,1.2c-3.7,3.1-8.1,4.9-12.8,5.1c-4.1,0.2-7.9-0.9-11.1-3l0.8-0.8
	l-2.8-2.8l-2.8,2.8l2.8,2.8l1.2-1.2c3.1,2.2,6.8,3.3,10.8,3.3c0.3,0,0.7,0,1,0c4.9-0.2,9.6-2.2,13.4-5.4l0.9,0.9l1-1L84,98.2
	l0.4,0.3l9.5,1.7l0.4-0.1l5.4-5.4l0,0l0.5-0.5L100.2,93.7z M94,98.8L94,98.8l-0.3,0.3l-8.9-1.6L74.6,75.4l9.4,9.4
	c-0.9,1.2-0.8,2.9,0.3,4c0.6,0.6,1.4,0.9,2.2,0.9c0.8,0,1.6-0.3,2.2-0.9c0.6-0.6,0.9-1.4,0.9-2.2c0-0.8-0.3-1.6-0.9-2.2
	c-1.1-1.1-2.8-1.2-4-0.3l-9.5-9.4l22.4,10l1.6,8.9L94,98.8z M85,85.1c0.4-0.4,1-0.6,1.5-0.6c0.5,0,1.1,0.2,1.5,0.6
	c0.8,0.8,0.8,2.2,0,3s-2.2,0.8-3,0C84.2,87.3,84.2,86,85,85.1z"/>
</svg>
