<svg xmlns="http://www.w3.org/2000/svg" viewBox="0 0 72.35 64.38"><defs><style>.cls-1{fill:#1d1d1b;}</style></defs><title>Recurso 3</title><g id="Capa_2" data-name="Capa 2"><g id="Capa_1-2" data-name="Capa 1"><path class="cls-1" d="M57.69,64.38l-9.8-9.8H9.36A9.37,9.37,0,0,1,0,45.21V9.36A9.37,9.37,0,0,1,9.36,0H63a9.37,9.37,0,0,1,9.36,9.36V45.21A9.37,9.37,0,0,1,63,54.58h-5.3ZM9.36,1.24A8.13,8.13,0,0,0,1.24,9.36V45.21a8.13,8.13,0,0,0,8.12,8.12h39l8,8v-8H63a8.13,8.13,0,0,0,8.12-8.12V9.36A8.13,8.13,0,0,0,63,1.24Z"/><path class="cls-1" d="M58.24,21,37.37,14.41a.69.69,0,0,0-.4,0L16.11,21a.67.67,0,0,0-.05,1.26l8.3,3.41v7.84c0,2.54,12.29,2.57,12.82,2.57.37,0,6.71,0,10.33-.94v2a1.19,1.19,0,0,0-.82,1.12,1.16,1.16,0,0,0,.18.59l-.64,3.25.13.16a2.13,2.13,0,0,0,1.64.87h.07a1.91,1.91,0,0,0,1.5-.9l.1-.15L49,38.68h0a1.18,1.18,0,0,0,.09-.42,1.2,1.2,0,0,0-.7-1.08V34.91c1-.35,1.6-.79,1.6-1.36V25.71l8.29-3.41h0A.67.67,0,0,0,58.24,21ZM48,42.25a1.18,1.18,0,0,1-.85-.39l.48-2.44a1.14,1.14,0,0,0,.23,0,1.17,1.17,0,0,0,.38-.08l.46,2.49A1,1,0,0,1,48,42.25Zm-10.85-7c-7.53,0-11.71-1.09-11.93-1.68V26.07l11.68,4.8a.67.67,0,0,0,.51,0L47.5,26.73v7.53A44,44,0,0,1,37.17,35.22Zm11.93-1.7c0,.13-.3.29-.72.45V26.37l.72-.29Zm-.73-8.12h-.2L38.11,21.65h0a.94.94,0,1,0-.94.94.91.91,0,0,0,.49-.16l9.41,3.52L37.17,30,16.94,21.7l20.23-6.43L57.41,21.7Z"/></g></g></svg>