<svg xmlns="http://www.w3.org/2000/svg" viewBox="0 0 43.27 28.96"><defs><style>.cls-1{fill:none;stroke:#1d1d1b;stroke-miterlimit:10;stroke-width:1.09px;}</style></defs><title>Recurso 5</title><g id="Capa_2" data-name="Capa 2"><g id="Capa_1-2" data-name="Capa 1"><line class="cls-1" x1="22.23" y1="7.72" x2="32.86" y2="11.7"/><line class="cls-1" x1="32.4" y1="11.14" x2="32.4" y2="24.09"/><circle class="cls-1" cx="32.34" cy="23.99" r="0.65"/><path class="cls-1" d="M31.79,24.49l-.64,3.22a1.46,1.46,0,0,0,2.5,0l-.6-3.22"/><circle cx="21.63" cy="7.37" r="0.94"/><path class="cls-1" d="M34,11.13v8.14c0,1.17-5.54,2.12-12.38,2.12s-12.37-1-12.37-2.12v-8.2"/><path class="cls-1" d="M42.58,7.61,21.72,16.18a.23.23,0,0,1-.17,0L.69,7.61a.23.23,0,0,1,0-.43L21.56.56a.23.23,0,0,1,.14,0L42.56,7.18A.23.23,0,0,1,42.58,7.61Z"/></g></g></svg>