<?xml version="1.0" encoding="utf-8"?>
<!-- Generator: Adobe Illustrator 21.0.2, SVG Export Plug-In . SVG Version: 6.00 Build 0)  -->
<svg version="1.1" id="Capa_1" xmlns="http://www.w3.org/2000/svg" xmlns:xlink="http://www.w3.org/1999/xlink" x="0px" y="0px"
	 viewBox="0 0 425.2 425.2" style="enable-background:new 0 0 425.2 425.2;" xml:space="preserve">
<style type="text/css">
	.st0{fill:#1D1D1B;}
</style>
<g>
	<rect x="112.4" y="57" class="st0" width="226.6" height="4.6"/>
	<path class="st0" d="M217.6,331.2c-15.9-6.2-30.8,14.1-31.4,15c-0.5,0.7-0.6,1.6-0.2,2.4l3.4,6.8c0.3,0.6,0.9,1.1,1.6,1.2
		c0.1,0,0.3,0,0.4,0c0.6,0,1.1-0.2,1.5-0.6c6.2-5.5,19.9-6.8,20.1-6.8c0.9-0.1,1.7-0.7,2-1.7L219,334
		C219.3,332.9,218.7,331.7,217.6,331.2z M211.1,344.9c-3.6,0.5-12.6,2-18.8,6l-1.5-3.1c2.9-3.6,13-15,23.2-12.9L211.1,344.9z"/>
	<path class="st0" d="M147.1,335.4c-1.1,0.4-1.7,1.6-1.4,2.8l2.8,9.9c0.3,0.9,1.1,1.6,2,1.7c2.7,0.2,10.6,1.6,14.2,4.8
		c0.4,0.4,1,0.6,1.5,0.6c0.1,0,0.3,0,0.4,0c0.7-0.1,1.3-0.6,1.6-1.2l2.5-4.9c0.4-0.8,0.3-1.7-0.2-2.4
		C170.1,345.9,159.1,330.8,147.1,335.4z M165.4,349.4c-4.4-2.6-10.1-3.7-12.9-4l-1.8-6.2c6.5-0.8,13,6.2,15.3,8.9L165.4,349.4z"/>
	<path class="st0" d="M158.9,353.4c-0.5-0.1-12.2-3.1-16.3,4.3c-0.6,1-0.3,2.3,0.7,3l5.2,3.5c0.4,0.3,0.8,0.4,1.3,0.4
		c0.5,0,0.9-0.1,1.3-0.4c1.2-0.8,5.2-3.1,8-3.1c0.8,0,1.4-0.3,1.9-0.8c0.5-0.6,0.6-1.3,0.5-2l-0.7-3.3
		C160.3,354.2,159.7,353.6,158.9,353.4z M149.7,359.6l-1.7-1.2c1.8-1.2,4.5-1.3,6.6-1.1C152.7,358,150.9,358.9,149.7,359.6z"/>
	<path class="st0" d="M224.6,82.4c0-0.8-0.4-1.5-1.1-2c-0.4-0.3-44.3-26.5-90.4,0c-0.7,0.4-1.2,1.2-1.2,2v21.2h-19.6v4.5h19.6v3.3
		h-19.6v4.5h19.6v11.2c0,0.8,0.4,1.5,1,1.9c0.3,0.2,7.2,4.7,24.6,7.1l0,90.3L176,346.4c0.2,1.1,1.1,1.9,2.3,1.9c1.1,0,2.1-0.8,2.3-2
		l18.4-120.7v-89.3c8.8-1.1,14.3-2.6,24.3-7c0.8-0.4,1.4-1.2,1.4-2.1V116H339v-4.5H224.6v-3.3H339v-4.5H224.6V82.4z M220,83.7v38.6
		c-5.1-4-10.3-6.9-15.4-9V83.1H200v28.5c-27.9-8.9-54.1,5.1-63.5,11.2V83.7C175.9,61.9,213.2,80,220,83.7z M183,299.9l-8.3,7.6
		l-2-12.8l12.8-11.8L183,299.9z M186.5,275.9l-14.7,13.4l-2-13l19.4-17.8L186.5,275.9L186.5,275.9z M190.4,251.2L169,270.8
		l-2.3-14.7l26.6-24.4L190.4,251.2z M165.9,250.6l-3.6-23.3c3.8-2.2,16.7-8.2,30.1-1L165.9,250.6z M189,219.9L189,219.9l0-97.6
		c1.8,0.8,3.6,1.9,5.3,3.4l0,96.4C192.6,221.2,190.8,220.5,189,219.9z M184.4,218.8c-9.4-1.6-17.7,1.3-22.2,3.5V126
		c3.1-1.9,12.6-7,22.2-5.2V218.8z M178.2,330.9l-2.7-17.9l6.4-5.8L178.2,330.9z M198.2,123.1c-16.6-15.9-39.4-0.4-39.6-0.2
		c-0.6,0.4-1,1.1-1,1.9l0,6.8c-9.5-1.3-15.5-3.3-18.8-4.7c10.6-6.9,46.4-26.4,79.2-0.3c-7.2,3-12,4.2-19,5.1v-6.9
		C198.9,124.1,198.7,123.5,198.2,123.1z"/>
</g>
</svg>
