<?xml version="1.0" encoding="utf-8"?>
<!-- Generator: Adobe Illustrator 21.0.2, SVG Export Plug-In . SVG Version: 6.00 Build 0)  -->
<svg version="1.1" id="Capa_1" xmlns="http://www.w3.org/2000/svg" xmlns:xlink="http://www.w3.org/1999/xlink" x="0px" y="0px"
	 viewBox="0 0 141.7 141.7" style="enable-background:new 0 0 141.7 141.7;" xml:space="preserve">
<style type="text/css">
	.st0{fill:#1D1D1B;}
</style>
<g>
	<g>
		<path class="st0" d="M83.7,83.6H58.3V58.3h13c6.8,0,12.4,5.5,12.4,12.4V83.6z M59.3,82.6h23.3v-12c0-6.3-5.1-11.4-11.4-11.4h-12
			V82.6z"/>
	</g>
	<path class="st0" d="M104.7,55.2c-1.8,0-3.3,1.3-3.5,3.1h-13v-4.6h-4.6v-6.5h-1v6.5H71.5v-6.5h-1v6.5H59.3v-13
		c1.7-0.2,3.1-1.7,3.1-3.5c0-2-1.6-3.6-3.6-3.6s-3.6,1.6-3.6,3.6c0,1.8,1.3,3.3,3.1,3.5v13h-4.6v4.6h-6.5v1h6.5v11.2h-6.5v1h6.5
		v11.2h-13c-0.2-1.7-1.7-3.1-3.5-3.1c-2,0-3.6,1.6-3.6,3.6c0,2,1.6,3.6,3.6,3.6c1.8,0,3.3-1.3,3.5-3.1h13v4.6h4.6v6.5h1v-6.5h11.2
		v6.5h1v-6.5h11.2v13c-1.7,0.2-3.1,1.7-3.1,3.5c0,2,1.6,3.6,3.6,3.6s3.6-1.6,3.6-3.6c0-1.8-1.3-3.3-3.1-3.5v-13h4.6v-4.6h6.5v-1
		h-6.5V71.4h6.5v-1h-6.5V59.3h13c0.2,1.7,1.7,3.1,3.5,3.1c2,0,3.6-1.6,3.6-3.6C108.3,56.8,106.7,55.2,104.7,55.2z M37.3,85.6
		c-1.4,0-2.6-1.1-2.6-2.6s1.1-2.6,2.6-2.6s2.6,1.1,2.6,2.6S38.7,85.6,37.3,85.6z M85.7,104.6c0,1.4-1.1,2.6-2.6,2.6
		s-2.6-1.1-2.6-2.6s1.1-2.6,2.6-2.6S85.7,103.2,85.7,104.6z M56.3,37.2c0-1.4,1.1-2.6,2.6-2.6s2.6,1.1,2.6,2.6s-1.1,2.6-2.6,2.6
		S56.3,38.6,56.3,37.2z M87.3,87.2H54.7V54.6h32.5V87.2z M104.7,61.3c-1.4,0-2.6-1.1-2.6-2.6c0-1.4,1.1-2.6,2.6-2.6s2.6,1.1,2.6,2.6
		C107.3,60.2,106.1,61.3,104.7,61.3z"/>
</g>
</svg>
