<?xml version="1.0" encoding="utf-8"?>
<!-- Generator: Adobe Illustrator 21.0.2, SVG Export Plug-In . SVG Version: 6.00 Build 0)  -->
<svg version="1.1" id="Capa_1" xmlns="http://www.w3.org/2000/svg" xmlns:xlink="http://www.w3.org/1999/xlink" x="0px" y="0px"
	 viewBox="0 0 141.7 141.7" style="enable-background:new 0 0 141.7 141.7;" xml:space="preserve">
<style type="text/css">
	.st0{fill:#1D1D1B;}
</style>
<g>
	<g>
		<path class="st0" d="M102.2,90.6H39.6c-3.4,0-6.2-2.8-6.2-6.2V50.2c0-3.4,2.8-6.2,6.2-6.2h62.6c3.4,0,6.2,2.8,6.2,6.2v34.3
			C108.3,87.9,105.6,90.6,102.2,90.6z M39.6,45.1c-2.8,0-5.1,2.3-5.1,5.1v34.3c0,2.8,2.3,5.1,5.1,5.1h62.6c2.8,0,5.1-2.3,5.1-5.1
			V50.2c0-2.8-2.3-5.1-5.1-5.1H39.6z"/>
	</g>
	<g>
		<path class="st0" d="M108,97.7H33.7c-1.1,0-1.9-0.9-1.9-1.9v-2.1c0-1.1,0.9-1.9,1.9-1.9H108c1.1,0,1.9,0.9,1.9,1.9v2.1
			C109.9,96.9,109,97.7,108,97.7z M33.7,92.9c-0.5,0-0.8,0.4-0.8,0.8v2.1c0,0.5,0.4,0.8,0.8,0.8H108c0.5,0,0.8-0.4,0.8-0.8v-2.1
			c0-0.5-0.4-0.8-0.8-0.8H33.7z"/>
	</g>
	<g>
		<path class="st0" d="M99.6,85.1H42.1c-2.9,0-5.3-2.4-5.3-5.3V54c0-2.9,2.4-5.3,5.3-5.3h57.5c2.9,0,5.3,2.4,5.3,5.3v25.8
			C104.9,82.7,102.5,85.1,99.6,85.1z M42.1,49.8c-2.3,0-4.2,1.9-4.2,4.2v25.8c0,2.3,1.9,4.2,4.2,4.2h57.5c2.3,0,4.2-1.9,4.2-4.2V54
			c0-2.3-1.9-4.2-4.2-4.2H42.1z"/>
	</g>
	<g>
		<path class="st0" d="M73.5,77.3L73.5,77.3c-0.2,0-0.3-0.1-0.4-0.2l-2.5-2.7l-1.5,1.6c-0.1,0.1-0.3,0.2-0.5,0.2
			c-0.2-0.1-0.3-0.2-0.4-0.4l-1.9-7.5c0-0.2,0-0.4,0.1-0.5c0.1-0.1,0.3-0.2,0.5-0.1l7.1,2c0.2,0.1,0.3,0.2,0.4,0.4s0,0.4-0.1,0.5
			l-1.4,1.5l2.6,2.7c0.2,0.2,0.2,0.5,0,0.7l-1.5,1.6C73.8,77.2,73.6,77.3,73.5,77.3z M70.6,73.1c0.2,0,0.3,0.1,0.4,0.2l2.5,2.7
			l0.7-0.8l-2.5-2.7c-0.2-0.2-0.2-0.5,0-0.7l1.2-1.2L67.5,69l1.4,5.6l1.2-1.3C70.3,73.2,70.4,73.1,70.6,73.1z"/>
	</g>
	<g>
		<path class="st0" d="M70.9,48.7c-0.9,0-1.7-0.8-1.7-1.8s0.8-1.8,1.7-1.8c0.9,0,1.7,0.8,1.7,1.8S71.8,48.7,70.9,48.7z M70.9,46.2
			c-0.3,0-0.6,0.3-0.6,0.7s0.3,0.7,0.6,0.7s0.6-0.3,0.6-0.7S71.2,46.2,70.9,46.2z"/>
	</g>
</g>
</svg>
