<?xml version="1.0" encoding="utf-8"?>
<!-- Generator: Adobe Illustrator 21.0.2, SVG Export Plug-In . SVG Version: 6.00 Build 0)  -->
<svg version="1.1" id="Capa_1" xmlns="http://www.w3.org/2000/svg" xmlns:xlink="http://www.w3.org/1999/xlink" x="0px" y="0px"
	 viewBox="0 0 425.2 425.2" style="enable-background:new 0 0 425.2 425.2;" xml:space="preserve">
<style type="text/css">
	.st0{fill:#1D1D1B;}
</style>
<g>
	<path class="st0" d="M236.4,124.9c0-0.9-0.4-1.7-1.1-2.2c-61-43.9-122.9-0.4-123.5,0c-0.7,0.5-1.1,1.3-1.1,2.2v10.5H82.4v5.3h28.2
		v3.7H82.4v5.3h28.2v22.3c-2.4,1.5-3.8,2.5-3.8,2.6c-0.7,0.5-1,1.3-1,2.1v45.7c0,1,0.6,2,1.5,2.4l28.1,13l32.9,33.6v70.3h5.3v-70.3
		l33.3-33.3l31.2-14c1-0.4,1.6-1.4,1.6-2.4v-45.1c0-0.9-0.4-1.7-1.2-2.2c-0.7-0.5-1.4-0.9-2.1-1.3v-23.5h106.3v-5.3H236.4v-3.7
		h106.3v-5.3H236.4V124.9z M111.1,220.8v-42.7c7.3-5.1,51.9-33.4,104.8-10v42.2c-46.9-29-97.3,5.1-97.8,5.5
		c-0.6,0.4-1.1,1.2-1.1,1.9c-0.1,0.8,0.2,1.6,0.7,2.1l7.2,7.3L111.1,220.8z M170.1,265.8l-46.3-47.3c9.1-5.4,39.8-21.2,72.2-11.4
		L170.1,265.8z M201.1,208.8c6,2.3,12,5.5,17.9,9.9l-39.8,39.8L201.1,208.8z M234.3,220.2l-16.8,7.5l7.3-7.3c0.5-0.5,0.8-1.3,0.8-2
		c0-0.8-0.4-1.5-1-1.9c-1.1-0.9-2.2-1.7-3.4-2.5v-43.3c4.3,2.2,8.7,4.7,13.1,7.6V220.2z M214.9,161.9v-37h-5.3v35
		c-41.7-14.6-77.4,0.1-93.5,9.1v-42.6c8.3-5.4,61.9-37.3,115.1,0v43.6C225.6,166.7,220.2,164,214.9,161.9z"/>
	
		<rect x="138.1" y="315" transform="matrix(0.7071 -0.7071 0.7071 0.7071 -195.3299 197.5475)" class="st0" width="5.3" height="39.1"/>
	<rect x="108.5" y="362" class="st0" width="40.3" height="5.3"/>
	<circle class="st0" cx="170.4" cy="360.7" r="8.8"/>
	
		<rect x="182.3" y="331.9" transform="matrix(0.7071 -0.7071 0.7071 0.7071 -177.4657 240.7043)" class="st0" width="39.1" height="5.3"/>
	<rect x="193.9" y="362" class="st0" width="40.3" height="5.3"/>
	<rect x="82.4" y="55.6" class="st0" width="260.3" height="5.3"/>
	<rect x="82.4" y="87.2" class="st0" width="260.3" height="5.3"/>
</g>
</svg>
