<?xml version="1.0" encoding="utf-8"?>
<!-- Generator: Adobe Illustrator 21.0.2, SVG Export Plug-In . SVG Version: 6.00 Build 0)  -->
<svg version="1.1" id="Capa_1" xmlns="http://www.w3.org/2000/svg" xmlns:xlink="http://www.w3.org/1999/xlink" x="0px" y="0px"
	 viewBox="0 0 141.7 141.7" style="enable-background:new 0 0 141.7 141.7;" xml:space="preserve">
<style type="text/css">
	.st0{fill-rule:evenodd;clip-rule:evenodd;fill:none;stroke:#000000;stroke-width:1.1227;stroke-miterlimit:10;}
	.st1{fill:none;stroke:#000000;stroke-width:1.1227;stroke-miterlimit:10;}
</style>
<g>
	<path class="st0" d="M87.3,77.4c0,1.3,0.1,19.4,0.2,27c0,0.4-0.7,1.2-1.4,1.3c-0.2,0-1-0.8-1-1.2c0-5.9-0.1-23.9-0.1-27.1
		c-9.1,0-18.1,0-27.2,0c0,1.7-0.1,20-0.2,27.4c0,1-0.5,1.1-1.1,1.1c-0.7,0-1.3,0.1-1.3-1.1c0.1-6.5,0.2-24.7,0.2-27.4 M57.7,77.4
		c-0.5,0-3.4,0-4,0c0,1.9,0,3.7,0,5.5c-0.1,8.3-0.2,16.3-0.5,24.6c-0.1,1.5-0.1,1.9-1.6,1.7c-0.2-0.1-0.4-1.4-0.4-1.8
		c0-5.3,0-10,0-15.3c0-6.4,0-12.8,0-19.1c0-2.7,0.9-4.8,2.8-6.4c0.3-0.3,0.6-0.9,0.6-1.4c0-4-1.7-22.7-1.7-26.5
		c0-1.3,0.7-2.2,1.9-2.4c0.5-0.1,1.1,0,1.6,0c10,0,20,0,30,0c2,0,2.8,0.9,2.8,3.1c0,3.3-1.9,21.7-1.9,25.8c0,0.4,0.2,0.9,0.5,1.1
		c2.2,1.7,3.1,4.1,3.1,7.1c0,11.5,0.1,23,0.2,34.5c0,0.9-0.1,1.5-1.1,1.5c-0.8,0-1.4,0-1.4-1.5c-0.1-9.8-0.1-19.6-0.2-29.4
		c0-0.3,0-0.7,0-1.1c-0.5,0-3.2,0-3.7,0 M56.9,55.4c0,0,0.2,6.6,0.3,9.8c9.3,0,18.5,0,27.8,0c0.1-3.3,0.4-9.8,0.4-9.8
		C78.8,49.4,63.6,49.3,56.9,55.4z"/>
	<line class="st1" x1="53.2" y1="72.4" x2="89.4" y2="72.4"/>
</g>
</svg>
