<svg xmlns="http://www.w3.org/2000/svg" viewBox="0 0 72.35 64.38"><defs><style>.cls-1{fill:#1d1d1b;}</style></defs><title>Recurso 2</title><g id="Capa_2" data-name="Capa 2"><g id="Capa_1-2" data-name="Capa 1"><path class="cls-1" d="M57.69,64.38l-9.8-9.8H9.36A9.37,9.37,0,0,1,0,45.21V9.36A9.37,9.37,0,0,1,9.36,0H63a9.37,9.37,0,0,1,9.36,9.36V45.21A9.37,9.37,0,0,1,63,54.58h-5.3ZM9.36,1.24A8.13,8.13,0,0,0,1.24,9.36V45.21a8.13,8.13,0,0,0,8.12,8.12h39l8,8v-8H63a8.13,8.13,0,0,0,8.12-8.12V9.36A8.13,8.13,0,0,0,63,1.24Z"/><path class="cls-1" d="M45,19.16a9.46,9.46,0,0,0-9.75-4.89,9.41,9.41,0,0,0-8.09,6.09,9.67,9.67,0,0,0,1.44,10.11c.52.68,1,1.37,1.51,2.07.36.5.72,1,1.09,1.51a1.84,1.84,0,0,1,.36,1.23c0,.57,0,1.14,0,1.72v.44a1.42,1.42,0,0,0-.43.3,1.31,1.31,0,0,0,.07,1.9,1.43,1.43,0,0,0,.47.28,1.74,1.74,0,0,0-.17.81A1.64,1.64,0,0,0,32,42,2.86,2.86,0,0,0,34,44.7a.87.87,0,0,1,.53.42,2.4,2.4,0,0,0,2.13,1.27h.18A2.52,2.52,0,0,0,39,44.92a.59.59,0,0,1,.27-.23,3,3,0,0,0,2-2.51,1.51,1.51,0,0,0,0-.4,1.71,1.71,0,0,0,.28-2,1.44,1.44,0,0,0,.51-.34,1.31,1.31,0,0,0,.38-.94,1.34,1.34,0,0,0-.91-1.22v-.48c0-.64,0-1.26,0-1.89a1.41,1.41,0,0,1,.18-.69c.79-1.23,1.61-2.44,2.43-3.65l.34-.51A9.67,9.67,0,0,0,45,19.16ZM41.52,38.5a.43.43,0,0,1-.13.3A.58.58,0,0,1,41,39l-3,0h0l-2.69,0v.89l5-.08a.78.78,0,0,1,.11,1.38l-.53.24.41.4a.5.5,0,0,1,0,.17,2.11,2.11,0,0,1-1.44,1.81,1.39,1.39,0,0,0-.12.08l-3,0v.89l2.12,0a1.58,1.58,0,0,1-1.22.66,1.53,1.53,0,0,1-1.49-.82,1.73,1.73,0,0,0-1-.81,1.94,1.94,0,0,1-1.31-1.69l5-.08v-.89l-5.25.08a.74.74,0,0,1-.3-.59.72.72,0,0,1,.47-.75l2.27-.89-2.94,0a.55.55,0,0,1-.4-.14.42.42,0,0,1,0-.62.58.58,0,0,1,.41-.17l4.21-.07L41,38c.26,0,.54.2.54.46Zm2.18-8.94-.34.51c-.82,1.22-1.65,2.43-2.44,3.66a2.26,2.26,0,0,0-.32,1.15c0,.63,0,1.27,0,1.93v.36l-3.54.06,3-7.27a1.27,1.27,0,0,0-1.55-1.52L37,28.82a2.07,2.07,0,0,1-1.06,0l-1.36-.35a1.27,1.27,0,0,0-1.5,1.68l3.23,7.08-3.89.06V37c0-.56,0-1.12,0-1.67a2.74,2.74,0,0,0-.54-1.78c-.37-.5-.72-1-1.08-1.5-.5-.7-1-1.41-1.53-2.09a8.83,8.83,0,0,1-1.33-9.24,8.57,8.57,0,0,1,7.37-5.54,11.31,11.31,0,0,1,1.2-.07,8.53,8.53,0,0,1,7.69,4.52A8.73,8.73,0,0,1,43.7,29.55Zm-7,7.29L33.55,30a.77.77,0,0,1,.71-1l.2,0,1.36.35a2.64,2.64,0,0,0,1.32,0l1.56-.41a.77.77,0,0,1,.95.88Z"/><rect class="cls-1" x="35.66" y="7.11" width="0.89" height="4.8" transform="translate(-0.14 0.57) rotate(-0.9)"/><rect class="cls-1" x="18.48" y="23.99" width="4.8" height="0.89" transform="translate(-0.39 0.33) rotate(-0.91)"/><rect class="cls-1" x="49.41" y="23.51" width="4.8" height="0.89" transform="translate(-0.36 0.8) rotate(-0.88)"/><rect class="cls-1" x="24.91" y="11.76" width="0.89" height="4.8" transform="translate(-2.46 22.51) rotate(-45.9)"/><rect class="cls-1" x="44.51" y="13.37" width="4.8" height="0.89" transform="translate(4.34 37.89) rotate(-45.89)"/><rect class="cls-1" x="22.79" y="35.31" width="4.8" height="0.89" transform="translate(-18.01 28.96) rotate(-45.89)"/><rect class="cls-1" x="47.09" y="33.39" width="0.89" height="4.8" transform="translate(-11.25 45.02) rotate(-45.9)"/></g></g></svg>