<svg xmlns="http://www.w3.org/2000/svg" viewBox="0 0 35.75 39.39"><defs><style>.cls-1,.cls-2,.cls-3{fill:none;stroke:#1d1d1b;stroke-miterlimit:10;}.cls-1,.cls-2{stroke-width:1.09px;}.cls-1{fill-rule:evenodd;}.cls-3{stroke-width:0.5px;}</style></defs><title>Recurso 6</title><g id="Capa_2" data-name="Capa 2"><g id="Capa_1-2" data-name="Capa 1"><path class="cls-1" d="M22.59,30.49l-9.07.14c0-.83-.05-1.64,0-2.45a2.29,2.29,0,0,0-.45-1.5c-.88-1.19-1.71-2.41-2.61-3.58A9.26,9.26,0,0,1,9,13.42,9,9,0,0,1,16.78,7.6a9.06,9.06,0,0,1,9.32,4.68,9.19,9.19,0,0,1-.5,10.42c-.94,1.38-1.88,2.76-2.78,4.16a1.84,1.84,0,0,0-.25.92C22.54,28.66,22.58,29.55,22.59,30.49Z"/><path class="cls-1" d="M23.49,31.39a1,1,0,0,0-1-.89l-8.82.14a.91.91,0,1,0,0,1.82h.5a1.25,1.25,0,0,0-.18,2.2,2.4,2.4,0,0,0,1.6,2.54,1.3,1.3,0,0,1,.76.62,2,2,0,0,0,1.9,1,2.09,2.09,0,0,0,1.8-1.23,1,1,0,0,1,.5-.44A2.56,2.56,0,0,0,22.31,35a.55.55,0,0,0-.08-.48,1.23,1.23,0,0,0-.25-2.2h.54A1,1,0,0,0,23.49,31.39Z"/><line class="cls-2" x1="14.03" y1="34.64" x2="19.45" y2="34.55"/><line class="cls-2" x1="20.39" y1="37.28" x2="17.36" y2="37.32"/><line class="cls-2" x1="21.99" y1="32.32" x2="16.84" y2="32.4"/><line class="cls-2" x1="17.66" y1="4.81" x2="17.59" y2="0.01"/><line class="cls-2" x1="0.01" y1="17.37" x2="4.81" y2="17.3"/><line class="cls-2" x1="30.94" y1="16.88" x2="35.74" y2="16.81"/><line class="cls-2" x1="8.6" y1="8.73" x2="5.15" y2="5.38"/><line class="cls-2" x1="26.77" y1="8.44" x2="30.11" y2="4.99"/><line class="cls-2" x1="8.39" y1="26.93" x2="5.05" y2="30.38"/><line class="cls-2" x1="27.34" y1="27.02" x2="30.79" y2="30.36"/><path class="cls-3" d="M18.23,30.36l-3.39-7.42A1,1,0,0,1,16,21.61l1.36.35a2.36,2.36,0,0,0,1.19,0l1.56-.41a1,1,0,0,1,1.24,1.22Z"/></g></g></svg>