<?xml version="1.0" encoding="utf-8"?>
<!-- Generator: Adobe Illustrator 21.0.2, SVG Export Plug-In . SVG Version: 6.00 Build 0)  -->
<svg version="1.1" id="Capa_1" xmlns="http://www.w3.org/2000/svg" xmlns:xlink="http://www.w3.org/1999/xlink" x="0px" y="0px"
	 viewBox="0 0 141.7 141.7" style="enable-background:new 0 0 141.7 141.7;" xml:space="preserve">
<style type="text/css">
	.st0{fill:#1D1D1B;}
</style>
<path class="st0" d="M89.5,43.7c-7.5-3.5-29-4.1-37.2,0L36.5,59.2v0.2c0,3.9,6.8,10.6,10.6,10.6h0.2l4.6-4.6v33.4l0.1,0.1
	c1.4,1.4,3.5,1.9,6,1.9c3.5,0,7.8-1,12.2-2.1c7.5-1.8,15.2-3.6,18.7-0.2l0.9,0.8v-34l4.6,4.6h0.2c3.9,0,10.6-6.8,10.6-10.6v-0.2
	L89.5,43.7z M79.6,42.4c-0.1,5.8-4.1,10.4-8.9,10.4c-4.9,0-8.8-4.7-8.9-10.5C67.4,41.6,74,41.7,79.6,42.4z M46.9,69.1
	c-3.3-0.2-9.2-6.1-9.4-9.4l14.7-14.7c4.7,4.3,0.9,17.1,0.5,18.4L46.9,69.1z M88.8,97.2c-1.2-0.8-2.7-1.3-4.4-1.4V83h-1v12.8
	c-0.9,0-1.9,0-2.8,0.1V85.4h-1V96c-0.9,0.1-1.8,0.2-2.7,0.4v-8.1h-1v8.3C74,97,72,97.4,70,97.9c-6.9,1.6-14,3.3-17.1,0.5V64.5
	l0.6-0.6l0-0.1c0.2-0.6,4.6-14.2-0.5-19.4c2-0.9,4.6-1.5,7.7-1.9c0.1,6.3,4.5,11.3,9.9,11.3c5.4,0,9.7-5,9.9-11.3
	c3.3,0.4,6.1,1.1,8.1,1.9c-5.1,5.1-0.7,18.8-0.5,19.3l0,0.1l0.6,0.6V97.2z M94.8,69.1l-5.8-5.8c-0.4-1.3-4.3-14.1,0.5-18.4
	l14.7,14.7C104,63,98.1,68.8,94.8,69.1z"/>
</svg>
