  0
SECTION
  2
HEADER
  9
$ACADVER
  1
AC1027
  9
$ACADMAINTVER
 70
   125
  9
$DWGCODEPAGE
  3
ANSI_1252
  9
$LASTSAVEDBY
  1
usuario
  9
$REQUIREDVERSIONS
160
                 0
  9
$INSBASE
 10
0.0
 20
0.0
 30
0.0
  9
$EXTMIN
 10
2099.132447215666
 20
-1407.079358982366
 30
-0.0000000000000175
  9
$EXTMAX
 10
3319.316804214169
 20
1093.279215087178
 30
0.000000000000013
  9
$LIMMIN
 10
0.0
 20
0.0
  9
$LIMMAX
 10
12.0
 20
9.0
  9
$ORTHOMODE
 70
     0
  9
$REGENMODE
 70
     1
  9
$FILLMODE
 70
     1
  9
$QTEXTMODE
 70
     0
  9
$MIRRTEXT
 70
     0
  9
$LTSCALE
 40
1.0
  9
$ATTMODE
 70
     1
  9
$TEXTSIZE
 40
0.2
  9
$TRACEWID
 40
0.05
  9
$TEXTSTYLE
  7
STANDARD
  9
$CLAYER
  8
0
  9
$CELTYPE
  6
Continuous
  9
$CECOLOR
 62
   256
  9
$CELTSCALE
 40
1.0
  9
$DISPSILH
 70
     0
  9
$DIMSCALE
 40
1.0
  9
$DIMASZ
 40
0.18
  9
$DIMEXO
 40
0.0625
  9
$DIMDLI
 40
0.38
  9
$DIMRND
 40
0.0
  9
$DIMDLE
 40
0.0
  9
$DIMEXE
 40
0.18
  9
$DIMTP
 40
0.0
  9
$DIMTM
 40
0.0
  9
$DIMTXT
 40
0.18
  9
$DIMCEN
 40
0.09
  9
$DIMTSZ
 40
0.0
  9
$DIMTOL
 70
     0
  9
$DIMLIM
 70
     0
  9
$DIMTIH
 70
     1
  9
$DIMTOH
 70
     1
  9
$DIMSE1
 70
     0
  9
$DIMSE2
 70
     0
  9
$DIMTAD
 70
     0
  9
$DIMZIN
 70
     0
  9
$DIMBLK
  1

  9
$DIMASO
 70
     1
  9
$DIMSHO
 70
     1
  9
$DIMPOST
  1

  9
$DIMAPOST
  1

  9
$DIMALT
 70
     0
  9
$DIMALTD
 70
     2
  9
$DIMALTF
 40
25.4
  9
$DIMLFAC
 40
1.0
  9
$DIMTOFL
 70
     0
  9
$DIMTVP
 40
0.0
  9
$DIMTIX
 70
     0
  9
$DIMSOXD
 70
     0
  9
$DIMSAH
 70
     0
  9
$DIMBLK1
  1

  9
$DIMBLK2
  1

  9
$DIMSTYLE
  2
Standard
  9
$DIMCLRD
 70
     0
  9
$DIMCLRE
 70
     0
  9
$DIMCLRT
 70
     0
  9
$DIMTFAC
 40
1.0
  9
$DIMGAP
 40
0.09
  9
$DIMJUST
 70
     0
  9
$DIMSD1
 70
     0
  9
$DIMSD2
 70
     0
  9
$DIMTOLJ
 70
     1
  9
$DIMTZIN
 70
     0
  9
$DIMALTZ
 70
     0
  9
$DIMALTTZ
 70
     0
  9
$DIMUPT
 70
     0
  9
$DIMDEC
 70
     4
  9
$DIMTDEC
 70
     4
  9
$DIMALTU
 70
     2
  9
$DIMALTTD
 70
     2
  9
$DIMTXSTY
  7
STANDARD
  9
$DIMAUNIT
 70
     0
  9
$DIMADEC
 70
     0
  9
$DIMALTRND
 40
0.0
  9
$DIMAZIN
 70
     0
  9
$DIMDSEP
 70
    46
  9
$DIMATFIT
 70
     3
  9
$DIMFRAC
 70
     0
  9
$DIMLDRBLK
  1

  9
$DIMLUNIT
 70
     2
  9
$DIMLWD
 70
    -2
  9
$DIMLWE
 70
    -2
  9
$DIMTMOVE
 70
     0
  9
$DIMFXL
 40
1.0
  9
$DIMFXLON
 70
     0
  9
$DIMJOGANG
 40
0.7853981633974483
  9
$DIMTFILL
 70
     0
  9
$DIMTFILLCLR
 70
     0
  9
$DIMARCSYM
 70
     0
  9
$DIMLTYPE
  6

  9
$DIMLTEX1
  6

  9
$DIMLTEX2
  6

  9
$DIMTXTDIRECTION
 70
     0
  9
$LUNITS
 70
     2
  9
$LUPREC
 70
     4
  9
$SKETCHINC
 40
0.1
  9
$FILLETRAD
 40
0.0
  9
$AUNITS
 70
     0
  9
$AUPREC
 70
     0
  9
$MENU
  1
.
  9
$ELEVATION
 40
0.0
  9
$PELEVATION
 40
0.0
  9
$THICKNESS
 40
0.0
  9
$LIMCHECK
 70
     0
  9
$CHAMFERA
 40
0.0
  9
$CHAMFERB
 40
0.0
  9
$CHAMFERC
 40
0.0
  9
$CHAMFERD
 40
0.0
  9
$SKPOLY
 70
     0
  9
$TDCREATE
 40
2458444.410995370
  9
$TDUCREATE
 40
2458444.410995370
  9
$TDUPDATE
 40
2458544.484039352
  9
$TDUUPDATE
 40
2458544.484039352
  9
$TDINDWG
 40
0.1150578704
  9
$TDUSRTIMER
 40
0.1150578704
  9
$USRTIMER
 70
     1
  9
$ANGBASE
 50
0.0
  9
$ANGDIR
 70
     0
  9
$PDMODE
 70
     0
  9
$PDSIZE
 40
0.0
  9
$PLINEWID
 40
0.0
  9
$SPLFRAME
 70
     0
  9
$SPLINETYPE
 70
     6
  9
$SPLINESEGS
 70
     8
  9
$HANDSEED
  5
10103BE
  9
$SURFTAB1
 70
     6
  9
$SURFTAB2
 70
     6
  9
$SURFTYPE
 70
     6
  9
$SURFU
 70
     6
  9
$SURFV
 70
     6
  9
$UCSBASE
  2

  9
$UCSNAME
  2

  9
$UCSORG
 10
0.0
 20
0.0
 30
0.0
  9
$UCSXDIR
 10
1.0
 20
0.0
 30
0.0
  9
$UCSYDIR
 10
0.0
 20
1.0
 30
0.0
  9
$UCSORTHOREF
  2

  9
$UCSORTHOVIEW
 70
     0
  9
$UCSORGTOP
 10
0.0
 20
0.0
 30
0.0
  9
$UCSORGBOTTOM
 10
0.0
 20
0.0
 30
0.0
  9
$UCSORGLEFT
 10
0.0
 20
0.0
 30
0.0
  9
$UCSORGRIGHT
 10
0.0
 20
0.0
 30
0.0
  9
$UCSORGFRONT
 10
0.0
 20
0.0
 30
0.0
  9
$UCSORGBACK
 10
0.0
 20
0.0
 30
0.0
  9
$PUCSBASE
  2

  9
$PUCSNAME
  2

  9
$PUCSORG
 10
0.0
 20
0.0
 30
0.0
  9
$PUCSXDIR
 10
1.0
 20
0.0
 30
0.0
  9
$PUCSYDIR
 10
0.0
 20
1.0
 30
0.0
  9
$PUCSORTHOREF
  2

  9
$PUCSORTHOVIEW
 70
     0
  9
$PUCSORGTOP
 10
0.0
 20
0.0
 30
0.0
  9
$PUCSORGBOTTOM
 10
0.0
 20
0.0
 30
0.0
  9
$PUCSORGLEFT
 10
0.0
 20
0.0
 30
0.0
  9
$PUCSORGRIGHT
 10
0.0
 20
0.0
 30
0.0
  9
$PUCSORGFRONT
 10
0.0
 20
0.0
 30
0.0
  9
$PUCSORGBACK
 10
0.0
 20
0.0
 30
0.0
  9
$USERI1
 70
     0
  9
$USERI2
 70
     0
  9
$USERI3
 70
     0
  9
$USERI4
 70
     0
  9
$USERI5
 70
     0
  9
$USERR1
 40
0.0
  9
$USERR2
 40
0.0
  9
$USERR3
 40
0.0
  9
$USERR4
 40
0.0
  9
$USERR5
 40
0.0
  9
$WORLDVIEW
 70
     1
  9
$SHADEDGE
 70
     3
  9
$SHADEDIF
 70
    70
  9
$TILEMODE
 70
     1
  9
$MAXACTVP
 70
    64
  9
$PINSBASE
 10
0.0
 20
0.0
 30
0.0
  9
$PLIMCHECK
 70
     0
  9
$PEXTMIN
 10
1.000000000000000E+20
 20
1.000000000000000E+20
 30
1.000000000000000E+20
  9
$PEXTMAX
 10
-1.000000000000000E+20
 20
-1.000000000000000E+20
 30
-1.000000000000000E+20
  9
$PLIMMIN
 10
0.0
 20
0.0
  9
$PLIMMAX
 10
12.0
 20
9.0
  9
$UNITMODE
 70
     0
  9
$VISRETAIN
 70
     1
  9
$PLINEGEN
 70
     0
  9
$PSLTSCALE
 70
     1
  9
$TREEDEPTH
 70
  3020
  9
$CMLSTYLE
  2
Standard
  9
$CMLJUST
 70
     0
  9
$CMLSCALE
 40
1.0
  9
$PROXYGRAPHICS
 70
     1
  9
$MEASUREMENT
 70
     0
  9
$CELWEIGHT
370
    -1
  9
$ENDCAPS
280
     0
  9
$JOINSTYLE
280
     0
  9
$LWDISPLAY
290
     0
  9
$INSUNITS
 70
     4
  9
$HYPERLINKBASE
  1

  9
$STYLESHEET
  1

  9
$XEDIT
290
     1
  9
$CEPSNTYPE
380
     0
  9
$PSTYLEMODE
290
     1
  9
$FINGERPRINTGUID
  2
{8AD9664A-628C-4240-9A75-76A76FEBB880}
  9
$VERSIONGUID
  2
{057EF67B-90C9-6445-8377-71AC8313522B}
  9
$EXTNAMES
290
     1
  9
$PSVPSCALE
 40
0.0
  9
$OLESTARTUP
290
     0
  9
$SORTENTS
280
   127
  9
$INDEXCTL
280
     0
  9
$HIDETEXT
280
     0
  9
$XCLIPFRAME
280
     2
  9
$HALOGAP
280
     0
  9
$OBSCOLOR
 70
   257
  9
$OBSLTYPE
280
     0
  9
$INTERSECTIONDISPLAY
280
     0
  9
$INTERSECTIONCOLOR
 70
   257
  9
$DIMASSOC
280
     1
  9
$PROJECTNAME
  1

  9
$CAMERADISPLAY
290
     0
  9
$LENSLENGTH
 40
50.0
  9
$CAMERAHEIGHT
 40
0.0
  9
$STEPSPERSEC
 40
2.0
  9
$STEPSIZE
 40
6.0
  9
$3DDWFPREC
 40
2.0
  9
$PSOLWIDTH
 40
0.25
  9
$PSOLHEIGHT
 40
4.0
  9
$LOFTANG1
 40
1.570796326794896
  9
$LOFTANG2
 40
1.570796326794896
  9
$LOFTMAG1
 40
0.0
  9
$LOFTMAG2
 40
0.0
  9
$LOFTPARAM
 70
     7
  9
$LOFTNORMALS
280
     1
  9
$LATITUDE
 40
37.795
  9
$LONGITUDE
 40
-122.394
  9
$NORTHDIRECTION
 40
0.0
  9
$TIMEZONE
 70
 -8000
  9
$LIGHTGLYPHDISPLAY
280
     1
  9
$TILEMODELIGHTSYNCH
280
     1
  9
$CMATERIAL
347
1010005
  9
$SOLIDHIST
280
     0
  9
$SHOWHIST
280
     1
  9
$DWFFRAME
280
     2
  9
$DGNFRAME
280
     0
  9
$REALWORLDSCALE
290
     1
  9
$INTERFERECOLOR
 62
     1
  9
$INTERFEREOBJVS
345
1010027
  9
$INTERFEREVPVS
346
1010024
  9
$CSHADOW
280
     0
  9
$SHADOWPLANELOCATION
 40
0.0
  0
ENDSEC
  0
SECTION
  2
CLASSES
  0
CLASS
  1
ACDBDICTIONARYWDFLT
  2
AcDbDictionaryWithDefault
  3
ObjectDBX Classes
 90
        0
 91
        1
280
     0
281
     0
  0
CLASS
  1
MATERIAL
  2
AcDbMaterial
  3
ObjectDBX Classes
 90
     1153
 91
        3
280
     0
281
     0
  0
CLASS
  1
VISUALSTYLE
  2
AcDbVisualStyle
  3
ObjectDBX Classes
 90
     4095
 91
       24
280
     0
281
     0
  0
CLASS
  1
TABLESTYLE
  2
AcDbTableStyle
  3
ObjectDBX Classes
 90
     4095
 91
        1
280
     0
281
     0
  0
CLASS
  1
SCALE
  2
AcDbScale
  3
ObjectDBX Classes
 90
     1153
 91
       17
280
     0
281
     0
  0
CLASS
  1
MLEADERSTYLE
  2
AcDbMLeaderStyle
  3
ACDB_MLEADERSTYLE_CLASS
 90
     4095
 91
        1
280
     0
281
     0
  0
CLASS
  1
ACDBSECTIONVIEWSTYLE
  2
AcDbSectionViewStyle
  3
ObjectDBX Classes
 90
     1025
 91
        1
280
     0
281
     0
  0
CLASS
  1
ACDBDETAILVIEWSTYLE
  2
AcDbDetailViewStyle
  3
ObjectDBX Classes
 90
     1025
 91
        1
280
     0
281
     0
  0
CLASS
  1
DICTIONARYVAR
  2
AcDbDictionaryVar
  3
ObjectDBX Classes
 90
        0
 91
        9
280
     0
281
     0
  0
CLASS
  1
CELLSTYLEMAP
  2
AcDbCellStyleMap
  3
ObjectDBX Classes
 90
     1152
 91
        2
280
     0
281
     0
  0
CLASS
  1
SORTENTSTABLE
  2
AcDbSortentsTable
  3
ObjectDBX Classes
 90
        0
 91
        1
280
     0
281
     0
  0
CLASS
  1
SOLID_BACKGROUND
  2
AcDbSolidBackground
  3
SCENEOE
 90
     4095
 91
        0
280
     0
281
     0
  0
CLASS
  1
NPOCOLLECTION
  2
AcDbImpNonPersistentObjectsCollection
  3
ObjectDBX Classes
 90
     1153
 91
        0
280
     0
281
     0
  0
ENDSEC
  0
SECTION
  2
TABLES
  0
TABLE
  2
VPORT
  5
8
330
0
100
AcDbSymbolTable
 70
     1
1001
ACAD
1000
DbSaveVer
1071
        5
  0
VPORT
  5
1010059
330
8
100
AcDbSymbolTableRecord
100
AcDbViewportTableRecord
  2
*Active
 70
     0
 10
0.0
 20
0.0
 11
1.0
 21
1.0
 12
-328.526564273257
 22
-121.3440367794133
 13
0.0
 23
0.0
 14
1.0
 24
1.0
 15
0.0
 25
0.0
 16
274.7505129180408
 26
-170.3851195304981
 36
9757.489526672141
 17
3037.692529409475
 27
-35.58189211421129
 37
-6.707666031275677
 40
2524.582687398887
 41
2.392628205128205
 42
50.0
 43
0.0
 44
0.0
 50
0.0
 51
58.2091686316474
 71
     0
 72
  1000
 73
     1
 74
     3
 75
     0
 76
     0
 77
     0
 78
     0
281
     0
 65
     1
110
0.0
120
0.0
130
0.0
111
1.0
121
0.0
131
0.0
112
0.0
122
1.0
132
0.0
 79
     0
146
0.0
348
1010023
 60
     3
 61
     5
292
     1
282
     1
141
0.0
142
0.0
 63
   250
421
  3355443
1001
ACAD_NAV_VCDISPLAY
1070
     1
  0
ENDTAB
  0
TABLE
  2
LTYPE
  5
5
330
0
100
AcDbSymbolTable
 70
     1
  0
LTYPE
  5
14
330
5
100
AcDbSymbolTableRecord
100
AcDbLinetypeTableRecord
  2
BYBLOCK
 70
     0
  3

 72
    65
 73
     0
 40
0.0
  0
LTYPE
  5
15
330
5
100
AcDbSymbolTableRecord
100
AcDbLinetypeTableRecord
  2
BYLAYER
 70
     0
  3

 72
    65
 73
     0
 40
0.0
  0
LTYPE
  5
1010001
330
5
100
AcDbSymbolTableRecord
100
AcDbLinetypeTableRecord
  2
Continuous
 70
     0
  3
Solid line
 72
    65
 73
     0
 40
0.0
  0
ENDTAB
  0
TABLE
  2
LAYER
  5
2
102
{ACAD_XDICTIONARY
360
10100CF
102
}
330
0
100
AcDbSymbolTable
 70
    12
  0
LAYER
  5
50
102
{ACAD_XDICTIONARY
360
10100BC
102
}
330
2
100
AcDbSymbolTableRecord
100
AcDbLayerTableRecord
  2
0
 70
     0
 62
     7
  6
Continuous
370
    -3
390
1010003
347
1010015
348
0
  0
LAYER
  5
101005D
102
{ACAD_XDICTIONARY
360
10100BE
102
}
330
2
100
AcDbSymbolTableRecord
100
AcDbLayerTableRecord
  2
Corte EXT
 70
     0
 62
     5
  6
Continuous
370
    -3
390
1010003
347
1010015
348
0
1001
AcAecLayerStandard
1000

1000

1001
AcCmTransparency
1071
        0
  0
LAYER
  5
1010061
102
{ACAD_XDICTIONARY
360
10100C2
102
}
330
2
100
AcDbSymbolTableRecord
100
AcDbLayerTableRecord
  2
Corte INT
 70
     0
 62
     4
  6
Continuous
370
    -3
390
1010003
347
1010015
348
0
1001
AcAecLayerStandard
1000

1000

1001
AcCmTransparency
1071
        0
  0
LAYER
  5
1010062
102
{ACAD_XDICTIONARY
360
10100C4
102
}
330
2
100
AcDbSymbolTableRecord
100
AcDbLayerTableRecord
  2
Taladros
 70
     0
 62
     3
  6
Continuous
370
    -3
390
1010003
347
1010015
348
0
1001
AcAecLayerStandard
1000

1000

1001
AcCmTransparency
1071
        0
  0
LAYER
  5
1010063
102
{ACAD_XDICTIONARY
360
10100C6
102
}
330
2
100
AcDbSymbolTableRecord
100
AcDbLayerTableRecord
  2
Cajeados 5mm
 70
     0
 62
     2
  6
Continuous
370
    -3
390
1010003
347
1010015
348
0
1001
AcAecLayerStandard
1000

1000

1001
AcCmTransparency
1071
        0
  0
LAYER
  5
1010064
102
{ACAD_XDICTIONARY
360
10100C8
102
}
330
2
100
AcDbSymbolTableRecord
100
AcDbLayerTableRecord
  2
Cajeados 9mm
 70
     0
 62
    30
  6
Continuous
370
    -3
390
1010003
347
1010015
348
0
1001
AcAecLayerStandard
1000

1000

1001
AcCmTransparency
1071
        0
  0
LAYER
  5
1010065
102
{ACAD_XDICTIONARY
360
10100CA
102
}
330
2
100
AcDbSymbolTableRecord
100
AcDbLayerTableRecord
  2
Cajeados 13mm
 70
     0
 62
     1
  6
Continuous
370
    -3
390
1010003
347
1010015
348
0
1001
AcAecLayerStandard
1000

1000

1001
AcCmTransparency
1071
        0
  0
LAYER
  5
1010124
330
2
100
AcDbSymbolTableRecord
100
AcDbLayerTableRecord
  2
Corte OVR
 70
     0
 62
     7
  6
Continuous
370
    -3
390
1010003
347
1010015
348
0
1001
AcAecLayerStandard
1000

1000

1001
AcCmTransparency
1071
        0
  0
LAYER
  5
1010167
102
{ACAD_XDICTIONARY
360
1010168
102
}
330
2
100
AcDbSymbolTableRecord
100
AcDbLayerTableRecord
  2
Tableros
 70
     0
 62
     6
  6
Continuous
370
    -3
390
1010003
347
1010015
348
0
1001
AcAecLayerStandard
1000

1000

1001
AcCmTransparency
1071
        0
  0
ENDTAB
  0
TABLE
  2
STYLE
  5
3
330
0
100
AcDbSymbolTable
 70
     1
  0
STYLE
  5
11
330
3
100
AcDbSymbolTableRecord
100
AcDbTextStyleTableRecord
  2
STANDARD
 70
     0
 40
0.0
 41
1.0
 50
0.0
 71
     0
 42
0.2
  3

  4

  0
ENDTAB
  0
TABLE
  2
VIEW
  5
6
330
0
100
AcDbSymbolTable
 70
     0
  0
ENDTAB
  0
TABLE
  2
UCS
  5
7
330
0
100
AcDbSymbolTable
 70
     0
  0
ENDTAB
  0
TABLE
  2
APPID
  5
9
330
0
100
AcDbSymbolTable
 70
     4
  0
APPID
  5
12
330
9
100
AcDbSymbolTableRecord
100
AcDbRegAppTableRecord
  2
ACAD
 70
     0
  0
APPID
  5
1010058
330
9
100
AcDbSymbolTableRecord
100
AcDbRegAppTableRecord
  2
ACAD_NAV_VCDISPLAY
 70
     0
  0
APPID
  5
101005E
330
9
100
AcDbSymbolTableRecord
100
AcDbRegAppTableRecord
  2
AcAecLayerStandard
 70
     0
  0
APPID
  5
101005F
330
9
100
AcDbSymbolTableRecord
100
AcDbRegAppTableRecord
  2
AcCmTransparency
 70
     0
  0
ENDTAB
  0
TABLE
  2
DIMSTYLE
  5
A
330
0
100
AcDbSymbolTable
 70
     1
100
AcDbDimStyleTable
 71
     1
340
1010052
  0
DIMSTYLE
105
1010052
330
A
100
AcDbSymbolTableRecord
100
AcDbDimStyleTableRecord
  2
Standard
 70
     0
340
11
  0
ENDTAB
  0
TABLE
  2
BLOCK_RECORD
  5
1
330
0
100
AcDbSymbolTable
 70
     0
  0
BLOCK_RECORD
  5
1F
102
{ACAD_XDICTIONARY
360
10100FD
102
}
330
1
100
AcDbSymbolTableRecord
100
AcDbBlockTableRecord
  2
*MODEL_SPACE
340
1010055
 70
     0
280
     1
281
     0
  0
BLOCK_RECORD
  5
1B
330
1
100
AcDbSymbolTableRecord
100
AcDbBlockTableRecord
  2
*PAPER_SPACE
340
1010056
 70
     0
280
     1
281
     0
  0
ENDTAB
  0
ENDSEC
  0
SECTION
  2
BLOCKS
  0
BLOCK
  5
20
330
1F
100
AcDbEntity
  8
0
100
AcDbBlockBegin
  2
*MODEL_SPACE
 70
     0
 10
0.0
 20
0.0
 30
0.0
  3
*MODEL_SPACE
  1

  0
ENDBLK
  5
21
330
1F
100
AcDbEntity
  8
0
100
AcDbBlockEnd
  0
BLOCK
  5
1C
330
1B
100
AcDbEntity
 67
     1
  8
0
100
AcDbBlockBegin
  2
*PAPER_SPACE
 70
     0
 10
0.0
 20
0.0
 30
0.0
  3
*PAPER_SPACE
  1

  0
ENDBLK
  5
1D
330
1B
100
AcDbEntity
 67
     1
  8
0
100
AcDbBlockEnd
  0
ENDSEC
  0
SECTION
  2
ENTITIES
  0
LWPOLYLINE
  5
148
102
{ACAD_REACTORS
330
1010090
102
}
330
1F
100
AcDbEntity
  8
Corte INT
100
AcDbPolyline
 90
        8
 70
     1
 43
0.0
 10
2529.054749413251
 20
-1351.236169473639
 42
-0.0219214839253297
 10
2401.831274861779
 20
-1351.236164852285
 42
-0.4123627128990954
 10
2391.426157149584
 20
-1339.948209239657
 10
2392.131869039461
 20
-1321.144399516636
 42
-0.4160913794005591
 10
2403.492339135752
 20
-1310.67331790351
 42
0.0219633447090386
 10
2527.39368808615
 20
-1310.673322404194
 42
-0.4160913794004576
 10
2538.754157421718
 20
-1321.144404842649
 10
2539.459867945513
 20
-1339.948214616936
 42
-0.4123627128991453
  0
LWPOLYLINE
  5
149
102
{ACAD_REACTORS
330
1010090
102
}
330
1F
100
AcDbEntity
  8
Corte EXT
100
AcDbPolyline
 90
       10
 70
     1
 43
0.0
 10
2756.111089690466
 20
-1352.954575072608
 42
-0.1007053402830905
 10
2168.563520720868
 20
-1351.690690995919
 42
-0.2997817817832221
 10
2154.442941965502
 20
-1337.5701112147
 42
-0.1038366993390578
 10
2156.89303489842
 20
-732.1406196311259
 42
0.101198384296023
 10
2162.364830990712
 20
-141.7986438021372
 42
-0.5320014682951139
 10
2183.651081087888
 20
-120.5123952513948
 42
0.0981069835429905
 10
2756.330353746698
 20
-118.7104431758496
 42
-0.4142580160548829
 10
2777.706990339899
 20
-132.9225648390831
 42
-0.1027496846757374
 10
2773.993034898418
 20
-732.1406420471104
 42
0.1027880284027684
 10
2770.323211353698
 20
-1331.577938479407
 42
-0.4142580160548335
  0
LWPOLYLINE
  5
191
330
1F
100
AcDbEntity
  8
Corte EXT
100
AcDbPolyline
 90
       16
 70
     1
 43
0.0
 10
2835.105569557942
 20
-1021.075101818269
 10
2835.105569557492
 20
-816.1751018182698
 42
-0.3333333333333306
 10
2871.105569557387
 20
-768.1751018181909
 10
2871.105569557941
 20
-1021.07510181819
 10
2867.762423807434
 20
-1021.075101818198
 42
1.0
 10
2862.105569557954
 20
-1026.731956067703
 10
2862.105569558048
 20
-1069.618247568717
 42
1.0
 10
2867.762423807553
 20
-1075.275101818198
 10
2871.105569558061
 20
-1075.27510181819
 10
2871.105569558616
 20
-1328.17510181819
 42
-0.3333333333333369
 10
2835.105569558511
 20
-1280.175101818269
 10
2835.105569558061
 20
-1075.27510181827
 10
2838.448715308568
 20
-1075.275101818262
 42
1.0
 10
2844.105569558048
 20
-1069.618247568757
 10
2844.105569557953
 20
-1026.731956067742
 42
1.0
 10
2838.448715308449
 20
-1021.075101818262
  0
LWPOLYLINE
  5
220
330
1F
100
AcDbEntity
  8
Corte EXT
100
AcDbPolyline
 90
       16
 70
     1
 43
0.0
 10
2788.10556955806
 20
-1069.618247568781
 42
-1.0
 10
2782.448715308568
 20
-1075.275101818274
 10
2779.105569558061
 20
-1075.275101818275
 10
2779.105569558089
 20
-1280.175101818275
 42
0.3333333333333335
 10
2815.105569558096
 20
-1328.17510181827
 10
2815.105569558061
 20
-1075.27510181827
 10
2811.76242380755
 20
-1075.275101818273
 42
-1.0
 10
2806.10556955806
 20
-1069.618247568778
 10
2806.105569558051
 20
-1026.731956067761
 42
-1.0
 10
2811.762423807545
 20
-1021.07510181827
 10
2815.105569558053
 20
-1021.075101818269
 10
2815.105569558017
 20
-768.1751018182698
 42
0.3333333333333321
 10
2779.105569558025
 20
-816.1751018182746
 10
2779.105569558053
 20
-1021.075101818275
 10
2782.448715308561
 20
-1021.075101818274
 42
-1.0
 10
2788.105569558055
 20
-1026.731956067766
  0
LWPOLYLINE
  5
249
330
1F
100
AcDbEntity
  8
Corte EXT
100
AcDbPolyline
 90
       44
 70
     1
 43
0.0
 10
3226.235111343084
 20
-1161.891802456739
 10
3228.954489924858
 20
-1161.891440512825
 42
0.4141907852722132
 10
3233.716989908788
 20
-1157.129310874175
 10
3233.72769037392
 20
-1019.531353182518
 42
-0.6105821568956756
 10
3238.752481916713
 20
-1016.95111637328
 42
-0.2052731629136101
 10
3249.603111313739
 20
-1034.892164392446
 10
3246.428111313739
 20
-1034.892164393446
 42
0.4142135623336749
 10
3243.253111314738
 20
-1038.067164394019
 10
3243.253111336198
 20
-1157.129331093721
 42
1.0
 10
3252.778111336199
 20
-1157.129331091365
 10
3252.778111303579
 20
-1053.434164391445
 10
3276.235088284272
 20
-1053.434164384063
 10
3276.235088284508
 20
-1054.191523696932
 42
1.0
 10
3280.477728972948
 20
-1058.434164382729
 10
3294.235088285829
 20
-1058.4341643784
 10
3294.23508829999
 20
-1103.4341643784
 10
3285.477728987125
 20
-1103.434164381156
 42
1.0
 10
3281.235088301341
 20
-1107.676805069611
 10
3281.235088372139
 20
-1332.667990159368
 42
1.0
 10
3285.477729060617
 20
-1336.910630845129
 10
3294.235088373265
 20
-1336.910630842323
 10
3294.235088387679
 20
-1381.910630842323
 10
3226.235111378748
 20
-1381.910630864107
 10
3158.235134369818
 20
-1381.910630864369
 10
3158.235134369644
 20
-1336.910630864369
 10
3166.992493682291
 20
-1336.910630864335
 42
1.0
 10
3171.235134369394
 20
-1332.667990177199
 10
3171.235134367253
 20
-1107.676805087441
 42
1.0
 10
3166.992493680092
 20
-1103.434164400362
 10
3158.235134367228
 20
-1103.434164400445
 10
3158.2351343668
 20
-1058.434164400446
 10
3171.99249367968
 20
-1058.434164400314
 42
1.0
 10
3176.235134366745
 20
-1054.191523713141
 10
3176.235134366735
 20
-1053.434164400273
 10
3199.692111347428
 20
-1053.43416440005
 10
3199.692111348426
 20
-1157.12933109997
 42
1.0
 10
3209.217111348426
 20
-1157.129331099238
 10
3209.217111331287
 20
-1038.067164399536
 42
0.4142135623336486
 10
3206.042111331257
 20
-1034.892164399993
 10
3202.867111331257
 20
-1034.892164400022
 42
-0.2052731629136172
 10
3213.717740722465
 20
-1016.951116377338
 42
-0.6105821568956645
 10
3218.742532266097
 20
-1019.531353184947
 10
3218.753232775836
 20
-1157.1293108766
 42
0.4141907852722175
 10
3223.515732761311
 20
-1161.891440513707
  0
CIRCLE
  5
294
102
{ACAD_REACTORS
330
10100EC
102
}
330
1F
100
AcDbEntity
  8
Taladros
100
AcDbCircle
 10
2200.789991147348
 20
-10.38554725315947
 30
0.0
 40
2.999999999999973
  0
CIRCLE
  5
295
102
{ACAD_REACTORS
330
10100EC
102
}
330
1F
100
AcDbEntity
  8
Taladros
100
AcDbCircle
 10
2200.789991146814
 20
-83.38550121330728
 30
0.0
 40
3.000000000000008
  0
CIRCLE
  5
296
102
{ACAD_REACTORS
330
10100EC
102
}
330
1F
100
AcDbEntity
  8
Taladros
100
AcDbCircle
 10
2249.789977482255
 20
-10.38554725352202
 30
0.0
 40
2.999999999999973
  0
CIRCLE
  5
297
102
{ACAD_REACTORS
330
10100EC
102
}
330
1F
100
AcDbEntity
  8
Taladros
100
AcDbCircle
 10
2249.789977481709
 20
-83.38550121366992
 30
0.0
 40
3.000000000000008
  0
CIRCLE
  5
298
102
{ACAD_REACTORS
330
10100EC
102
}
330
1F
100
AcDbEntity
  8
Taladros
100
AcDbCircle
 10
2305.789909615651
 20
-83.38550121408832
 30
-0.0000000000000044
 40
3.000000000000078
  0
CIRCLE
  5
299
102
{ACAD_REACTORS
330
10100EC
102
}
330
1F
100
AcDbEntity
  8
Taladros
100
AcDbCircle
 10
2144.790059012872
 20
-83.38550121289758
 30
0.0000000000000044
 40
3.000000000000078
  0
CIRCLE
  5
300
102
{ACAD_REACTORS
330
10100EC
102
}
330
1F
100
AcDbEntity
  8
Taladros
100
AcDbCircle
 10
2144.790059013407
 20
-10.38554725274954
 30
0.0
 40
3.000000000000008
  0
CIRCLE
  5
301
102
{ACAD_REACTORS
330
10100EC
102
}
330
1F
100
AcDbEntity
  8
Taladros
100
AcDbCircle
 10
2305.789909616196
 20
-10.38554725394039
 30
0.0000000000000044
 40
3.000000000000008
  0
CIRCLE
  5
323
102
{ACAD_REACTORS
330
10100EA
102
}
330
1F
100
AcDbEntity
  8
Taladros
100
AcDbCircle
 10
2612.281259041701
 20
-12.09274957197232
 30
0.0
 40
2.999999999999973
  0
CIRCLE
  5
324
102
{ACAD_REACTORS
330
10100EA
102
}
330
1F
100
AcDbEntity
  8
Taladros
100
AcDbCircle
 10
2612.281259041167
 20
-85.0927035321199
 30
0.0
 40
3.000000000000008
  0
CIRCLE
  5
325
102
{ACAD_REACTORS
330
10100EA
102
}
330
1F
100
AcDbEntity
  8
Taladros
100
AcDbCircle
 10
2556.28132690776
 20
-12.09274957156219
 30
-0.0000000000000044
 40
3.000000000000008
  0
CIRCLE
  5
326
102
{ACAD_REACTORS
330
10100EA
102
}
330
1F
100
AcDbEntity
  8
Taladros
100
AcDbCircle
 10
2556.281326907225
 20
-85.09270353171013
 30
0.0
 40
3.000000000000078
  0
LWPOLYLINE
  5
327
102
{ACAD_REACTORS
330
10100EA
102
}
330
1F
100
AcDbEntity
  8
Corte EXT
100
AcDbPolyline
 90
        6
 70
     1
 43
0.0
 10
2536.715674617197
 20
-17.59274957141611
 42
-0.4142135623730731
 10
2554.71567461733
 20
0.4072504284495154
 10
2627.781259039172
 20
0.4072504279089344
 10
2627.781259038439
 20
-97.59270353223229
 10
2554.715674616601
 20
-97.59270353168677
 42
-0.4142135623730951
 10
2536.715674616734
 20
-79.59270353155261
  0
CIRCLE
  5
328
102
{ACAD_REACTORS
330
10100EA
102
}
330
1F
100
AcDbEntity
  8
Taladros
100
AcDbCircle
 10
2661.281245376605
 20
-12.09274957153246
 30
0.0
 40
2.999999999999973
  0
CIRCLE
  5
329
102
{ACAD_REACTORS
330
10100EA
102
}
330
1F
100
AcDbEntity
  8
Taladros
100
AcDbCircle
 10
2717.281177510546
 20
-12.09274957195077
 30
0.0
 40
3.000000000000008
  0
CIRCLE
  5
330
102
{ACAD_REACTORS
330
10100EA
102
}
330
1F
100
AcDbEntity
  8
Taladros
100
AcDbCircle
 10
2661.281245376059
 20
-85.09270353168023
 30
0.0
 40
3.000000000000008
  0
CIRCLE
  5
331
102
{ACAD_REACTORS
330
10100EA
102
}
330
1F
100
AcDbEntity
  8
Taladros
100
AcDbCircle
 10
2717.28117751
 20
-85.09270353209876
 30
0.0000000000000044
 40
3.000000000000078
  0
LWPOLYLINE
  5
332
102
{ACAD_REACTORS
330
10100EA
102
}
330
1F
100
AcDbEntity
  8
Corte EXT
100
AcDbPolyline
 90
        6
 70
     1
 43
0.0
 10
2718.781177510639
 20
0.4072504280380829
 42
-0.4142135623731136
 10
2736.781177510506
 20
-17.59274957209617
 10
2736.781177510043
 20
-79.59270353224365
 42
-0.414213562373094
 10
2718.781177509909
 20
-97.59270353210929
 10
2645.781245375966
 20
-97.59270353156459
 10
2645.781245376697
 20
0.4072504285779817
  0
LWPOLYLINE
  5
352
330
1F
100
AcDbEntity
  8
Corte EXT
100
AcDbPolyline
 90
       14
 70
     1
 43
0.0
 10
3197.469180265632
 20
-949.5535259249319
 10
3197.46918026574
 20
-959.2682445506923
 42
0.95150565963688
 10
3201.490887902135
 20
-963.7108852377656
 10
3226.267250117617
 20
-963.7108852374877
 10
3197.327565654714
 20
-1004.087857099225
 42
-0.2417842098189197
 10
3187.005133687896
 20
-1009.389384399574
 10
3180.827762941256
 20
-1009.389384399644
 42
-0.4142135623731197
 10
3168.127762941113
 20
-996.6893843997864
 10
3168.127762940161
 20
-912.1323860764976
 42
-0.4142135623731147
 10
3180.827762940019
 20
-899.4323860763554
 10
3187.005133686659
 20
-899.4323860762852
 42
-0.2417842098189184
 10
3197.327565653597
 20
-904.733913376403
 10
3226.267250117408
 20
-945.1108852374876
 10
3201.490887901925
 20
-945.1108852377659
 42
0.9515056596372355
  0
LWPOLYLINE
  5
355
102
{ACAD_REACTORS
330
10100E9
102
}
330
1F
100
AcDbEntity
  8
Corte EXT
100
AcDbPolyline
 90
       48
 70
     1
 43
0.0
 10
3268.057306578733
 20
-930.1029572067674
 42
-0.2043751434824872
 10
3255.064957769065
 20
-924.5608411526024
 10
3104.428890132489
 20
-767.4622245207124
 42
0.2762003140798461
 10
3005.428442073651
 20
-740.3365693594487
 42
-0.0679873860744955
 10
3002.746368828694
 20
-740.7029572067468
 10
2826.523088387694
 20
-740.7029572067332
 10
2826.523088387699
 20
-692.0029813470677
 10
2838.474887070098
 20
-692.0029813470688
 42
0.4244346499059433
 10
2844.228357589845
 20
-691.9029458982683
 10
2844.299735300876
 20
-691.9029458982683
 10
2844.299735300874
 20
-691.8243580934309
 42
0.0222117253817224
 10
2844.522999128163
 20
-691.5480809085362
 10
2844.522999128163
 20
-638.2578817855911
 42
0.0222117253812741
 10
2844.299735300879
 20
-637.9816046007028
 10
2844.299735300879
 20
-637.9029685151952
 10
2844.22831255436
 20
-637.9029685151946
 42
0.4244297800187086
 10
2838.474887070109
 20
-637.8029813470676
 10
2826.523088387704
 20
-637.8029813470663
 10
2826.523088387708
 20
-589.1029572067265
 10
3002.746368828696
 20
-589.1029572067427
 42
-0.0679873860745232
 10
3005.428442073655
 20
-589.4693450540415
 42
0.2762003140798841
 10
3104.428890132509
 20
-562.3436898927916
 10
3255.064957769113
 20
-405.2450732609282
 42
-0.2043751434824892
 10
3268.057306578781
 20
-399.7029572067655
 10
3281.535088387722
 20
-399.7029572067669
 42
-0.4142135623731181
 10
3294.235088387721
 20
-412.4029572067683
 10
3294.235088387718
 20
-445.3814563684123
 10
3268.915378699013
 20
-445.3814563684097
 42
0.9515056596369767
 10
3264.893671062669
 20
-449.824097055529
 10
3264.893671062669
 20
-459.5388156812902
 42
0.9515056596369802
 10
3268.915378699011
 20
-463.9814563684097
 10
3294.235088387715
 20
-463.9814563684121
 10
3294.235088387715
 20
-491.3722316990039
 42
-0.151645195853059
 10
3291.07083168857
 20
-501.5654019963672
 10
3208.481935744594
 20
-621.7701689119962
 42
0.0471896947525151
 10
3206.833816281385
 20
-624.7326913562716
 42
0.2096820736864579
 10
3206.83381628138
 20
-705.0732230572568
 42
0.0471896947524911
 10
3208.48193574459
 20
-708.0357455015306
 10
3291.070831688541
 20
-828.2405124171699
 42
-0.1516451958530865
 10
3294.235088387682
 20
-838.4336827145336
 10
3294.235088387679
 20
-865.8244580451251
 10
3268.915378698975
 20
-865.8244580451233
 42
0.951505659637
 10
3264.89367106263
 20
-870.2670987322418
 10
3264.89367106263
 20
-879.9818173580034
 42
0.9515056596369552
 10
3268.915378698974
 20
-884.4244580451228
 10
3294.235088387678
 20
-884.4244580451251
 10
3294.235088387676
 20
-917.4029572067691
 42
-0.41421356237311
 10
3281.535088387674
 20
-930.1029572067678
  0
LWPOLYLINE
  5
356
102
{ACAD_REACTORS
330
10100E9
102
}
330
1F
100
AcDbEntity
  8
Corte INT
100
AcDbPolyline
 90
        8
 70
     1
 43
0.0
 10
2944.546368824613
 20
-641.9455978951492
 10
2944.546368824613
 20
-687.8603165209101
 42
1.0
 10
2948.789009511731
 20
-692.1029572080298
 10
2958.703728137493
 20
-692.1029572080298
 42
1.0
 10
2962.946368824613
 20
-687.8603165209101
 10
2962.946368824613
 20
-641.9455978951488
 42
1.0
 10
2958.703728137493
 20
-637.7029572080298
 10
2948.789009511732
 20
-637.7029572080298
 42
1.0
  0
LWPOLYLINE
  5
357
102
{ACAD_REACTORS
330
10100E9
102
}
330
1F
100
AcDbEntity
  8
Corte INT
100
AcDbPolyline
 90
        8
 70
     1
 43
0.0
 10
2909.636065346108
 20
-655.250623906648
 10
2880.426065404329
 20
-655.2506239066457
 42
0.4142135623730688
 10
2877.25106540433
 20
-658.4256239066452
 10
2877.251065404328
 20
-671.3802905068237
 42
0.4142135623730557
 10
2880.426065404327
 20
-674.5552905068242
 10
2909.636065346107
 20
-674.555290506827
 42
0.4142135623731868
 10
2912.811065346107
 20
-671.380290506827
 10
2912.811065346108
 20
-658.4256239066482
 42
0.4142135623731016
  0
LWPOLYLINE
  5
358
102
{ACAD_REACTORS
330
10100E9
102
}
330
1F
100
AcDbEntity
  8
Corte INT
100
AcDbPolyline
 90
        8
 70
     1
 43
0.0
 10
3046.343958675743
 20
-674.5556238069067
 10
3060.567958675743
 20
-674.5556238069195
 42
0.4142135623733901
 10
3063.742958675746
 20
-671.3806238069202
 10
3063.742958675747
 20
-658.4252906065777
 42
0.4142135623733901
 10
3060.567958675744
 20
-655.2502906065775
 10
3046.343958675746
 20
-655.2502906065875
 42
0.4142135623729705
 10
3043.168958675747
 20
-658.4252906065882
 10
3043.168958675746
 20
-671.3806238069065
 42
0.4142135623729575
  0
LWPOLYLINE
  5
359
102
{ACAD_REACTORS
330
10100E9
102
}
330
1F
100
AcDbEntity
  8
Corte INT
100
AcDbPolyline
 90
        8
 70
     1
 43
0.0
 10
3128.232435670089
 20
-655.250623906666
 10
3099.022435728308
 20
-655.2506239066639
 42
0.4142135623730951
 10
3095.847435728309
 20
-658.4256239066641
 10
3095.847435728308
 20
-671.3802905068392
 42
0.4142135623730033
 10
3099.022435728306
 20
-674.5552905068392
 10
3128.232435670088
 20
-674.5552905068421
 42
0.4142135623730688
 10
3131.407435670086
 20
-671.3802905068429
 10
3131.407435670087
 20
-658.4256239066664
 42
0.4142135623730623
  0
LWPOLYLINE
  5
360
102
{ACAD_REACTORS
330
10100E9
102
}
330
1F
100
AcDbEntity
  8
Corte INT
100
AcDbPolyline
 90
        8
 70
     1
 43
0.0
 10
3180.910912650779
 20
-655.2506239066697
 10
3166.686912650781
 20
-655.2506239066794
 42
0.4142135623730426
 10
3163.511912650783
 20
-658.42562390668
 10
3163.511912650781
 20
-671.3802905068347
 42
0.4142135623729771
 10
3166.686912650778
 20
-674.5552905068358
 10
3180.910912650776
 20
-674.5552905068481
 42
0.4142135623733376
 10
3184.085912650779
 20
-671.3802905068491
 10
3184.085912650779
 20
-658.4256239066688
 42
0.4142135623733444
  0
LWPOLYLINE
  5
361
102
{ACAD_REACTORS
330
10100E8
102
}
330
1F
100
AcDbEntity
  8
Corte EXT
100
AcDbPolyline
 90
       48
 70
     1
 43
0.0
 10
2851.410845740538
 20
-33.89169806962172
 42
-0.2499441187610008
 10
2866.356832679972
 20
-41.86087186206304
 10
2960.376873912992
 20
-181.9512571640176
 42
0.3123896800648821
 10
3066.347406292023
 20
-223.5583114178156
 42
-0.0579229402549005
 10
3068.641133452461
 20
-223.2916980696169
 10
3244.864413893459
 20
-223.2916980696158
 10
3244.864413893459
 20
-271.9916739292803
 10
3232.91261521106
 20
-271.9916739292799
 42
0.4244346499061097
 10
3227.159144691312
 20
-272.0917093780827
 10
3227.087766980283
 20
-272.0917093780827
 10
3227.087766980285
 20
-272.170297182918
 42
0.0222117253873247
 10
3226.864503152945
 20
-272.4465743678812
 10
3226.864503152948
 20
-325.7367734906895
 42
0.0222117253862564
 10
3227.087766980283
 20
-326.0130506756466
 10
3227.087766980283
 20
-326.0916867611559
 10
3227.159189726803
 20
-326.0916867611558
 42
0.4244297800185703
 10
3232.912615211056
 20
-326.191673929281
 10
3244.864413893459
 20
-326.1916739292816
 10
3244.864413893459
 20
-374.8916980696225
 10
3068.641133452471
 20
-374.8916980696217
 42
-0.0579229402549326
 10
3066.347406292031
 20
-374.6250847214227
 42
0.3123896800649201
 10
2960.376873912992
 20
-416.2321389752251
 10
2866.356832679972
 20
-556.3225242771801
 42
-0.2499441187610051
 10
2851.410845740538
 20
-564.2916980696217
 10
2839.852413893463
 20
-564.2916980696212
 42
-0.4142135623731054
 10
2827.152413893463
 20
-551.5916980696212
 10
2827.152413893464
 20
-518.6131989079775
 10
2852.472123582168
 20
-518.6131989079775
 42
0.9515056596369676
 10
2856.493831218513
 20
-514.1705582208586
 10
2856.493831218513
 20
-504.4558395950971
 42
0.9515056596370399
 10
2852.472123582168
 20
-500.0131989079778
 10
2827.152413893464
 20
-500.0131989079775
 10
2827.152413893464
 20
-465.0700202857128
 42
-0.0492479920673717
 10
2827.38412358282
 20
-462.7232473600996
 10
2860.952378005558
 20
-358.7667388825844
 42
0.0297933147118554
 10
2861.488365023837
 20
-356.6916259178814
 42
0.0969013054660493
 10
2861.488365023837
 20
-241.4917702213626
 42
0.029793314711854
 10
2860.952378005558
 20
-239.4166572566597
 10
2827.38412358282
 20
-135.4601487791436
 42
-0.0492479920673759
 10
2827.152413893464
 20
-133.1133758535301
 10
2827.152413893464
 20
-98.17019723126556
 10
2852.472123582169
 20
-98.17019723126509
 42
0.9515056596369435
 10
2856.493831218513
 20
-93.72755654414595
 10
2856.493831218513
 20
-84.01283791838428
 42
0.9515056596369312
 10
2852.472123582168
 20
-79.57019723126539
 10
2827.152413893463
 20
-79.57019723126539
 10
2827.152413893463
 20
-46.59169806962199
 42
-0.4142135623731116
 10
2839.852413893463
 20
-33.8916980696215
  0
LWPOLYLINE
  5
362
102
{ACAD_REACTORS
330
10100E8
102
}
330
1F
100
AcDbEntity
  8
Corte INT
100
AcDbPolyline
 90
        8
 70
     1
 43
0.0
 10
2887.301589630382
 20
-292.614364769531
 10
2887.301589630382
 20
-305.5690313697113
 42
0.4142135623733671
 10
2890.476589630384
 20
-308.7440313697107
 10
2904.700589630382
 20
-308.7440313696991
 42
0.4142135623730229
 10
2907.87558963038
 20
-305.5690313696981
 10
2907.87558963038
 20
-292.614364769544
 42
0.4142135623730593
 10
2904.700589630382
 20
-289.4393647695429
 10
2890.476589630384
 20
-289.4393647695314
 42
0.414213562373354
  0
LWPOLYLINE
  5
363
102
{ACAD_REACTORS
330
10100E8
102
}
330
1F
100
AcDbEntity
  8
Corte INT
100
AcDbPolyline
 90
        8
 70
     1
 43
0.0
 10
2939.980066611074
 20
-292.6143647695329
 10
2939.980066611074
 20
-305.569031369709
 42
0.4142135623731378
 10
2943.155066611075
 20
-308.744031369709
 10
2972.365066552855
 20
-308.7440313697086
 42
0.4142135623730623
 10
2975.540066552854
 20
-305.5690313697084
 10
2975.540066552854
 20
-292.6143647695333
 42
0.4142135623730295
 10
2972.365066552855
 20
-289.439364769533
 10
2943.155066611075
 20
-289.4393647695332
 42
0.4142135623731277
  0
LWPOLYLINE
  5
364
102
{ACAD_REACTORS
330
10100E8
102
}
330
1F
100
AcDbEntity
  8
Corte INT
100
AcDbPolyline
 90
        8
 70
     1
 43
0.0
 10
3028.218543605416
 20
-305.5693646697796
 10
3028.218543605416
 20
-292.6140314694618
 42
0.4142135623729443
 10
3025.043543605419
 20
-289.4390314694618
 10
3010.819543605418
 20
-289.4390314694501
 42
0.4142135623733835
 10
3007.644543605415
 20
-292.6140314694499
 10
3007.644543605415
 20
-305.5693646697918
 42
0.414213562373385
 10
3010.819543605418
 20
-308.744364669792
 10
3025.043543605419
 20
-308.7443646697801
 42
0.4142135623729871
  0
LWPOLYLINE
  5
365
102
{ACAD_REACTORS
330
10100E8
102
}
330
1F
100
AcDbEntity
  8
Corte INT
100
AcDbPolyline
 90
        8
 70
     1
 43
0.0
 10
3158.576436935053
 20
-292.6143647695293
 10
3158.576436935053
 20
-305.5690313697082
 42
0.4142135623731689
 10
3161.751436935053
 20
-308.7440313697083
 10
3190.961436876832
 20
-308.744031369708
 42
0.4142135623731082
 10
3194.136436876832
 20
-305.569031369708
 10
3194.136436876832
 20
-292.6143647695296
 42
0.4142135623731049
 10
3190.961436876832
 20
-289.4393647695295
 10
3161.751436935054
 20
-289.4393647695292
 42
0.4142135623731277
  0
LINE
  5
366
102
{ACAD_REACTORS
330
10100E8
102
}
330
1F
100
AcDbEntity
  8
Corte INT
100
AcDbLine
 10
3122.598492769431
 20
-326.2916980683298
 30
-0.0000000000000089
 11
3112.683774143671
 21
-326.2916980683304
 31
-0.0000000000000089
  0
ARC
  5
367
102
{ACAD_REACTORS
330
10100E8
102
}
330
1F
100
AcDbEntity
  8
Corte INT
100
AcDbCircle
 10
3110.56245380011
 20
-324.170377724771
 30
-0.0000000000000089
 40
2.999999999999968
100
AcDbArc
 50
135.0000000000091
 51
315.0000000000091
  0
LINE
  5
368
102
{ACAD_REACTORS
330
10100E8
102
}
330
1F
100
AcDbEntity
  8
Corte INT
100
AcDbLine
 10
3108.44113345655
 20
-322.0490573812117
 30
-0.0000000000000089
 11
3108.441133456546
 21
-276.1343387554502
 31
-0.0000000000000089
  0
ARC
  5
369
102
{ACAD_REACTORS
330
10100E8
102
}
330
1F
100
AcDbEntity
  8
Corte INT
100
AcDbCircle
 10
3110.562453800105
 20
-274.0130184118902
 30
0.0
 40
3.000000000000095
100
AcDbArc
 50
45.0000000000185
 51
225.0000000000185
  0
LINE
  5
370
102
{ACAD_REACTORS
330
10100E8
102
}
330
1F
100
AcDbEntity
  8
Corte INT
100
AcDbLine
 10
3112.683774143665
 20
-271.8916980683304
 30
0.0
 11
3122.598492737815
 21
-271.89169809994
 31
0.0
  0
ARC
  5
371
102
{ACAD_REACTORS
330
10100E8
102
}
330
1F
100
AcDbEntity
  8
Corte INT
100
AcDbCircle
 10
3124.719813112986
 20
-274.013018411889
 30
0.0
 40
2.999999999999944
100
AcDbArc
 50
315.0000000000091
 51
135.0000008537745
  0
LINE
  5
372
102
{ACAD_REACTORS
330
10100E8
102
}
330
1F
100
AcDbEntity
  8
Corte INT
100
AcDbLine
 10
3126.841133456546
 20
-276.1343387554485
 30
0.0
 11
3126.841133456549
 21
-322.0490573812096
 31
0.0
  0
ARC
  5
373
102
{ACAD_REACTORS
330
10100E8
102
}
330
1F
100
AcDbEntity
  8
Corte INT
100
AcDbCircle
 10
3124.71981311299
 20
-324.1703777247699
 30
-0.0000000000000089
 40
2.999999999999916
100
AcDbArc
 50
225.0000000000185
 51
45.0000000000185
  0
LWPOLYLINE
  5
375
330
1F
100
AcDbEntity
  8
Corte EXT
100
AcDbPolyline
 90
       56
 70
     1
 43
0.0
 10
2143.298093647436
 20
487.5074067223703
 10
3077.138194395837
 20
487.5074067257395
 10
3077.138361045911
 20
468.4574067257393
 10
3058.59636104591
 20
468.4574067257083
 42
1.0
 10
3058.596361045926
 20
458.9324067257077
 10
3058.596361045951
 20
444.3539297450231
 10
2954.900861045951
 20
444.353929744838
 42
1.0
 10
2954.900861046608
 20
434.8289297448376
 10
3073.963027746309
 20
434.8289297610448
 42
0.4142135623336879
 10
3077.138027745879
 20
438.00392976105
 10
3077.138027745872
 20
441.1789297610493
 42
-0.2052731629136109
 10
3095.079075768472
 20
430.3283003697004
 42
-0.6105821568955258
 10
3092.498838960823
 20
425.3035088260896
 10
2954.900881269172
 20
425.2928083174269
 42
0.4141907852722352
 10
2950.138751632027
 20
420.5303083319899
 10
2950.138027745916
 20
415.0915511434297
 42
0.4142135623260585
 10
2954.900527745924
 20
410.3290511442017
 10
3092.498838959881
 20
410.3183506504057
 42
-0.6105821570001809
 10
3095.079075768515
 20
405.2935591068028
 42
-0.205273162913599
 10
3077.138027745952
 20
394.4429297153929
 10
3077.138027745946
 20
397.6179297153925
 42
0.4142135623336879
 10
3073.963027746367
 20
400.7929297153872
 10
2954.90052774658
 20
400.7929297311808
 42
1.0
 10
2954.900527746278
 20
391.2679297311809
 10
3058.596027745958
 20
391.2679297313561
 10
3058.596027745981
 20
376.689452750671
 42
1.0
 10
3058.596027745998
 20
367.1644527506713
 10
3077.138027745998
 20
367.1644527507023
 10
3077.13802774603
 20
348.1144527507039
 10
2143.298260298249
 20
348.1144527473342
 10
2143.298260298144
 20
367.164452747333
 10
2161.840260298144
 20
367.1644527474358
 42
1.0
 10
2161.840260298092
 20
376.6894527474355
 10
2161.84026029801
 20
391.2679297281205
 10
2265.535760297689
 20
391.2679297286934
 42
1.0
 10
2265.535760297318
 20
400.7929297286931
 10
2146.473260297531
 20
400.7929297120407
 42
0.4142135623336814
 10
2143.298260297976
 20
397.6179297120233
 10
2143.298260297993
 20
394.4429297120235
 42
-0.2052731629136002
 10
2125.357212275352
 20
405.293559103304
 42
-0.6105821570001237
 10
2127.937449083947
 20
410.3183506469243
 10
2265.535760297905
 20
410.3290511417148
 42
0.4142135623260561
 10
2270.298260297878
 20
415.0915511409764
 10
2270.297536411729
 20
420.5303083295365
 42
0.4141907852722045
 10
2265.535406774551
 20
425.2928083149398
 10
2127.937449082898
 20
425.3035088226096
 42
-0.6105821568956734
 10
2125.357212275213
 20
430.3283003662015
 42
-0.205273162913613
 10
2143.298260297735
 20
441.1789297576801
 10
2143.298260297753
 20
438.0039297576803
 42
0.4142135623335208
 10
2146.473260297343
 20
434.8289297576982
 10
2265.535426997045
 20
434.8289297423502
 42
1.0
 10
2265.535426997633
 20
444.3539297423503
 10
2161.839926997632
 20
444.3539297417877
 10
2161.839926997553
 20
458.9324067224723
 42
1.0
 10
2161.839926997501
 20
468.4574067224724
 10
2143.2979269975
 20
468.4574067223701
  0
CIRCLE
  5
376
102
{ACAD_REACTORS
330
10100E7
102
}
330
1F
100
AcDbEntity
  8
Corte INT
100
AcDbCircle
 10
2591.299138760813
 20
212.1144527486769
 30
0.0
 40
9.299993168763183
  0
CIRCLE
  5
441
102
{ACAD_REACTORS
330
10100E6
102
}
330
1F
100
AcDbEntity
  8
Corte INT
100
AcDbCircle
 10
2634.155044704135
 20
301.114452747547
 30
0.0
 40
9.299993168763183
  0
LWPOLYLINE
  5
101005B
330
1F
100
AcDbEntity
  8
Tableros
  6
Continuous
100
AcDbPolyline
 90
        4
 70
     1
 43
0.0
 10
2099.235088387679
 20
-1406.91063083912
 10
3319.235088387679
 20
-1406.91063083912
 10
3319.235088387679
 20
1093.08936916088
 10
2099.235088387679
 20
1093.08936916088
  0
LWPOLYLINE
  5
1010066
102
{ACAD_REACTORS
330
1010070
102
}
330
1F
100
AcDbEntity
  8
Cajeados 9mm
100
AcDbPolyline
 90
        4
 70
     1
 43
0.0
 10
2148.934821516998
 20
93.11445274727519
 10
2185.534873677342
 20
93.11445274729885
 10
2185.534873677345
 20
153.1144527472875
 10
2148.93482151694
 20
153.1144527474457
  0
LWPOLYLINE
  5
101006D
102
{ACAD_REACTORS
330
1010070
102
}
330
1F
100
AcDbEntity
  8
Cajeados 9mm
100
AcDbPolyline
 90
        4
 70
     1
 43
0.0
 10
3119.375122704152
 20
153.1144527484807
 10
3119.375122704211
 20
93.11445274848074
 10
3082.775070543865
 20
93.1144527482297
 10
3082.775070543747
 20
153.1144527484916
  0
LWPOLYLINE
  5
101006F
102
{ACAD_REACTORS
330
1010070
102
}
330
1F
100
AcDbEntity
  8
Corte EXT
100
AcDbPolyline
 90
        4
 70
     1
 43
0.0
 10
3144.074855833375
 20
150.1144527484916
 10
2124.235088387684
 20
150.1144527473798
 10
2124.235088387682
 20
96.11445274739118
 10
3144.074855833492
 20
96.11445274822971
  0
LWPOLYLINE
  5
1010080
102
{ACAD_REACTORS
330
1010083
102
}
330
1F
100
AcDbEntity
  8
Cajeados 9mm
100
AcDbPolyline
 90
        4
 70
     1
 43
0.0
 10
2148.934821516995
 20
19.11445274728658
 10
2185.534873677339
 20
19.11445274731022
 10
2185.534873677342
 20
79.11445274729884
 10
2148.934821516937
 20
79.11445274745711
  0
LWPOLYLINE
  5
1010081
102
{ACAD_REACTORS
330
1010083
102
}
330
1F
100
AcDbEntity
  8
Cajeados 9mm
100
AcDbPolyline
 90
        4
 70
     1
 43
0.0
 10
3119.37512270415
 20
79.11445274849211
 10
3119.375122704207
 20
19.11445274849211
 10
3082.775070543863
 20
19.11445274824109
 10
3082.775070543744
 20
79.11445274850303
  0
LWPOLYLINE
  5
1010082
102
{ACAD_REACTORS
330
1010083
102
}
330
1F
100
AcDbEntity
  8
Corte EXT
100
AcDbPolyline
 90
        4
 70
     1
 43
0.0
 10
3144.074855833372
 20
76.11445274850303
 10
2124.235088387682
 20
76.11445274739117
 10
2124.235088387679
 20
22.11445274740254
 10
3144.07485583349
 20
22.11445274824109
  0
LWPOLYLINE
  5
1010085
330
1F
100
AcDbEntity
  8
Corte EXT
100
AcDbPolyline
 90
       45
 70
     0
 43
0.0
 10
3110.214999135434
 20
-1087.294504542049
 42
-0.9999999999999998
 10
3100.689999135434
 20
-1087.294504542049
 10
3100.68999915144
 20
-968.2323378424527
 42
-0.4142135623730373
 10
3103.86499915144
 20
-965.0573378424519
 10
3107.039999151439
 20
-965.0573378424518
 42
0.2052731629136101
 10
3096.189369760061
 20
-947.1162898198711
 42
0.6105821568959671
 10
3091.164578216454
 20
-949.6965266275276
 10
3091.153877708023
 20
-1087.294484319176
 42
-0.4141907852724949
 10
3086.391377722594
 20
-1092.056613956333
 10
3083.671999140821
 20
-1092.056975899391
 10
3080.952620559048
 20
-1092.056613955503
 42
-0.4141907852725958
 10
3076.190120575072
 20
-1087.294484316891
 10
3076.179420108631
 20
-949.6965266252408
 42
0.6105821568961039
 10
3071.154628565812
 20
-947.1162898160507
 42
0.2052731629136174
 10
3060.303999168958
 20
-965.0573378353207
 10
3063.478999168959
 20
-965.0573378362899
 42
-0.414213562283636
 10
3066.653999167988
 20
-968.2323378362903
 10
3066.653999147661
 20
-1087.294504535401
 42
-0.9999999999999998
 10
3057.128999147661
 20
-1087.294504535401
 10
3057.128999179294
 20
-983.5993378343491
 10
3033.672022198601
 20
-983.5993378271899
 10
3033.672022198373
 20
-984.3566971400587
 42
-1.000000000003256
 10
3029.429381509972
 20
-988.5993378258977
 10
3015.672022197092
 20
-988.5993378216992
 10
3015.672022183359
 20
-1033.599337821699
 10
3024.429381496224
 20
-1033.599337824371
 42
-0.9999999999999996
 10
3028.672022182048
 20
-1037.841978512785
 10
3028.67202211339
 20
-1262.833163602544
 42
-1.000000000005627
 10
3024.429381424953
 20
-1267.075804288344
 10
3015.672022112307
 20
-1267.075804285622
 10
3015.672022098319
 20
-1312.075804285622
 10
3083.67199910725
 20
-1312.075804306758
 10
3151.67197611618
 20
-1312.075804306373
 10
3151.671976115925
 20
-1267.075804306373
 10
3142.91461680328
 20
-1267.075804306423
 42
-1.00000000000568
 10
3138.671976116136
 20
-1262.833163619328
 10
3138.671976116138
 20
-1037.841978529569
 42
-1.000000000000005
 10
3142.914616803257
 20
-1033.59933784245
 10
3151.671976116122
 20
-1033.59933784245
 10
3151.671976116122
 20
-988.5993378424503
 10
3137.914616803242
 20
-988.5993378424503
 42
-1.000000000003242
 10
3133.671976116136
 20
-984.3566971553171
 10
3133.671976116138
 20
-983.5993378424479
 10
3110.214999135445
 20
-983.5993378424491
 10
3110.214999135434
 20
-1087.294504542369
  0
LWPOLYLINE
  5
1010086
330
1F
100
AcDbEntity
  8
Corte EXT
100
AcDbPolyline
 90
       28
 70
     1
 43
0.0
 10
2927.105569558035
 20
-856.9324611336293
 10
2927.105569558023
 20
-768.1751018182652
 42
0.3333333333332978
 10
2891.10556955803
 20
-816.1751018182698
 10
2891.105569558055
 20
-1021.075101818269
 10
2894.448715308562
 20
-1021.075101818269
 42
-0.9999999999999801
 10
2900.105569558054
 20
-1026.731956067761
 10
2900.105569558061
 20
-1069.618247568775
 42
-1.000000000000009
 10
2894.448715308568
 20
-1075.275101818269
 10
2891.105569558062
 20
-1075.27510181827
 10
2891.105569558087
 20
-1280.175101818263
 42
0.3333333333333678
 10
2927.105569558093
 20
-1328.175101818265
 10
2927.105569558083
 20
-1239.417742500961
 42
-0.9999999994148371
 10
2931.348210249624
 20
-1235.175101818264
 10
2940.205569558081
 20
-1235.175101818263
 10
2940.205569558075
 20
-1185.175101818263
 10
2931.348210247677
 20
-1185.175101818264
 42
-0.9999999989572575
 10
2927.105569558074
 20
-1180.932461133629
 10
2927.105569558062
 20
-1075.275101818265
 10
2923.762423807554
 20
-1075.275101818265
 42
-1.00000000000046
 10
2918.10556955806
 20
-1069.618247568773
 10
2918.105569558055
 20
-1026.731956067759
 42
-1.000000000000497
 10
2923.762423807546
 20
-1021.075101818265
 10
2927.105569558055
 20
-1021.075101818265
 10
2927.105569558042
 20
-915.4177425009606
 42
-0.9999999994147698
 10
2931.348210249584
 20
-911.1751018182646
 10
2940.205569558041
 20
-911.1751018182635
 10
2940.205569558035
 20
-861.1751018182637
 10
2931.348210252061
 20
-861.1751018138406
 42
-1.0
  0
LWPOLYLINE
  5
1010089
330
1F
100
AcDbEntity
  8
Corte EXT
100
AcDbPolyline
 90
       28
 70
     1
 43
0.0
 10
2996.205569558034
 20
-856.9324611336288
 10
2996.205569558023
 20
-768.1751018182648
 42
0.3333333333332978
 10
2960.205569558029
 20
-816.1751018182693
 10
2960.205569558054
 20
-1021.075101818269
 10
2963.548715308562
 20
-1021.075101818268
 42
-0.9999999999999801
 10
2969.205569558054
 20
-1026.73195606776
 10
2969.20556955806
 20
-1069.618247568775
 42
-1.000000000000009
 10
2963.548715308569
 20
-1075.275101818268
 10
2960.205569558061
 20
-1075.275101818269
 10
2960.205569558088
 20
-1280.175101818262
 42
0.3333333333333678
 10
2996.205569558094
 20
-1328.175101818264
 10
2996.205569558082
 20
-1239.41774250096
 42
-0.9999999994148371
 10
3000.448210249624
 20
-1235.175101818264
 10
3009.305569558081
 20
-1235.175101818262
 10
3009.305569558075
 20
-1185.175101818262
 10
3000.448210247677
 20
-1185.175101818264
 42
-0.9999999989572575
 10
2996.205569558075
 20
-1180.932461133628
 10
2996.205569558061
 20
-1075.275101818264
 10
2992.862423807553
 20
-1075.275101818265
 42
-1.00000000000046
 10
2987.20556955806
 20
-1069.618247568772
 10
2987.205569558055
 20
-1026.731956067759
 42
-1.000000000000497
 10
2992.862423807546
 20
-1021.075101818264
 10
2996.205569558055
 20
-1021.075101818264
 10
2996.205569558042
 20
-915.4177425009599
 42
-0.9999999994147698
 10
3000.448210249583
 20
-911.1751018182641
 10
3009.305569558041
 20
-911.175101818263
 10
3009.305569558035
 20
-861.175101818263
 10
3000.448210252061
 20
-861.17510181384
 42
-1.0
  0
LWPOLYLINE
  5
101008A
102
{ACAD_REACTORS
330
1010090
102
}
330
1F
100
AcDbEntity
  8
Cajeados 13mm
100
AcDbPolyline
 90
        8
 70
     1
 43
0.0
 10
2283.243942099851
 20
-1215.153752539785
 10
2325.25866072706
 20
-1215.153752539873
 42
-0.9999999998414834
 10
2329.501301413491
 20
-1219.396393227682
 10
2329.501301413471
 20
-1229.411111853407
 42
-1.000000000167292
 10
2325.258660725699
 20
-1233.653752539873
 10
2283.243942101387
 20
-1233.653752539784
 42
-1.000000000173963
 10
2279.001301413469
 20
-1229.411111853463
 10
2279.001301414268
 20
-1219.396393228441
 42
-1.000000000000015
  0
LWPOLYLINE
  5
101008B
102
{ACAD_REACTORS
330
1010090
102
}
330
1F
100
AcDbEntity
  8
Cajeados 13mm
100
AcDbPolyline
 90
        8
 70
     1
 43
0.0
 10
2607.243942100524
 20
-1215.153752540467
 10
2649.258660726387
 20
-1215.153752540557
 42
-1.000000000000532
 10
2653.50130141349
 20
-1219.396393227691
 10
2653.50130141347
 20
-1229.411111853415
 42
-1.00000000000841
 10
2649.258660726373
 20
-1233.653752540556
 10
2607.243942100714
 20
-1233.653752540467
 42
-1.00000000001549
 10
2603.00130141347
 20
-1229.41111185347
 10
2603.001301413594
 20
-1219.396393227775
 42
-0.9999999999999998
  0
LWPOLYLINE
  5
101008C
102
{ACAD_REACTORS
330
1010090
102
}
330
1F
100
AcDbEntity
  8
Cajeados 13mm
100
AcDbPolyline
 90
        8
 70
     1
 43
0.0
 10
2279.001301414496
 20
-277.5708821246491
 10
2279.001301414496
 20
-267.5561634988875
 42
-0.9999999999997536
 10
2283.243942101615
 20
-263.313522811768
 10
2325.258660727378
 20
-263.3135228117688
 42
-0.9999999999996987
 10
2329.501301414497
 20
-267.5561634988885
 10
2329.501301414497
 20
-277.5708821246506
 42
-1.000000000000035
 10
2325.258660727376
 20
-281.8135228117687
 10
2283.243942101616
 20
-281.8135228117682
 42
-1.000000000000002
  0
LWPOLYLINE
  5
101008D
102
{ACAD_REACTORS
330
1010090
102
}
330
1F
100
AcDbEntity
  8
Cajeados 13mm
100
AcDbPolyline
 90
        8
 70
     1
 43
0.0
 10
2203.658410832694
 20
-733.2336376756196
 10
2231.673129458455
 20
-733.2336376756191
 42
-1.00000000000021
 10
2235.915770145576
 20
-737.476278362736
 10
2235.915770145578
 20
-769.490996988499
 42
-0.9999999999997386
 10
2231.673129458459
 20
-773.7336376756188
 10
2203.658410832697
 20
-773.7336376756211
 42
-0.9999999999997887
 10
2199.415770145578
 20
-769.4909969885011
 10
2199.415770145575
 20
-737.4762783627394
 42
-1.000000000000015
  0
LWPOLYLINE
  5
101008E
102
{ACAD_REACTORS
330
1010090
102
}
330
1F
100
AcDbEntity
  8
Cajeados 13mm
100
AcDbPolyline
 90
        8
 70
     1
 43
0.0
 10
2728.844191996243
 20
-763.7336376755951
 10
2700.82947337048
 20
-763.7336376755955
 42
-0.9999999999995427
 10
2696.586832683359
 20
-759.4909969884787
 10
2696.586832683359
 20
-727.4762783627153
 42
-1.000000000000236
 10
2700.829473370477
 20
-723.2336376755952
 10
2728.844191996235
 20
-723.2336376755957
 42
-1.000000000000622
 10
2733.086832683358
 20
-727.4762783627117
 10
2733.086832683359
 20
-759.4909969884723
 42
-0.9999999999999998
  0
LWPOLYLINE
  5
101008F
102
{ACAD_REACTORS
330
1010090
102
}
330
1F
100
AcDbEntity
  8
Cajeados 13mm
100
AcDbPolyline
 90
        8
 70
     1
 43
0.0
 10
2653.501301414496
 20
-267.5561634988984
 10
2653.501301414496
 20
-277.5708821246596
 42
-1.000000000000019
 10
2649.258660727376
 20
-281.813522811778
 10
2607.243942101616
 20
-281.8135228117768
 42
-1.000000000000236
 10
2603.001301414496
 20
-277.5708821246567
 10
2603.001301414496
 20
-267.5561634988967
 42
-0.9999999999999847
 10
2607.243942101615
 20
-263.3135228117776
 10
2649.258660727377
 20
-263.3135228117784
 42
-1.0
  0
LWPOLYLINE
  5
1010092
102
{ACAD_REACTORS
330
10100EC
102
}
330
1F
100
AcDbEntity
  8
Corte EXT
100
AcDbPolyline
 90
       13
 70
     0
 43
0.0
 10
2491.875515581723
 20
-97.76721145378148
 42
0.2845282811245651
 10
2475.247293590872
 20
-70.91212715166005
 10
2332.374687388137
 20
0.2275033271951656
 42
0.1160125654773771
 10
2324.351620582781
 20
2.114452745922108
 10
2143.22440672298
 20
2.114452747262021
 42
0.4142135623752576
 10
2125.224406722848
 20
-15.88554725273806
 10
2125.224406722384
 20
-77.88550121287427
 42
0.4142135623709082
 10
2143.224406722251
 20
-95.88550121287431
 10
2405.632874894618
 20
-95.88550121483287
 42
-1.000000000000001
 10
2409.875515581705
 20
-100.1281419019846
 10
2409.875515581595
 20
-114.885501229766
 10
2491.875515581596
 20
-114.8855012303777
 10
2491.875515581723
 20
-97.76721145400529
  0
LWPOLYLINE
  5
10100A9
102
{ACAD_REACTORS
330
10100E6
102
}
330
1F
100
AcDbEntity
  8
Corte INT
100
AcDbPolyline
 90
       10
 70
     1
 43
0.0
 10
2795.158052416919
 20
291.914452747524
 10
2758.243333791162
 20
291.914452747524
 42
-1.000000000000736
 10
2754.000693104038
 20
296.157093434639
 10
2754.000693104037
 20
306.0718120604023
 42
-0.9999999999988343
 10
2758.243333791154
 20
310.3144527475241
 10
2795.158052416919
 20
310.3144527475241
 42
-0.4142135623730871
 10
2799.400693104056
 20
310.3144527475425
 42
-0.4142135623758342
 10
2799.400693104074
 20
306.0718120604037
 10
2799.400693104075
 20
296.1570934346434
 42
-0.4142135623756537
 10
2799.400693104038
 20
291.914452747524
 42
-0.414213562373103
  0
LWPOLYLINE
  5
10100AA
102
{ACAD_REACTORS
330
10100E6
102
}
330
1F
100
AcDbEntity
  8
Corte INT
100
AcDbPolyline
 90
       10
 70
     1
 43
0.0
 10
3036.719800255077
 20
310.3144527475243
 10
3073.634518880841
 20
310.3144527475246
 42
-1.000000000000011
 10
3077.87715956796
 20
306.071812060405
 10
3077.87715956796
 20
296.1570934346434
 42
-0.9999999999999328
 10
3073.634518880841
 20
291.9144527475245
 10
3036.719800255083
 20
291.9144527475243
 42
-0.4142135623742803
 10
3032.477159567973
 20
291.914452747544
 42
-0.4142135623698377
 10
3032.477159567997
 20
296.1570934346395
 10
3032.477159567997
 20
306.0718120604012
 42
-0.4142135623712509
 10
3032.477159567965
 20
310.3144527475259
 42
-0.4142135623718942
  0
LWPOLYLINE
  5
10100AB
102
{ACAD_REACTORS
330
10100E6
102
}
330
1F
100
AcDbEntity
  8
Corte INT
  6
Continuous
100
AcDbPolyline
 90
       10
 70
     1
 43
0.0
 10
2231.590289152797
 20
291.9144527483833
 10
2194.675570527039
 20
291.9144527484619
 42
-1.000000000000025
 10
2190.432929839928
 20
296.1570934355904
 10
2190.43292983995
 20
306.071812061352
 42
-0.9999999999999323
 10
2194.675570527078
 20
310.314452748462
 10
2231.590289152843
 20
310.3144527483834
 42
-0.4142135623718863
 10
2235.832929839954
 20
310.3144527483753
 42
-0.4142135623737939
 10
2235.832929839949
 20
306.0718120612511
 10
2235.832929839929
 20
296.1570934354892
 42
-0.414213562372369
 10
2235.832929839924
 20
291.9144527483753
 42
-0.414213562374296
  0
LWPOLYLINE
  5
10100AC
102
{ACAD_REACTORS
330
10100E6
102
}
330
1F
100
AcDbEntity
  8
Corte INT
  6
Continuous
100
AcDbPolyline
 90
       10
 70
     1
 43
0.0
 10
2468.90939630388
 20
310.3144527478769
 42
0.4142135623732206
 10
2468.909396303872
 20
306.0718120607559
 10
2468.909396303872
 20
296.1570934350176
 42
0.4142135623731344
 10
2468.909396303841
 20
291.9144527478767
 42
0.4142135623730713
 10
2473.15203699096
 20
291.9144527478676
 10
2510.066755616718
 20
291.9144527477889
 42
1.000000000000802
 10
2514.30939630385
 20
296.1570934348948
 10
2514.309396303872
 20
306.0718120606581
 42
0.9999999999987807
 10
2510.066755616765
 20
310.314452747789
 10
2473.152036990999
 20
310.3144527478677
 42
0.4142135623731342
  0
LWPOLYLINE
  5
10100AD
102
{ACAD_REACTORS
330
10100E6
102
}
330
1F
100
AcDbEntity
  8
Corte EXT
100
AcDbPolyline
 90
       16
 70
     1
 43
0.0
 10
2124.235088387799
 20
328.1144527473342
 10
2124.235088387682
 20
274.114452747427
 10
2366.069513435244
 20
274.1144527468001
 10
2366.069513435243
 20
291.9144527480972
 10
2366.069513435279
 20
292.1144527475293
 10
2451.06951343528
 20
292.114452747535
 10
2451.069513435243
 20
291.9144527479158
 10
2451.069513435245
 20
274.1144527466148
 10
3144.07500102016
 20
274.1144527463397
 10
3144.075001020157
 20
328.1144527462462
 10
2902.240575973024
 20
328.1144527462283
 10
2902.240575973025
 20
310.3144527475255
 10
2902.240575973062
 20
310.1144527475654
 10
2817.240575973062
 20
310.1144527475597
 10
2817.240575973025
 20
310.3144527475253
 10
2817.240575973023
 20
328.1144527462242
  0
LWPOLYLINE
  5
10100AE
102
{ACAD_REACTORS
330
10100E6
102
}
330
1F
100
AcDbEntity
  8
Cajeados 5mm
100
AcDbPolyline
 90
        9
 70
     0
 43
0.0
 10
2817.240575973025
 20
310.3144527475253
 10
2796.400693104074
 20
310.3144527475241
 10
2796.400693104039
 20
291.914452747524
 10
3035.477159567997
 20
291.9144527475254
 10
3035.477159567965
 20
310.3144527475259
 10
2902.240575973025
 20
310.3144527475255
 10
2902.240575973025
 20
313.3144527475255
 10
2817.240575973025
 20
313.3144527475255
 10
2817.240575973025
 20
310.3144527475253
  0
LWPOLYLINE
  5
10100B4
102
{ACAD_REACTORS
330
10100E7
102
}
330
1F
100
AcDbEntity
  8
Corte INT
100
AcDbPolyline
 90
       10
 70
     1
 43
0.0
 10
2430.296131048028
 20
221.3144527486667
 10
2467.210849673794
 20
221.3144527486667
 42
-0.999999999998794
 10
2471.45349036091
 20
217.0718120615449
 10
2471.453490360909
 20
207.1570934357816
 42
-1.000000000000775
 10
2467.210849673786
 20
202.9144527486665
 10
2430.296131048028
 20
202.9144527486666
 42
-0.4142135623730832
 10
2426.053490360909
 20
202.9144527486668
 42
-0.4142135623731896
 10
2426.053490360911
 20
207.1570934357868
 10
2426.053490360911
 20
217.0718120615467
 42
-0.414213562373193
 10
2426.053490360909
 20
221.3144527486668
 42
-0.4142135623730247
  0
LWPOLYLINE
  5
10100B5
102
{ACAD_REACTORS
330
10100E7
102
}
330
1F
100
AcDbEntity
  8
Corte INT
100
AcDbPolyline
 90
       10
 70
     1
 43
0.0
 10
2151.819664584107
 20
202.914452748667
 42
-1.000000000000015
 10
2147.577023896988
 20
207.1570934357863
 10
2147.577023896988
 20
217.0718120615478
 42
-0.9999999999999593
 10
2151.819664584107
 20
221.3144527486674
 10
2188.734383209872
 20
221.3144527486669
 42
-0.414213562371906
 10
2192.977023896983
 20
221.3144527486682
 42
-0.4142135623737151
 10
2192.977023896988
 20
217.0718120615444
 10
2192.977023896988
 20
207.1570934357829
 42
-0.4142135623724554
 10
2192.977023896992
 20
202.9144527486681
 42
-0.4142135623742566
 10
2188.734383209865
 20
202.914452748667
  0
LWPOLYLINE
  5
10100B6
102
{ACAD_REACTORS
330
10100E7
102
}
330
1F
100
AcDbEntity
  8
Corte INT
100
AcDbPolyline
 90
       10
 70
     1
 43
0.0
 10
2993.863894311364
 20
221.3144527495257
 10
3030.77861293713
 20
221.3144527496043
 42
-0.9999999999999463
 10
3035.021253624258
 20
217.0718120624939
 10
3035.021253624279
 20
207.1570934367325
 42
-1.000000000000031
 10
3030.778612937169
 20
202.914452749604
 10
2993.863894311411
 20
202.9144527495251
 42
-0.4142135623742801
 10
2989.621253624265
 20
202.9144527494992
 42
-0.4142135623749982
 10
2989.621253624243
 20
207.1570934366322
 10
2989.621253624221
 20
217.0718120623941
 42
-0.4142135623762892
 10
2989.621253624255
 20
221.3144527495177
 42
-0.4142135623718901
  0
LWPOLYLINE
  5
10100B7
102
{ACAD_REACTORS
330
10100E7
102
}
330
1F
100
AcDbEntity
  8
Corte INT
100
AcDbPolyline
 90
       10
 70
     1
 43
0.0
 10
2752.302146473248
 20
202.91445274901
 10
2715.38742784749
 20
202.9144527489312
 42
-1.000000000000754
 10
2711.144787160357
 20
207.1570934360374
 10
2711.144787160336
 20
217.0718120618007
 42
-0.9999999999988276
 10
2715.387427847443
 20
221.3144527489313
 10
2752.302146473208
 20
221.31445274901
 42
-0.414213562373076
 10
2756.544787160309
 20
221.3144527490009
 42
-0.4142135623706661
 10
2756.544787160299
 20
217.0718120618991
 10
2756.544787160321
 20
207.1570934361392
 42
-0.4142135623706463
 10
2756.544787160367
 20
202.9144527490188
 42
-0.4142135623730675
  0
LWPOLYLINE
  5
10100B8
102
{ACAD_REACTORS
330
10100E7
102
}
330
1F
100
AcDbEntity
  8
Cajeados 5mm
100
AcDbPolyline
 90
        4
 70
     1
 43
0.0
 10
2189.977023896992
 20
202.9144527486684
 10
2429.05349036091
 20
202.9144527486668
 10
2429.053490360909
 20
221.3144527486668
 10
2189.977023896983
 20
221.314452748668
  0
LWPOLYLINE
  5
10100B9
102
{ACAD_REACTORS
330
10100E7
102
}
330
1F
100
AcDbEntity
  8
Cajeados 5mm
100
AcDbPolyline
 90
        4
 70
     1
 43
0.0
 10
2753.544787160289
 20
221.3144527490186
 10
2753.544787160367
 20
202.9144527490188
 10
2992.621253624252
 20
202.9144527495174
 10
2992.621253624212
 20
221.3144527495177
  0
LWPOLYLINE
  5
10100BA
102
{ACAD_REACTORS
330
10100E7
102
}
330
1F
100
AcDbEntity
  8
Corte EXT
100
AcDbPolyline
 90
       16
 70
     1
 43
0.0
 10
2142.379023897532
 20
254.1144527473799
 10
2142.379023897532
 20
243.3997627215579
 42
-1.000000000612859
 10
2138.179486015185
 20
239.1144527473861
 10
2124.235088387688
 20
239.1144527473867
 10
2124.235088387685
 20
185.1144527475512
 10
2138.093713918298
 20
185.1144527475735
 42
-1.000000000543852
 10
2142.379023897529
 20
180.9149148703894
 10
2142.379023897529
 20
170.1144527473799
 10
3040.219253623817
 20
170.1144527483371
 10
3040.219253623794
 20
180.9149148713469
 42
-1.000000000543856
 10
3044.504563603016
 20
185.1144527485399
 10
3058.363189133628
 20
185.1144527485471
 10
3058.363189133511
 20
239.1144527483827
 10
3044.418791506013
 20
239.1144527483519
 42
-1.000000000612881
 10
3040.219253623658
 20
243.3997627225152
 10
3040.219253623634
 20
254.1144527483374
  0
LWPOLYLINE
  5
10100BB
102
{ACAD_REACTORS
330
10100E6
102
}
330
1F
100
AcDbEntity
  8
Cajeados 5mm
100
AcDbPolyline
 90
        9
 70
     0
 43
0.0
 10
2451.069513435244
 20
291.914452747569
 10
2471.909396304195
 20
291.9144527475702
 10
2471.90939630423
 20
310.3144527475703
 10
2232.832929840272
 20
310.3144527475691
 10
2232.832929840304
 20
291.9144527475686
 10
2366.069513435244
 20
291.914452747569
 10
2366.069513435244
 20
288.9144527475691
 10
2451.069513435245
 20
288.9144527475688
 10
2451.069513435244
 20
291.914452747569
  0
LWPOLYLINE
  5
101010A
330
1F
100
AcDbEntity
  8
Corte EXT
100
AcDbPolyline
 90
       16
 70
     1
 43
0.0
 10
3244.752614647961
 20
27.70998875372612
 42
-1.0
 10
3248.99525533508
 20
31.95262944084522
 10
3285.062996993442
 20
31.95262944084431
 10
3235.537888225247
 20
67.61070775394641
 42
0.1572838189721212
 10
3233.784974047714
 20
68.17610472959183
 10
3206.99525533508
 20
68.17610472959365
 42
-1.0
 10
3202.752614647963
 20
72.41874541671319
 10
3202.752614647963
 20
83.17610472959273
 42
0.4142135623730882
 10
3199.752614647963
 20
86.17610472959274
 10
3187.752614647963
 20
86.17610472959364
 42
0.4142135623730657
 10
3184.752614647963
 20
83.17610472959364
 10
3184.752614647961
 20
31.95263437671025
 10
3200.509973960843
 20
31.95263437671072
 42
-1.0
 10
3204.752614647961
 20
27.7099936895898
 10
3204.752614647961
 20
18.79878479899258
 10
3244.752614647961
 20
18.79878479899122
  0
LWPOLYLINE
  5
101010E
330
1F
100
AcDbEntity
  8
Corte EXT
100
AcDbPolyline
 90
       16
 70
     1
 43
0.0
 10
3225.062996993445
 20
137.5755182884675
 42
-1.0
 10
3220.820356306326
 20
133.3328776013484
 10
3184.752614647964
 20
133.3328776013493
 10
3234.277723416159
 20
97.6747992882472
 42
0.1572838189721212
 10
3236.030637593694
 20
97.10940231260181
 10
3262.820356306326
 20
97.1094023126
 42
-1.0
 10
3267.062996993445
 20
92.86676162548046
 10
3267.062996993445
 20
82.1094023126009
 42
0.4142135623730882
 10
3270.062996993445
 20
79.10940231260091
 10
3282.062996993444
 20
79.10940231259998
 42
0.4142135623730657
 10
3285.062996993445
 20
82.1094023126
 10
3285.062996993445
 20
133.3328726654834
 10
3269.305637680563
 20
133.3328726654829
 42
-1.0
 10
3265.062996993446
 20
137.5755133526038
 10
3265.062996993446
 20
146.486722243201
 10
3225.062996993447
 20
146.4867222432024
  0
LWPOLYLINE
  5
1010110
102
{ACAD_REACTORS
330
1010112
102
}
330
1F
100
AcDbEntity
  8
Cajeados 9mm
100
AcDbPolyline
 90
        4
 70
     1
 43
0.0
 10
3136.149359809092
 20
-434.9988920935791
 10
3101.686622140484
 20
-434.9988920935762
 10
3101.686622140482
 20
-453.5988920935706
 10
3136.14935980908
 20
-453.5988920935738
  0
LWPOLYLINE
  5
1010111
102
{ACAD_REACTORS
330
1010112
102
}
330
1F
100
AcDbEntity
  8
Corte EXT
100
AcDbPolyline
 90
       12
 70
     1
 43
0.0
 10
3127.709054107367
 20
-402.3106031593171
 10
3151.137972220681
 20
-434.9988920935851
 10
3138.049747101877
 20
-434.9988920935841
 42
0.3571270230107148
 10
3134.248972516313
 20
-434.9988920935791
 42
0.4436295845733051
 10
3134.028039465534
 20
-439.4415327806957
 10
3134.028039465531
 20
-449.1562514064596
 42
0.4436295845722269
 10
3134.2489725163
 20
-453.5988920935743
 42
0.3571270230118369
 10
3138.049747101875
 20
-453.5988920935787
 10
3151.137972220679
 20
-453.5988920935805
 10
3127.709054107359
 20
-486.2871810278433
 42
-0.7290081569973519
 10
3104.68662214048
 20
-478.8887083280748
 10
3104.686622140482
 20
-409.709075859084
 42
-0.729008156997416
  0
LWPOLYLINE
  5
1010113
102
{ACAD_REACTORS
330
1010115
102
}
330
1F
100
AcDbEntity
  8
Cajeados 9mm
100
AcDbPolyline
 90
        4
 70
     1
 43
0.0
 10
3053.143490077757
 20
-434.9988920935791
 10
3087.606227746365
 20
-434.9988920935762
 10
3087.606227746367
 20
-453.5988920935706
 10
3053.143490077769
 20
-453.5988920935738
  0
LWPOLYLINE
  5
1010114
102
{ACAD_REACTORS
330
1010115
102
}
330
1F
100
AcDbEntity
  8
Corte EXT
100
AcDbPolyline
 90
       12
 70
     1
 43
0.0
 10
3061.583795779482
 20
-402.3106031593171
 10
3038.154877666169
 20
-434.9988920935851
 10
3051.243102784972
 20
-434.9988920935841
 42
-0.3571270230107148
 10
3055.043877370536
 20
-434.9988920935791
 42
-0.4436295845733051
 10
3055.264810421315
 20
-439.4415327806957
 10
3055.264810421318
 20
-449.1562514064596
 42
-0.4436295845722269
 10
3055.043877370549
 20
-453.5988920935743
 42
-0.3571270230118369
 10
3051.243102784975
 20
-453.5988920935787
 10
3038.15487766617
 20
-453.5988920935805
 10
3061.58379577949
 20
-486.2871810278433
 42
0.7290081569973519
 10
3084.60622774637
 20
-478.8887083280748
 10
3084.606227746367
 20
-409.709075859084
 42
0.729008156997416
  0
LWPOLYLINE
  5
1010116
102
{ACAD_REACTORS
330
101011A
102
}
330
1F
100
AcDbEntity
  8
Cajeados 9mm
100
AcDbPolyline
 90
        4
 70
     1
 43
0.0
 10
3031.13560939088
 20
-509.1578414857909
 10
2996.672871722272
 20
-509.1578414857877
 10
2996.672871722271
 20
-527.7578414857823
 10
3031.135609390868
 20
-527.7578414857855
  0
LWPOLYLINE
  5
1010117
102
{ACAD_REACTORS
330
101011A
102
}
330
1F
100
AcDbEntity
  8
Corte EXT
100
AcDbPolyline
 90
       12
 70
     1
 43
0.0
 10
3022.695303689156
 20
-476.469552551529
 10
3046.124221802469
 20
-509.1578414857971
 10
3033.035996683665
 20
-509.1578414857956
 42
0.3571270230107148
 10
3029.235222098102
 20
-509.1578414857909
 42
0.4436295845733051
 10
3029.014289047323
 20
-513.6004821729076
 10
3029.014289047319
 20
-523.3152007986713
 42
0.4436295845722269
 10
3029.235222098089
 20
-527.7578414857861
 42
0.3571270230118369
 10
3033.035996683663
 20
-527.7578414857904
 10
3046.124221802467
 20
-527.7578414857921
 10
3022.695303689147
 20
-560.4461304200553
 42
-0.7290081569973519
 10
2999.672871722268
 20
-553.0476577202867
 10
2999.672871722271
 20
-483.8680252512957
 42
-0.729008156997416
  0
LWPOLYLINE
  5
1010118
102
{ACAD_REACTORS
330
101011B
102
}
330
1F
100
AcDbEntity
  8
Cajeados 9mm
100
AcDbPolyline
 90
        4
 70
     1
 43
0.0
 10
2948.129739659545
 20
-509.1578414857909
 10
2982.592477328153
 20
-509.1578414857877
 10
2982.592477328155
 20
-527.7578414857823
 10
2948.129739659558
 20
-527.7578414857855
  0
LWPOLYLINE
  5
1010119
102
{ACAD_REACTORS
330
101011B
102
}
330
1F
100
AcDbEntity
  8
Corte EXT
100
AcDbPolyline
 90
       12
 70
     1
 43
0.0
 10
2956.57004536127
 20
-476.469552551529
 10
2933.141127247957
 20
-509.1578414857971
 10
2946.22935236676
 20
-509.1578414857956
 42
-0.3571270230107148
 10
2950.030126952325
 20
-509.1578414857909
 42
-0.4436295845733051
 10
2950.251060003104
 20
-513.6004821729076
 10
2950.251060003106
 20
-523.3152007986713
 42
-0.4436295845722269
 10
2950.030126952337
 20
-527.7578414857861
 42
-0.3571270230118369
 10
2946.229352366763
 20
-527.7578414857904
 10
2933.141127247959
 20
-527.7578414857921
 10
2956.570045361278
 20
-560.4461304200553
 42
0.7290081569973519
 10
2979.592477328158
 20
-553.0476577202867
 10
2979.592477328155
 20
-483.8680252512957
 42
0.729008156997416
  0
LWPOLYLINE
  5
101011C
330
1F
100
AcDbEntity
  8
Corte EXT
100
AcDbPolyline
 90
       23
 70
     1
 43
0.0
 10
3152.635088387675
 20
437.8987537938452
 42
-0.4142135623731036
 10
3142.635088387676
 20
447.8987537938452
 10
3142.635088387674
 20
487.5074067257344
 10
3191.335064247344
 20
487.507406725736
 10
3191.335064247342
 20
475.5556080433404
 42
1.0
 10
3196.991918496834
 20
469.8987537938476
 10
3239.878209997848
 20
469.8987537938448
 42
0.4142135623731539
 10
3245.535064247341
 20
469.898753793845
 10
3245.53508838767
 20
469.898753793845
 10
3245.53508838767
 20
469.8987779343793
 42
0.4142085627347866
 10
3245.53508838767
 20
475.5555839028024
 10
3245.53508838767
 20
487.5074067257378
 10
3294.235088387679
 20
487.5074067257395
 10
3294.235088387679
 20
447.8987537938452
 42
-0.4142135623730869
 10
3284.235088387679
 20
437.8987537938452
 10
3231.262421687762
 20
437.8987537938452
 42
-0.4142135623730951
 10
3228.087421687761
 20
441.0737537938451
 10
3228.087421687761
 20
444.7237537938451
 42
0.4142135623731016
 10
3224.912421687762
 20
447.8987537938452
 10
3211.957755087585
 20
447.8987537938452
 42
0.4142135623731016
 10
3208.782755087585
 20
444.7237537938451
 10
3208.782755087585
 20
441.0737537938451
 42
-0.4142135623730951
 10
3205.607755087584
 20
437.8987537938445
  0
LINE
  5
1010123
330
1F
100
AcDbEntity
  8
Corte OVR
  6
Continuous
100
AcDbLine
 10
2099.235088387679
 20
507.5074067223702
 30
0.0
 11
3319.235088387679
 21
507.5074067223702
 31
0.0
  0
LWPOLYLINE
  5
101013A
102
{ACAD_REACTORS
330
1010143
102
}
330
1F
100
AcDbEntity
  8
Corte EXT
100
AcDbPolyline
 90
       12
 70
     1
 43
0.0
 10
3087.084807722867
 20
-123.6433073125753
 42
0.1160125654773831
 10
3095.107874528251
 20
-125.5302567311817
 10
3276.235088388052
 20
-125.5302567297964
 42
0.4142135623730728
 10
3294.235088387914
 20
-107.5302567296602
 10
3294.235088387444
 20
-45.53030276952376
 42
0.414213562373094
 10
3276.235088387308
 20
-27.53030276966017
 10
3013.826620214941
 20
-27.53030277164917
 42
-1.0
 10
3009.58397952779
 20
-23.28766208456141
 10
3009.583979527679
 20
-8.530302756780072
 10
2927.583979527677
 20
-8.530302757401955
 10
2927.583979527807
 20
-25.64859253377441
 42
0.2845282811265791
 10
2944.212201519062
 20
-52.50367683586934
  0
CIRCLE
  5
101013B
102
{ACAD_REACTORS
330
1010143
102
}
330
1F
100
AcDbEntity
  8
Taladros
100
AcDbCircle
 10
3113.669585494649
 20
-113.0302567310398
 30
-0.0000000000000044
 40
3.000000000000008
  0
CIRCLE
  5
101013C
102
{ACAD_REACTORS
330
1010143
102
}
330
1F
100
AcDbEntity
  8
Taladros
100
AcDbCircle
 10
3274.669436097441
 20
-113.0302567298085
 30
0.0
 40
3.000000000000008
  0
CIRCLE
  5
101013D
102
{ACAD_REACTORS
330
1010143
102
}
330
1F
100
AcDbEntity
  8
Taladros
100
AcDbCircle
 10
3274.669436096877
 20
-40.03030276966078
 30
0.0
 40
3.000000000000078
  0
CIRCLE
  5
101013E
102
{ACAD_REACTORS
330
1010143
102
}
330
1F
100
AcDbEntity
  8
Taladros
100
AcDbCircle
 10
3113.669585494097
 20
-40.03030277089192
 30
0.0
 40
3.000000000000078
  0
CIRCLE
  5
101013F
102
{ACAD_REACTORS
330
1010143
102
}
330
1F
100
AcDbEntity
  8
Taladros
100
AcDbCircle
 10
3169.669517628038
 20
-40.03030277046781
 30
0.0000000000000044
 40
3.000000000000008
  0
CIRCLE
  5
1010140
102
{ACAD_REACTORS
330
1010143
102
}
330
1F
100
AcDbEntity
  8
Taladros
100
AcDbCircle
 10
3169.66951762859
 20
-113.0302567306157
 30
0.0
 40
2.999999999999973
  0
CIRCLE
  5
1010141
102
{ACAD_REACTORS
330
1010143
102
}
330
1F
100
AcDbEntity
  8
Taladros
100
AcDbCircle
 10
3218.669503962936
 20
-40.03030277009325
 30
0.0
 40
3.000000000000008
  0
CIRCLE
  5
1010142
102
{ACAD_REACTORS
330
1010143
102
}
330
1F
100
AcDbEntity
  8
Taladros
100
AcDbCircle
 10
3218.6695039635
 20
-113.0302567302409
 30
0.0
 40
2.999999999999973
  0
LWPOLYLINE
  5
1010144
330
1F
100
AcDbEntity
  8
Corte EXT
100
AcDbPolyline
 90
       16
 70
     1
 43
0.0
 10
3244.752614647961
 20
190.7256764132783
 42
-1.0
 10
3248.99525533508
 20
194.9683171003974
 10
3285.062996993442
 20
194.9683171003965
 10
3235.537888225247
 20
230.6263954134986
 42
0.1572838189721212
 10
3233.784974047714
 20
231.191792389144
 10
3206.99525533508
 20
231.1917923891459
 42
-1.0
 10
3202.752614647963
 20
235.4344330762654
 10
3202.752614647963
 20
246.191792389145
 42
0.4142135623730882
 10
3199.752614647963
 20
249.1917923891449
 10
3187.752614647963
 20
249.1917923891459
 42
0.4142135623730657
 10
3184.752614647963
 20
246.1917923891459
 10
3184.752614647961
 20
194.9683220362624
 10
3200.509973960843
 20
194.9683220362629
 42
-1.0
 10
3204.752614647961
 20
190.725681349142
 10
3204.752614647961
 20
181.8144724585448
 10
3244.752614647961
 20
181.8144724585434
  0
LWPOLYLINE
  5
1010145
330
1F
100
AcDbEntity
  8
Corte EXT
100
AcDbPolyline
 90
       16
 70
     1
 43
0.0
 10
3225.062996993445
 20
300.5912059480198
 42
-1.0
 10
3220.820356306326
 20
296.3485652609007
 10
3184.752614647964
 20
296.3485652609016
 10
3234.277723416159
 20
260.6904869477995
 42
0.1572838189721212
 10
3236.030637593694
 20
260.1250899721541
 10
3262.820356306326
 20
260.1250899721522
 42
-1.0
 10
3267.062996993445
 20
255.8824492850327
 10
3267.062996993445
 20
245.1250899721531
 42
0.4142135623730882
 10
3270.062996993445
 20
242.1250899721532
 10
3282.062996993444
 20
242.1250899721522
 42
0.4142135623730657
 10
3285.062996993445
 20
245.1250899721522
 10
3285.062996993445
 20
296.3485603250357
 10
3269.305637680563
 20
296.3485603250352
 42
-1.0
 10
3265.062996993446
 20
300.5912010121562
 10
3265.062996993446
 20
309.5024099027534
 10
3225.062996993447
 20
309.5024099027547
  0
LWPOLYLINE
  5
1010146
330
1F
100
AcDbEntity
  8
Corte EXT
100
AcDbPolyline
 90
       14
 70
     1
 43
0.0
 10
3072.129978478239
 20
-854.4064251089066
 10
3072.129978478348
 20
-864.1211437346676
 42
0.95150565963688
 10
3076.151686114743
 20
-868.5637844217406
 10
3100.928048330225
 20
-868.5637844214625
 10
3071.988363867322
 20
-908.9407562832001
 42
-0.2417842098189197
 10
3061.665931900505
 20
-914.2422835835493
 10
3055.488561153863
 20
-914.2422835836194
 42
-0.4142135623731197
 10
3042.788561153721
 20
-901.5422835837615
 10
3042.788561152768
 20
-816.9852852604725
 42
-0.4142135623731147
 10
3055.488561152626
 20
-804.2852852603301
 10
3061.665931899267
 20
-804.2852852602603
 42
-0.2417842098189184
 10
3071.988363866205
 20
-809.586812560378
 10
3100.928048330016
 20
-849.9637844214626
 10
3076.151686114533
 20
-849.9637844217412
 42
0.9515056596372355
  0
LWPOLYLINE
  5
1010147
330
1F
100
AcDbEntity
  8
Corte EXT
100
AcDbPolyline
 90
       23
 70
     1
 43
0.0
 10
3152.635088387675
 20
367.8987537938452
 42
-0.4142135623731036
 10
3142.635088387676
 20
377.8987537938452
 10
3142.635088387674
 20
417.5074067257344
 10
3191.335064247344
 20
417.507406725736
 10
3191.335064247342
 20
405.5556080433404
 42
1.0
 10
3196.991918496834
 20
399.8987537938479
 10
3239.878209997848
 20
399.8987537938448
 42
0.4142135623731539
 10
3245.535064247341
 20
399.8987537938451
 10
3245.53508838767
 20
399.8987537938451
 10
3245.53508838767
 20
399.8987779343793
 42
0.4142085627347866
 10
3245.53508838767
 20
405.5555839028022
 10
3245.53508838767
 20
417.5074067257378
 10
3294.235088387679
 20
417.5074067257395
 10
3294.235088387679
 20
377.8987537938452
 42
-0.4142135623730869
 10
3284.235088387679
 20
367.8987537938452
 10
3231.262421687762
 20
367.8987537938452
 42
-0.4142135623730951
 10
3228.087421687761
 20
371.0737537938451
 10
3228.087421687761
 20
374.7237537938452
 42
0.4142135623731016
 10
3224.912421687762
 20
377.8987537938452
 10
3211.957755087585
 20
377.8987537938452
 42
0.4142135623731016
 10
3208.782755087585
 20
374.7237537938452
 10
3208.782755087585
 20
371.0737537938451
 42
-0.4142135623730951
 10
3205.607755087584
 20
367.8987537938446
  0
ENDSEC
  0
SECTION
  2
OBJECTS
  0
DICTIONARY
  5
C
330
0
100
AcDbDictionary
281
     1
  3
ACAD_BACKGROUND
350
1010134
  3
ACAD_CIP_PREVIOUS_PRODUCT_INFO
350
101005A
  3
ACAD_COLOR
350
1010036
  3
ACAD_DETAILVIEWSTYLE
350
1010050
  3
ACAD_GROUP
350
D
  3
ACAD_LAYOUT
350
1010053
  3
ACAD_MATERIAL
350
1010004
  3
ACAD_MLEADERSTYLE
350
101004C
  3
ACAD_MLINESTYLE
350
17
  3
ACAD_PLOTSETTINGS
350
1010054
  3
ACAD_PLOTSTYLENAME
350
1010002
  3
ACAD_SCALELIST
350
101003A
  3
ACAD_SECTIONVIEWSTYLE
350
101004E
  3
ACAD_TABLESTYLE
350
1010037
  3
ACAD_VISUALSTYLE
350
101001D
  3
ACDB_RECOMPOSE_DATA
350
10103BD
  3
AcDbVariableDictionary
350
10100D5
  0
DICTIONARY
  5
10100CF
330
2
100
AcDbDictionary
280
     1
281
     1
  3
ACAD_LAYERSTATES
360
10100D0
  0
DICTIONARY
  5
10100BC
330
50
100
AcDbDictionary
280
     1
281
     1
  3
ADSK_XREC_LAYER_RECONCILED
360
10100BD
  0
DICTIONARY
  5
10100BE
330
101005D
100
AcDbDictionary
280
     1
281
     1
  3
ADSK_XREC_LAYER_RECONCILED
360
10100BF
  0
DICTIONARY
  5
10100C2
330
1010061
100
AcDbDictionary
280
     1
281
     1
  3
ADSK_XREC_LAYER_RECONCILED
360
10100C3
  0
DICTIONARY
  5
10100C4
330
1010062
100
AcDbDictionary
280
     1
281
     1
  3
ADSK_XREC_LAYER_RECONCILED
360
10100C5
  0
DICTIONARY
  5
10100C6
330
1010063
100
AcDbDictionary
280
     1
281
     1
  3
ADSK_XREC_LAYER_RECONCILED
360
10100C7
  0
DICTIONARY
  5
10100C8
330
1010064
100
AcDbDictionary
280
     1
281
     1
  3
ADSK_XREC_LAYER_RECONCILED
360
10100C9
  0
DICTIONARY
  5
10100CA
330
1010065
100
AcDbDictionary
280
     1
281
     1
  3
ADSK_XREC_LAYER_RECONCILED
360
10100CB
  0
DICTIONARY
  5
1010168
330
1010167
100
AcDbDictionary
280
     1
281
     1
  0
DICTIONARY
  5
10100FD
330
1F
100
AcDbDictionary
280
     1
281
     1
  3
ACAD_SORTENTS
360
10100FE
  0
DICTIONARY
  5
1010134
102
{ACAD_REACTORS
330
C
102
}
330
C
100
AcDbDictionary
281
     1
  0
XRECORD
  5
101005A
102
{ACAD_REACTORS
330
C
102
}
330
C
100
AcDbXrecord
280
     1
300
ACD
300
2017
300
ACD_F_S
  0
DICTIONARY
  5
1010036
102
{ACAD_REACTORS
330
C
102
}
330
C
100
AcDbDictionary
281
     1
  0
DICTIONARY
  5
1010050
102
{ACAD_REACTORS
330
C
102
}
330
C
100
AcDbDictionary
281
     1
  3
Imperial24
350
1010051
  0
DICTIONARY
  5
D
330
C
100
AcDbDictionary
281
     1
  3
*A1
350
1010083
  3
*A10
350
1010115
  3
*A11
350
101011A
  3
*A12
350
101011B
  3
*A13
350
1010143
  3
*A14
350
1010070
  3
*A2
350
1010090
  3
*A3
350
10100E6
  3
*A4
350
10100E7
  3
*A5
350
10100E8
  3
*A6
350
10100E9
  3
*A7
350
10100EA
  3
*A8
350
10100EC
  3
*A9
350
1010112
  0
DICTIONARY
  5
1010053
102
{ACAD_REACTORS
330
C
102
}
330
C
100
AcDbDictionary
281
     1
  3
Layout1
350
1010056
  3
Model
350
1010055
  0
DICTIONARY
  5
1010004
102
{ACAD_REACTORS
330
C
102
}
330
C
100
AcDbDictionary
281
     1
  3
ByBlock
350
101000D
  3
ByLayer
350
1010005
  3
Global
350
1010015
  0
DICTIONARY
  5
101004C
102
{ACAD_REACTORS
330
C
102
}
330
C
100
AcDbDictionary
281
     1
  3
Standard
350
101004D
  0
DICTIONARY
  5
17
330
C
100
AcDbDictionary
281
     1
  3
Standard
350
1010039
  0
DICTIONARY
  5
1010054
102
{ACAD_REACTORS
330
C
102
}
330
C
100
AcDbDictionary
281
     1
  0
ACDBDICTIONARYWDFLT
  5
1010002
102
{ACAD_REACTORS
330
C
102
}
330
C
100
AcDbDictionary
281
     1
  3
Normal
350
1010003
100
AcDbDictionaryWithDefault
340
1010003
  0
DICTIONARY
  5
101003A
102
{ACAD_REACTORS
330
C
102
}
330
C
100
AcDbDictionary
281
     1
  3
A0
350
101003B
  3
A1
350
101003C
  3
A2
350
101003D
  3
A3
350
101003E
  3
A4
350
101003F
  3
A5
350
1010040
  3
A6
350
1010041
  3
A7
350
1010042
  3
A8
350
1010043
  3
A9
350
1010044
  3
B0
350
1010045
  3
B1
350
1010046
  3
B2
350
1010047
  3
B3
350
1010048
  3
B4
350
1010049
  3
B5
350
101004A
  3
B6
350
101004B
  0
DICTIONARY
  5
101004E
102
{ACAD_REACTORS
330
C
102
}
330
C
100
AcDbDictionary
281
     1
  3
Imperial24
350
101004F
  0
DICTIONARY
  5
1010037
102
{ACAD_REACTORS
330
C
102
}
330
C
100
AcDbDictionary
281
     1
  3
Standard
350
1010038
  0
DICTIONARY
  5
101001D
102
{ACAD_REACTORS
330
C
102
}
330
C
100
AcDbDictionary
281
     1
  3
2dWireframe
350
1010023
  3
Basic
350
1010022
  3
Brighten
350
1010029
  3
ColorChange
350
101002D
  3
Conceptual
350
1010026
  3
Dim
350
1010028
  3
EdgeColorOff
350
1010035
  3
Facepattern
350
101002C
  3
Flat
350
101001E
  3
FlatWithEdges
350
101001F
  3
Gouraud
350
1010020
  3
GouraudWithEdges
350
1010021
  3
Hidden
350
1010025
  3
JitterOff
350
1010033
  3
Linepattern
350
101002B
  3
OverhangOff
350
1010034
  3
Realistic
350
1010027
  3
Shaded
350
1010032
  3
Shaded with edges
350
1010031
  3
Shades of Gray
350
101002E
  3
Sketchy
350
101002F
  3
Thicken
350
101002A
  3
Wireframe
350
1010024
  3
X-Ray
350
1010030
  0
XRECORD
  5
10103BD
102
{ACAD_REACTORS
330
C
102
}
330
C
100
AcDbXrecord
280
     1
 90
        1
330
1010038
330
101004F
330
1010051
  0
DICTIONARY
  5
10100D5
102
{ACAD_REACTORS
330
C
102
}
330
C
100
AcDbDictionary
281
     1
  3
CANNOSCALE
350
10100DB
  3
CMLEADERSTYLE
350
10100D7
  3
CTABLESTYLE
350
10100D6
  3
CVIEWDETAILSTYLE
350
10100D8
  3
CVIEWSECTIONSTYLE
350
10100D9
  3
LAYEREVAL
350
10100DD
  3
LAYERNOTIFY
350
10100DE
  3
LIGHTINGUNITS
350
10100DC
  3
MSLTSCALE
350
10100DA
  0
DICTIONARY
  5
10100D0
102
{ACAD_REACTORS
330
10100CF
102
}
330
10100CF
100
AcDbDictionary
281
     1
  0
XRECORD
  5
10100BD
102
{ACAD_REACTORS
330
10100BC
102
}
330
10100BC
100
AcDbXrecord
280
     1
290
     1
  0
XRECORD
  5
10100BF
102
{ACAD_REACTORS
330
10100BE
102
}
330
10100BE
100
AcDbXrecord
280
     1
290
     1
  0
XRECORD
  5
10100C3
102
{ACAD_REACTORS
330
10100C2
102
}
330
10100C2
100
AcDbXrecord
280
     1
290
     1
  0
XRECORD
  5
10100C5
102
{ACAD_REACTORS
330
10100C4
102
}
330
10100C4
100
AcDbXrecord
280
     1
290
     1
  0
XRECORD
  5
10100C7
102
{ACAD_REACTORS
330
10100C6
102
}
330
10100C6
100
AcDbXrecord
280
     1
290
     1
  0
XRECORD
  5
10100C9
102
{ACAD_REACTORS
330
10100C8
102
}
330
10100C8
100
AcDbXrecord
280
     1
290
     1
  0
XRECORD
  5
10100CB
102
{ACAD_REACTORS
330
10100CA
102
}
330
10100CA
100
AcDbXrecord
280
     1
290
     1
  0
SORTENTSTABLE
  5
10100FE
102
{ACAD_REACTORS
330
10100FD
102
}
330
10100FD
100
AcDbSortentsTable
330
1F
331
328
  5
328
331
1010110
  5
1010111
331
365
  5
365
331
298
  5
298
331
1010119
  5
101011C
331
10100B6
  5
10100B8
331
101006D
  5
1010080
331
327
  5
327
331
1010086
  5
101008A
331
375
  5
375
331
10100BB
  5
101010A
331
1010114
  5
1010116
331
101008B
  5
101008D
331
359
  5
359
331
10100AC
  5
10100AE
331
362
  5
362
331
369
  5
369
331
330
  5
330
331
324
  5
324
331
297
  5
297
331
101008F
  5
1010093
331
372
  5
372
331
10100B8
  5
10100BA
331
329
  5
329
331
1010111
  5
1010113
331
366
  5
366
331
299
  5
299
331
10100A9
  5
10100AB
331
10100B7
  5
10100B9
331
300
  5
300
331
376
  5
376
331
355
  5
355
331
1010080
  5
1010082
331
294
  5
294
331
101008C
  5
101008E
331
10100AD
  5
10100B4
331
363
  5
363
331
1010123
  5
1010137
331
10100B4
  5
10100B6
331
1010092
  5
10100AA
331
331
  5
331
331
325
  5
325
331
373
  5
373
331
352
  5
352
331
10100B9
  5
10100BB
331
148
  5
148
331
1010066
  5
101006F
331
1010089
  5
101008B
331
367
  5
367
331
191
  5
191
331
10100AA
  5
10100AC
331
360
  5
360
331
101006F
  5
1010081
331
301
  5
301
331
220
  5
220
331
356
  5
356
331
249
  5
249
331
295
  5
295
331
101010A
  5
101010E
331
1010081
  5
1010085
331
1010116
  5
1010117
331
101008D
  5
101008F
331
370
  5
370
331
10100AE
  5
10100B5
331
364
  5
364
331
1010118
  5
1010119
331
10100B5
  5
10100B7
331
332
  5
332
331
326
  5
326
331
101010E
  5
1010110
331
1010085
  5
1010089
331
101005B
  5
101005B
331
10100BA
  5
10100FC
331
149
  5
149
331
1010113
  5
1010114
331
101008A
  5
101008C
331
441
  5
441
331
358
  5
358
331
101011C
  5
1010123
331
10100AB
  5
10100AD
331
361
  5
361
331
368
  5
368
331
357
  5
357
331
323
  5
323
331
296
  5
296
331
1010082
  5
1010086
331
1010117
  5
1010118
331
101008E
  5
1010092
331
371
  5
371
  0
ACDBDETAILVIEWSTYLE
  5
1010051
102
{ACAD_XDICTIONARY
360
1010161
102
}
102
{ACAD_REACTORS
330
1010050
102
}
330
1010050
100
AcDbModelDocViewStyle
 70
     0
  3
Imperial24
290
     0
100
AcDbDetailViewStyle
 70
     0
 71
     0
 90
        3
 71
     1
340
11
 62
   256
 40
0.24
340
0
 62
   256
 40
0.24
300

 40
0.36
280
     3
 71
     2
340
0
 90
       25
 62
   256
 71
     3
340
11
 62
   256
 40
0.24
 90
        1
 40
0.75
 90
        1
300
%<\AcVar ViewType \f "%tc1">% %<\AcVar ViewDetailId>%\PSCALE %<\AcVar ViewScale \f "%sn">%
 71
     4
340
0
 90
       25
 62
   256
340
0
 90
       25
 62
   256
280
     0
  0
GROUP
  5
1010083
102
{ACAD_REACTORS
330
D
102
}
330
D
100
AcDbGroup
300

 70
     1
 71
     1
340
1010082
340
1010081
340
1010080
  0
GROUP
  5
1010115
102
{ACAD_REACTORS
330
D
102
}
330
D
100
AcDbGroup
300

 70
     1
 71
     1
340
1010114
340
1010113
  0
GROUP
  5
101011A
102
{ACAD_REACTORS
330
D
102
}
330
D
100
AcDbGroup
300

 70
     1
 71
     1
340
1010117
340
1010116
  0
GROUP
  5
101011B
102
{ACAD_REACTORS
330
D
102
}
330
D
100
AcDbGroup
300

 70
     1
 71
     1
340
1010119
340
1010118
  0
GROUP
  5
1010143
102
{ACAD_REACTORS
330
D
102
}
330
D
100
AcDbGroup
300

 70
     1
 71
     1
340
1010142
340
1010141
340
1010140
340
101013F
340
101013E
340
101013D
340
101013C
340
101013B
340
101013A
  0
GROUP
  5
1010070
102
{ACAD_REACTORS
330
D
102
}
330
D
100
AcDbGroup
300

 70
     1
 71
     1
340
101006F
340
101006D
340
1010066
  0
GROUP
  5
1010090
102
{ACAD_REACTORS
330
D
102
}
330
D
100
AcDbGroup
300

 70
     1
 71
     1
340
101008F
340
101008E
340
101008D
340
101008C
340
101008B
340
101008A
340
149
340
148
  0
GROUP
  5
10100E6
102
{ACAD_REACTORS
330
D
102
}
330
D
100
AcDbGroup
300

 70
     1
 71
     1
340
10100BB
340
10100AE
340
10100AD
340
10100AC
340
10100AB
340
10100AA
340
10100A9
340
441
  0
GROUP
  5
10100E7
102
{ACAD_REACTORS
330
D
102
}
330
D
100
AcDbGroup
300

 70
     1
 71
     1
340
10100BA
340
10100B9
340
10100B8
340
10100B7
340
10100B6
340
10100B5
340
10100B4
340
376
  0
GROUP
  5
10100E8
102
{ACAD_REACTORS
330
D
102
}
330
D
100
AcDbGroup
300

 70
     1
 71
     1
340
373
340
372
340
371
340
370
340
369
340
368
340
367
340
366
340
365
340
364
340
363
340
362
340
361
  0
GROUP
  5
10100E9
102
{ACAD_REACTORS
330
D
102
}
330
D
100
AcDbGroup
300

 70
     1
 71
     1
340
360
340
359
340
358
340
357
340
356
340
355
  0
GROUP
  5
10100EA
102
{ACAD_REACTORS
330
D
102
}
330
D
100
AcDbGroup
300

 70
     1
 71
     1
340
332
340
331
340
330
340
329
340
328
340
327
340
326
340
325
340
324
340
323
  0
GROUP
  5
10100EC
102
{ACAD_REACTORS
330
D
102
}
330
D
100
AcDbGroup
300

 70
     1
 71
     1
340
1010092
340
301
340
300
340
299
340
298
340
297
340
296
340
295
340
294
  0
GROUP
  5
1010112
102
{ACAD_REACTORS
330
D
102
}
330
D
100
AcDbGroup
300

 70
     1
 71
     1
340
1010111
340
1010110
  0
LAYOUT
  5
1010056
102
{ACAD_REACTORS
330
1010053
102
}
330
1010053
100
AcDbPlotSettings
  1

  2
Adobe PDF
  4

  6

 40
0.0
 41
0.0
 42
0.0
 43
0.0
 44
0.0
 45
0.0
 46
0.0
 47
0.0
 48
0.0
 49
0.0
140
0.0
141
0.0
142
1.0
143
1.0
 70
   688
 72
     0
 73
     0
 74
     5
  7

 75
    16
147
1.0
 76
     0
 77
     2
 78
   300
148
0.0
149
0.0
100
AcDbLayout
  1
Layout1
 70
     1
 71
     1
 10
0.0
 20
0.0
 11
12.0
 21
9.0
 12
0.0
 22
0.0
 32
0.0
 14
1.000000000000000E+20
 24
1.000000000000000E+20
 34
1.000000000000000E+20
 15
-1.000000000000000E+20
 25
-1.000000000000000E+20
 35
-1.000000000000000E+20
146
0.0
 13
0.0
 23
0.0
 33
0.0
 16
1.0
 26
0.0
 36
0.0
 17
0.0
 27
1.0
 37
0.0
 76
     0
330
1B
  0
LAYOUT
  5
1010055
102
{ACAD_REACTORS
330
1010053
102
}
330
1010053
100
AcDbPlotSettings
  1

  2
Adobe PDF
  4

  6

 40
0.0
 41
0.0
 42
0.0
 43
0.0
 44
0.0
 45
0.0
 46
0.0
 47
0.0
 48
0.0
 49
0.0
140
0.0
141
0.0
142
1.0
143
1.0
 70
  1712
 72
     0
 73
     0
 74
     0
  7

 75
     0
147
1.0
 76
     0
 77
     2
 78
   300
148
0.0
149
0.0
100
AcDbLayout
  1
Model
 70
     1
 71
     0
 10
0.0
 20
0.0
 11
12.0
 21
9.0
 12
0.0
 22
0.0
 32
0.0
 14
0.0
 24
0.0
 34
0.0
 15
0.0
 25
0.0
 35
0.0
146
0.0
 13
0.0
 23
0.0
 33
0.0
 16
1.0
 26
0.0
 36
0.0
 17
0.0
 27
1.0
 37
0.0
 76
     0
330
1F
331
1010059
  0
MATERIAL
  5
101000D
102
{ACAD_XDICTIONARY
360
101000E
102
}
102
{ACAD_REACTORS
330
1010004
102
}
330
1010004
100
AcDbMaterial
  1
ByBlock
 72
     0
 43
0.0008202099737533
 43
0.0
 43
0.0
 43
0.0
 43
0.0
 43
0.0008202099737533
 43
0.0
 43
0.0
 43
0.0
 43
0.0
 43
1.0
 43
0.0
 43
0.0
 43
0.0
 43
0.0
 43
1.0
 77
     0
 47
0.0008202099737533
 47
0.0
 47
0.0
 47
0.0
 47
0.0
 47
0.0008202099737533
 47
0.0
 47
0.0
 47
0.0
 47
0.0
 47
1.0
 47
0.0
 47
0.0
 47
0.0
 47
0.0
 47
1.0
171
     0
 49
0.0008202099737533
 49
0.0
 49
0.0
 49
0.0
 49
0.0
 49
0.0008202099737533
 49
0.0
 49
0.0
 49
0.0
 49
0.0
 49
1.0
 49
0.0
 49
0.0
 49
0.0
 49
0.0
 49
1.0
175
     0
142
0.0008202099737533
142
0.0
142
0.0
142
0.0
142
0.0
142
0.0008202099737533
142
0.0
142
0.0
142
0.0
142
0.0
142
1.0
142
0.0
142
0.0
142
0.0
142
0.0
142
1.0
179
     0
144
0.0008202099737533
144
0.0
144
0.0
144
0.0
144
0.0
144
0.0008202099737533
144
0.0
144
0.0
144
0.0
144
0.0
144
1.0
144
0.0
144
0.0
144
0.0
144
0.0
144
1.0
147
0.0008202099737533
147
0.0
147
0.0
147
0.0
147
0.0
147
0.0008202099737533
147
0.0
147
0.0
147
0.0
147
0.0
147
1.0
147
0.0
147
0.0
147
0.0
147
0.0
147
1.0
  0
MATERIAL
  5
1010005
102
{ACAD_XDICTIONARY
360
1010006
102
}
102
{ACAD_REACTORS
330
1010004
102
}
330
1010004
100
AcDbMaterial
  1
ByLayer
 72
     0
 43
0.0008202099737533
 43
0.0
 43
0.0
 43
0.0
 43
0.0
 43
0.0008202099737533
 43
0.0
 43
0.0
 43
0.0
 43
0.0
 43
1.0
 43
0.0
 43
0.0
 43
0.0
 43
0.0
 43
1.0
 77
     0
 47
0.0008202099737533
 47
0.0
 47
0.0
 47
0.0
 47
0.0
 47
0.0008202099737533
 47
0.0
 47
0.0
 47
0.0
 47
0.0
 47
1.0
 47
0.0
 47
0.0
 47
0.0
 47
0.0
 47
1.0
171
     0
 49
0.0008202099737533
 49
0.0
 49
0.0
 49
0.0
 49
0.0
 49
0.0008202099737533
 49
0.0
 49
0.0
 49
0.0
 49
0.0
 49
1.0
 49
0.0
 49
0.0
 49
0.0
 49
0.0
 49
1.0
175
     0
142
0.0008202099737533
142
0.0
142
0.0
142
0.0
142
0.0
142
0.0008202099737533
142
0.0
142
0.0
142
0.0
142
0.0
142
1.0
142
0.0
142
0.0
142
0.0
142
0.0
142
1.0
179
     0
144
0.0008202099737533
144
0.0
144
0.0
144
0.0
144
0.0
144
0.0008202099737533
144
0.0
144
0.0
144
0.0
144
0.0
144
1.0
144
0.0
144
0.0
144
0.0
144
0.0
144
1.0
147
0.0008202099737533
147
0.0
147
0.0
147
0.0
147
0.0
147
0.0008202099737533
147
0.0
147
0.0
147
0.0
147
0.0
147
1.0
147
0.0
147
0.0
147
0.0
147
0.0
147
1.0
  0
MATERIAL
  5
1010015
102
{ACAD_XDICTIONARY
360
1010016
102
}
102
{ACAD_REACTORS
330
1010004
102
}
330
1010004
100
AcDbMaterial
  1
Global
 72
     0
 43
0.0008202099737533
 43
0.0
 43
0.0
 43
0.0
 43
0.0
 43
0.0008202099737533
 43
0.0
 43
0.0
 43
0.0
 43
0.0
 43
1.0
 43
0.0
 43
0.0
 43
0.0
 43
0.0
 43
1.0
 77
     0
 47
0.0008202099737533
 47
0.0
 47
0.0
 47
0.0
 47
0.0
 47
0.0008202099737533
 47
0.0
 47
0.0
 47
0.0
 47
0.0
 47
1.0
 47
0.0
 47
0.0
 47
0.0
 47
0.0
 47
1.0
171
     0
 49
0.0008202099737533
 49
0.0
 49
0.0
 49
0.0
 49
0.0
 49
0.0008202099737533
 49
0.0
 49
0.0
 49
0.0
 49
0.0
 49
1.0
 49
0.0
 49
0.0
 49
0.0
 49
0.0
 49
1.0
175
     0
142
0.0008202099737533
142
0.0
142
0.0
142
0.0
142
0.0
142
0.0008202099737533
142
0.0
142
0.0
142
0.0
142
0.0
142
1.0
142
0.0
142
0.0
142
0.0
142
0.0
142
1.0
179
     0
144
0.0008202099737533
144
0.0
144
0.0
144
0.0
144
0.0
144
0.0008202099737533
144
0.0
144
0.0
144
0.0
144
0.0
144
1.0
144
0.0
144
0.0
144
0.0
144
0.0
144
1.0
147
0.0008202099737533
147
0.0
147
0.0
147
0.0
147
0.0
147
0.0008202099737533
147
0.0
147
0.0
147
0.0
147
0.0
147
1.0
147
0.0
147
0.0
147
0.0
147
0.0
147
1.0
  0
MLEADERSTYLE
  5
101004D
102
{ACAD_REACTORS
330
101004C
102
}
330
101004C
100
AcDbMLeaderStyle
179
     2
170
     2
171
     1
172
     0
 90
        2
 40
0.0
 41
0.0
173
     1
 91
-1056964608
340
14
 92
       -2
290
     1
 42
0.09
291
     1
 43
0.36
  3
Standard
 44
0.18
300

342
11
174
     1
178
     6
175
     1
176
     0
 93
-1056964608
 45
0.18
292
     0
297
     0
 46
0.18
 94
-1056964608
 47
1.0
 49
1.0
140
1.0
293
     1
141
0.0
294
     1
177
     0
142
1.0
295
     0
296
     0
143
0.125
271
     0
272
     9
273
     9
298
     0
  0
MLINESTYLE
  5
1010039
102
{ACAD_REACTORS
330
17
102
}
330
17
100
AcDbMlineStyle
  2
STANDARD
 70
     0
  3

 62
   256
 51
90.0
 52
90.0
 71
     2
 49
0.5
 62
   256
  6
BYLAYER
 49
-0.5
 62
   256
  6
BYLAYER
  0
ACDBPLACEHOLDER
  5
1010003
102
{ACAD_REACTORS
330
1010002
102
}
330
1010002
  0
SCALE
  5
101003B
102
{ACAD_REACTORS
330
101003A
102
}
330
101003A
100
AcDbScale
 70
     0
300
1:1
140
1.0
141
1.0
290
     1
  0
SCALE
  5
101003C
102
{ACAD_REACTORS
330
101003A
102
}
330
101003A
100
AcDbScale
 70
     0
300
1/128" = 1'-0"
140
0.0078125
141
12.0
290
     0
  0
SCALE
  5
101003D
102
{ACAD_REACTORS
330
101003A
102
}
330
101003A
100
AcDbScale
 70
     0
300
1/64" = 1'-0"
140
0.015625
141
12.0
290
     0
  0
SCALE
  5
101003E
102
{ACAD_REACTORS
330
101003A
102
}
330
101003A
100
AcDbScale
 70
     0
300
1/32" = 1'-0"
140
0.03125
141
12.0
290
     0
  0
SCALE
  5
101003F
102
{ACAD_REACTORS
330
101003A
102
}
330
101003A
100
AcDbScale
 70
     0
300
1/16" = 1'-0"
140
0.0625
141
12.0
290
     0
  0
SCALE
  5
1010040
102
{ACAD_REACTORS
330
101003A
102
}
330
101003A
100
AcDbScale
 70
     0
300
3/32" = 1'-0"
140
0.09375
141
12.0
290
     0
  0
SCALE
  5
1010041
102
{ACAD_REACTORS
330
101003A
102
}
330
101003A
100
AcDbScale
 70
     0
300
1/8" = 1'-0"
140
0.125
141
12.0
290
     0
  0
SCALE
  5
1010042
102
{ACAD_REACTORS
330
101003A
102
}
330
101003A
100
AcDbScale
 70
     0
300
3/16" = 1'-0"
140
0.1875
141
12.0
290
     0
  0
SCALE
  5
1010043
102
{ACAD_REACTORS
330
101003A
102
}
330
101003A
100
AcDbScale
 70
     0
300
1/4" = 1'-0"
140
0.25
141
12.0
290
     0
  0
SCALE
  5
1010044
102
{ACAD_REACTORS
330
101003A
102
}
330
101003A
100
AcDbScale
 70
     0
300
3/8" = 1'-0"
140
0.375
141
12.0
290
     0
  0
SCALE
  5
1010045
102
{ACAD_REACTORS
330
101003A
102
}
330
101003A
100
AcDbScale
 70
     0
300
1/2" = 1'-0"
140
0.5
141
12.0
290
     0
  0
SCALE
  5
1010046
102
{ACAD_REACTORS
330
101003A
102
}
330
101003A
100
AcDbScale
 70
     0
300
3/4" = 1'-0"
140
0.75
141
12.0
290
     0
  0
SCALE
  5
1010047
102
{ACAD_REACTORS
330
101003A
102
}
330
101003A
100
AcDbScale
 70
     0
300
1" = 1'-0"
140
1.0
141
12.0
290
     0
  0
SCALE
  5
1010048
102
{ACAD_REACTORS
330
101003A
102
}
330
101003A
100
AcDbScale
 70
     0
300
1-1/2" = 1'-0"
140
1.5
141
12.0
290
     0
  0
SCALE
  5
1010049
102
{ACAD_REACTORS
330
101003A
102
}
330
101003A
100
AcDbScale
 70
     0
300
3" = 1'-0"
140
3.0
141
12.0
290
     0
  0
SCALE
  5
101004A
102
{ACAD_REACTORS
330
101003A
102
}
330
101003A
100
AcDbScale
 70
     0
300
6" = 1'-0"
140
6.0
141
12.0
290
     0
  0
SCALE
  5
101004B
102
{ACAD_REACTORS
330
101003A
102
}
330
101003A
100
AcDbScale
 70
     0
300
1'-0" = 1'-0"
140
12.0
141
12.0
290
     0
  0
ACDBSECTIONVIEWSTYLE
  5
101004F
102
{ACAD_XDICTIONARY
360
101015F
102
}
102
{ACAD_REACTORS
330
101004E
102
}
330
101004E
100
AcDbModelDocViewStyle
 70
     0
  3
Imperial24
290
     0
100
AcDbSectionViewStyle
 70
     0
 71
     0
 90
       78
 71
     1
340
11
 62
   256
 40
0.24
340
0
340
0
 62
   256
 40
0.24
300
I, O, Q, S, X, Z
 40
0.48
 90
        3
 40
0.18
 90
        1
 71
     2
340
0
 90
       25
 62
   256
340
0
 90
       50
 62
   256
 40
0.24
 40
0.0
 40
0.24
 71
     3
340
11
 62
   256
 40
0.24
 90
        1
 40
0.75
 90
        1
300
%<\AcVar ViewType \f "%tc1">% %<\AcVar ViewSectionStartId>%-%<\AcVar ViewSectionEndId>%\PSCALE %<\AcVar ViewScale \f "%sn">%
 71
     4
 62
   256
 62
   257
300
ANSI31
 40
1.0
 90
        0
290
     0
290
     0
 90
        6
 40
0.0
 40
1.570796326794896
 40
0.2617993877991494
 40
1.308996938995747
 40
-0.2617993877991494
 40
1.832595714594044
  0
TABLESTYLE
  5
1010038
102
{ACAD_XDICTIONARY
360
101015D
102
}
102
{ACAD_REACTORS
330
1010037
102
}
330
1010037
100
AcDbTableStyle
280
     0
  3
Standard
 70
     0
 71
     0
 40
0.06
 41
0.06
280
     0
281
     0
  7
STANDARD
140
0.18
170
     2
 62
     0
 63
     7
283
     0
 90
      512
 91
        0
  1

274
    -2
284
     1
 64
     0
275
    -2
285
     1
 65
     0
276
    -2
286
     1
 66
     0
277
    -2
287
     1
 67
     0
278
    -2
288
     1
 68
     0
279
    -2
289
     1
 69
     0
  7
STANDARD
140
0.25
170
     5
 62
     0
 63
     7
283
     0
 90
      512
 91
        0
  1

274
    -2
284
     1
 64
     0
275
    -2
285
     1
 65
     0
276
    -2
286
     1
 66
     0
277
    -2
287
     1
 67
     0
278
    -2
288
     1
 68
     0
279
    -2
289
     1
 69
     0
  7
STANDARD
140
0.18
170
     5
 62
     0
 63
     7
283
     0
 90
      512
 91
        0
  1

274
    -2
284
     1
 64
     0
275
    -2
285
     1
 65
     0
276
    -2
286
     1
 66
     0
277
    -2
287
     1
 67
     0
278
    -2
288
     1
 68
     0
279
    -2
289
     1
 69
     0
  0
VISUALSTYLE
  5
1010023
102
{ACAD_REACTORS
330
101001D
102
}
330
101001D
100
AcDbVisualStyle
  2
2dWireframe
 70
     4
177
     3
291
     0
 70
    58
 90
        0
176
     1
 90
        2
176
     1
 90
        0
176
     1
 90
        0
176
     1
 40
0.6
176
     1
 40
30.0
176
     1
 62
     7
420
 16777215
176
     1
 90
        1
176
     1
 90
        4
176
     1
 62
     7
176
     1
 62
   257
176
     1
 90
        1
176
     1
 90
        1
176
     1
 40
1.0
176
     1
 90
        0
176
     1
 62
   257
176
     1
 40
1.0
176
     1
 90
        1
176
     1
 90
        6
176
     1
 90
        2
176
     1
 62
     7
176
     1
 90
        5
176
     1
 90
        0
176
     1
 90
        0
176
     1
290
     0
176
     1
 90
        1
176
     1
 40
0.0
176
     1
 90
        0
176
     1
290
     1
176
     1
290
     1
176
     1
290
     0
176
     1
290
     0
176
     1
290
     0
176
     1
290
     0
176
     1
290
     0
176
     1
290
     0
176
     1
290
     0
176
     1
 90
       50
176
     1
 40
0.0
176
     1
 40
1.0
176
     1
 90
        0
176
     1
 62
    18
176
     1
 90
       50
176
     1
 90
        3
176
     1
 62
     5
420
      255
176
     1
290
     0
176
     1
 90
       50
176
     1
 90
       50
176
     1
 90
       50
176
     1
290
     0
176
     1
 90
       50
176
     1
 62
   256
176
     0
 40
1.0
176
     0
 90
        2
176
     1
  1
strokes_ogs.tif
176
     1
290
     0
176
     1
 40
1.0
176
     1
 40
1.0
176
     1
  0
VISUALSTYLE
  5
1010022
102
{ACAD_REACTORS
330
101001D
102
}
330
101001D
100
AcDbVisualStyle
  2
Basic
 70
     7
177
     3
291
     1
 70
    58
 90
        1
176
     1
 90
        0
176
     1
 90
        1
176
     1
 90
        0
176
     1
 40
0.6
176
     1
 40
30.0
176
     1
 62
     7
420
 16777215
176
     1
 90
        0
176
     1
 90
        4
176
     1
 62
     7
176
     1
 62
   257
176
     1
 90
        1
176
     1
 90
        1
176
     1
 40
1.0
176
     1
 90
        8
176
     1
 62
     7
176
     1
 40
1.0
176
     1
 90
        1
176
     1
 90
        6
176
     1
 90
        2
176
     1
 62
     7
176
     1
 90
        5
176
     1
 90
        0
176
     1
 90
        0
176
     1
290
     0
176
     1
 90
        1
176
     1
 40
0.0
176
     1
 90
        0
176
     1
290
     0
176
     1
290
     1
176
     1
290
     1
176
     1
290
     0
176
     1
290
     0
176
     1
290
     0
176
     1
290
     0
176
     1
290
     0
176
     1
290
     0
176
     1
 90
       50
176
     1
 40
0.0
176
     1
 40
1.0
176
     1
 90
        0
176
     1
 62
    18
176
     1
 90
       50
176
     1
 90
        3
176
     1
 62
     5
420
      255
176
     1
290
     0
176
     1
 90
       50
176
     1
 90
       50
176
     1
 90
       50
176
     1
290
     0
176
     1
 90
       50
176
     1
 62
   256
176
     0
 40
1.0
176
     0
 90
        2
176
     1
  1
strokes_ogs.tif
176
     1
290
     0
176
     1
 40
1.0
176
     1
 40
1.0
176
     1
  0
VISUALSTYLE
  5
1010029
102
{ACAD_REACTORS
330
101001D
102
}
330
101001D
100
AcDbVisualStyle
  2
Brighten
 70
    12
177
     3
291
     1
 70
    58
 90
        2
176
     1
 90
        2
176
     1
 90
        0
176
     1
 90
        0
176
     1
 40
0.6
176
     1
 40
30.0
176
     1
 62
     7
420
 16777215
176
     1
 90
        1
176
     1
 90
        4
176
     1
 62
     7
176
     1
 62
   257
176
     1
 90
        1
176
     1
 90
        1
176
     1
 40
1.0
176
     1
 90
        8
176
     1
 62
     7
176
     1
 40
1.0
176
     1
 90
        1
176
     1
 90
        6
176
     1
 90
        2
176
     1
 62
     7
176
     1
 90
        5
176
     1
 90
        0
176
     1
 90
        0
176
     1
290
     0
176
     1
 90
        1
176
     1
 40
50.0
176
     1
 90
        0
176
     1
290
     0
176
     1
290
     1
176
     1
290
     1
176
     1
290
     0
176
     1
290
     0
176
     1
290
     0
176
     1
290
     0
176
     1
290
     0
176
     1
290
     0
176
     1
 90
       50
176
     1
 40
0.0
176
     1
 40
1.0
176
     1
 90
        0
176
     1
 62
    18
176
     1
 90
       50
176
     1
 90
        3
176
     1
 62
     5
420
      255
176
     1
290
     0
176
     1
 90
       50
176
     1
 90
       50
176
     1
 90
       50
176
     1
290
     0
176
     1
 90
       50
176
     1
 62
   256
176
     0
 40
1.0
176
     0
 90
        2
176
     1
  1
strokes_ogs.tif
176
     1
290
     0
176
     1
 40
1.0
176
     1
 40
1.0
176
     1
  0
VISUALSTYLE
  5
101002D
102
{ACAD_REACTORS
330
101001D
102
}
330
101001D
100
AcDbVisualStyle
  2
ColorChange
 70
    16
177
     3
291
     1
 70
    58
 90
        2
176
     1
 90
        2
176
     1
 90
        3
176
     1
 90
        0
176
     1
 40
0.6
176
     1
 40
30.0
176
     1
 62
     8
420
  8421504
176
     1
 90
        1
176
     1
 90
        4
176
     1
 62
     7
176
     1
 62
   257
176
     1
 90
        1
176
     1
 90
        1
176
     1
 40
1.0
176
     1
 90
        8
176
     1
 62
     8
420
  8421504
176
     1
 40
1.0
176
     1
 90
        1
176
     1
 90
        6
176
     1
 90
        2
176
     1
 62
     7
176
     1
 90
        5
176
     1
 90
        0
176
     1
 90
        0
176
     1
290
     0
176
     1
 90
        1
176
     1
 40
0.0
176
     1
 90
        0
176
     1
290
     0
176
     1
290
     1
176
     1
290
     1
176
     1
290
     0
176
     1
290
     0
176
     1
290
     0
176
     1
290
     0
176
     1
290
     0
176
     1
290
     0
176
     1
 90
       50
176
     1
 40
0.0
176
     1
 40
1.0
176
     1
 90
        0
176
     1
 62
    18
176
     1
 90
       50
176
     1
 90
        3
176
     1
 62
     5
420
      255
176
     1
290
     0
176
     1
 90
       50
176
     1
 90
       50
176
     1
 90
       50
176
     1
290
     0
176
     1
 90
       50
176
     1
 62
   256
176
     0
 40
1.0
176
     0
 90
        2
176
     1
  1
strokes_ogs.tif
176
     1
290
     0
176
     1
 40
1.0
176
     1
 40
1.0
176
     1
  0
VISUALSTYLE
  5
1010026
102
{ACAD_REACTORS
330
101001D
102
}
330
101001D
100
AcDbVisualStyle
  2
Conceptual
 70
     9
177
     3
291
     0
 70
    58
 90
        3
176
     1
 90
        2
176
     1
 90
        0
176
     1
 90
        0
176
     1
 40
0.6
176
     1
 40
30.0
176
     1
 62
     7
420
 16777215
176
     1
 90
        2
176
     1
 90
        2
176
     1
 62
     7
176
     1
 62
   257
176
     1
 90
        1
176
     1
 90
        1
176
     1
 40
179.0
176
     1
 90
        8
176
     1
 62
     7
176
     1
 40
1.0
176
     1
 90
        1
176
     1
 90
        6
176
     1
 90
        2
176
     1
 62
     7
176
     1
 90
        3
176
     1
 90
        0
176
     1
 90
        0
176
     1
290
     0
176
     1
 90
        1
176
     1
 40
0.0
176
     1
 90
        0
176
     1
290
     0
176
     1
290
     1
176
     1
290
     1
176
     1
290
     0
176
     1
290
     0
176
     1
290
     0
176
     1
290
     0
176
     1
290
     0
176
     1
290
     0
176
     1
 90
       50
176
     1
 40
0.0
176
     1
 40
1.0
176
     1
 90
        0
176
     1
 62
    18
176
     1
 90
       50
176
     1
 90
        3
176
     1
 62
     5
420
      255
176
     1
290
     0
176
     1
 90
       50
176
     1
 90
       50
176
     1
 90
       50
176
     1
290
     0
176
     1
 90
       50
176
     1
 62
   256
176
     0
 40
1.0
176
     0
 90
        2
176
     1
  1
strokes_ogs.tif
176
     1
290
     0
176
     1
 40
1.0
176
     1
 40
1.0
176
     1
  0
VISUALSTYLE
  5
1010028
102
{ACAD_REACTORS
330
101001D
102
}
330
101001D
100
AcDbVisualStyle
  2
Dim
 70
    11
177
     3
291
     1
 70
    58
 90
        2
176
     1
 90
        2
176
     1
 90
        0
176
     1
 90
        0
176
     1
 40
0.6
176
     1
 40
30.0
176
     1
 62
     7
420
 16777215
176
     1
 90
        1
176
     1
 90
        4
176
     1
 62
     7
176
     1
 62
   257
176
     1
 90
        1
176
     1
 90
        1
176
     1
 40
1.0
176
     1
 90
        8
176
     1
 62
     7
176
     1
 40
1.0
176
     1
 90
        1
176
     1
 90
        6
176
     1
 90
        2
176
     1
 62
     7
176
     1
 90
        5
176
     1
 90
        0
176
     1
 90
        0
176
     1
290
     0
176
     1
 90
        1
176
     1
 40
-50.0
176
     1
 90
        0
176
     1
290
     0
176
     1
290
     1
176
     1
290
     1
176
     1
290
     0
176
     1
290
     0
176
     1
290
     0
176
     1
290
     0
176
     1
290
     0
176
     1
290
     0
176
     1
 90
       50
176
     1
 40
0.0
176
     1
 40
1.0
176
     1
 90
        0
176
     1
 62
    18
176
     1
 90
       50
176
     1
 90
        3
176
     1
 62
     5
420
      255
176
     1
290
     0
176
     1
 90
       50
176
     1
 90
       50
176
     1
 90
       50
176
     1
290
     0
176
     1
 90
       50
176
     1
 62
   256
176
     0
 40
1.0
176
     0
 90
        2
176
     1
  1
strokes_ogs.tif
176
     1
290
     0
176
     1
 40
1.0
176
     1
 40
1.0
176
     1
  0
VISUALSTYLE
  5
1010035
102
{ACAD_REACTORS
330
101001D
102
}
330
101001D
100
AcDbVisualStyle
  2
EdgeColorOff
 70
    22
177
     3
291
     1
 70
    58
 90
        2
176
     0
 90
        2
176
     0
 90
        0
176
     0
 90
        0
176
     0
 40
0.6
176
     0
 40
30.0
176
     0
 62
     7
420
 16777215
176
     0
 90
        1
176
     0
 90
        4
176
     0
 62
     7
176
     0
 62
   257
176
     0
 90
        1
176
     0
 90
        1
176
     0
 40
1.0
176
     0
 90
        8
176
     2
 62
     7
176
     0
 40
1.0
176
     0
 90
        1
176
     0
 90
        6
176
     0
 90
        2
176
     0
 62
     7
176
     0
 90
        5
176
     0
 90
        0
176
     0
 90
        0
176
     0
290
     0
176
     0
 90
        1
176
     0
 40
0.0
176
     0
 90
        0
176
     0
290
     0
176
     1
290
     1
176
     1
290
     1
176
     1
290
     0
176
     1
290
     0
176
     1
290
     0
176
     1
290
     0
176
     1
290
     0
176
     1
290
     0
176
     1
 90
       50
176
     0
 40
0.0
176
     0
 40
1.0
176
     0
 90
        0
176
     0
 62
    18
176
     0
 90
       50
176
     0
 90
        3
176
     0
 62
     5
420
      255
176
     0
290
     0
176
     1
 90
       50
176
     0
 90
       50
176
     0
 90
       50
176
     0
290
     0
176
     1
 90
       50
176
     0
 62
   256
176
     0
 40
1.0
176
     0
 90
        2
176
     0
  1
strokes_ogs.tif
176
     0
290
     0
176
     1
 40
1.0
176
     0
 40
1.0
176
     0
  0
VISUALSTYLE
  5
101002C
102
{ACAD_REACTORS
330
101001D
102
}
330
101001D
100
AcDbVisualStyle
  2
Facepattern
 70
    15
177
     3
291
     1
 70
    58
 90
        2
176
     1
 90
        2
176
     1
 90
        0
176
     1
 90
        0
176
     1
 40
0.6
176
     1
 40
30.0
176
     1
 62
     7
420
 16777215
176
     1
 90
        1
176
     1
 90
        4
176
     1
 62
     7
176
     1
 62
   257
176
     1
 90
        1
176
     1
 90
        1
176
     1
 40
1.0
176
     1
 90
        8
176
     1
 62
     7
176
     1
 40
1.0
176
     1
 90
        1
176
     1
 90
        6
176
     1
 90
        2
176
     1
 62
     7
176
     1
 90
        5
176
     1
 90
        0
176
     1
 90
        0
176
     1
290
     0
176
     1
 90
        1
176
     1
 40
0.0
176
     1
 90
        0
176
     1
290
     0
176
     1
290
     1
176
     1
290
     1
176
     1
290
     0
176
     1
290
     0
176
     1
290
     0
176
     1
290
     0
176
     1
290
     0
176
     1
290
     0
176
     1
 90
       50
176
     1
 40
0.0
176
     1
 40
1.0
176
     1
 90
        0
176
     1
 62
    18
176
     1
 90
       50
176
     1
 90
        3
176
     1
 62
     5
420
      255
176
     1
290
     0
176
     1
 90
       50
176
     1
 90
       50
176
     1
 90
       50
176
     1
290
     0
176
     1
 90
       50
176
     1
 62
   256
176
     0
 40
1.0
176
     0
 90
        2
176
     1
  1
strokes_ogs.tif
176
     1
290
     0
176
     1
 40
1.0
176
     1
 40
1.0
176
     1
  0
VISUALSTYLE
  5
101001E
102
{ACAD_REACTORS
330
101001D
102
}
330
101001D
100
AcDbVisualStyle
  2
Flat
 70
     0
177
     3
291
     1
 70
    58
 90
        2
176
     1
 90
        1
176
     1
 90
        1
176
     1
 90
        2
176
     1
 40
0.6
176
     1
 40
30.0
176
     1
 62
     7
420
 16777215
176
     1
 90
        0
176
     1
 90
        0
176
     1
 62
     7
176
     1
 62
   257
176
     1
 90
        1
176
     1
 90
        1
176
     1
 40
1.0
176
     1
 90
        8
176
     1
 62
     7
176
     1
 40
1.0
176
     1
 90
        1
176
     1
 90
        6
176
     1
 90
        2
176
     1
 62
     7
176
     1
 90
        5
176
     1
 90
        0
176
     1
 90
        0
176
     1
290
     0
176
     1
 90
       13
176
     1
 40
0.0
176
     1
 90
        0
176
     1
290
     0
176
     1
290
     1
176
     1
290
     1
176
     1
290
     0
176
     1
290
     0
176
     1
290
     0
176
     1
290
     0
176
     1
290
     0
176
     1
290
     0
176
     1
 90
       50
176
     1
 40
0.0
176
     1
 40
1.0
176
     1
 90
        0
176
     1
 62
    18
176
     1
 90
       50
176
     1
 90
        3
176
     1
 62
     5
420
      255
176
     1
290
     0
176
     1
 90
       50
176
     1
 90
       50
176
     1
 90
       50
176
     1
290
     0
176
     1
 90
       50
176
     1
 62
   256
176
     0
 40
1.0
176
     0
 90
        2
176
     1
  1
strokes_ogs.tif
176
     1
290
     0
176
     1
 40
1.0
176
     1
 40
1.0
176
     1
  0
VISUALSTYLE
  5
101001F
102
{ACAD_REACTORS
330
101001D
102
}
330
101001D
100
AcDbVisualStyle
  2
FlatWithEdges
 70
     1
177
     3
291
     1
 70
    58
 90
        2
176
     1
 90
        1
176
     1
 90
        1
176
     1
 90
        2
176
     1
 40
0.6
176
     1
 40
30.0
176
     1
 62
     7
420
 16777215
176
     1
 90
        1
176
     1
 90
        0
176
     1
 62
     7
176
     1
 62
   257
176
     1
 90
        1
176
     1
 90
        1
176
     1
 40
1.0
176
     1
 90
        0
176
     1
 62
   257
176
     1
 40
1.0
176
     1
 90
        1
176
     1
 90
        6
176
     1
 90
        2
176
     1
 62
     7
176
     1
 90
        5
176
     1
 90
        0
176
     1
 90
        0
176
     1
290
     0
176
     1
 90
       13
176
     1
 40
0.0
176
     1
 90
        0
176
     1
290
     0
176
     1
290
     1
176
     1
290
     1
176
     1
290
     0
176
     1
290
     0
176
     1
290
     0
176
     1
290
     0
176
     1
290
     0
176
     1
290
     0
176
     1
 90
       50
176
     1
 40
0.0
176
     1
 40
1.0
176
     1
 90
        0
176
     1
 62
    18
176
     1
 90
       50
176
     1
 90
        3
176
     1
 62
     5
420
      255
176
     1
290
     0
176
     1
 90
       50
176
     1
 90
       50
176
     1
 90
       50
176
     1
290
     0
176
     1
 90
       50
176
     1
 62
   256
176
     0
 40
1.0
176
     0
 90
        2
176
     1
  1
strokes_ogs.tif
176
     1
290
     0
176
     1
 40
1.0
176
     1
 40
1.0
176
     1
  0
VISUALSTYLE
  5
1010020
102
{ACAD_REACTORS
330
101001D
102
}
330
101001D
100
AcDbVisualStyle
  2
Gouraud
 70
     2
177
     3
291
     1
 70
    58
 90
        2
176
     1
 90
        2
176
     1
 90
        1
176
     1
 90
        2
176
     1
 40
0.6
176
     1
 40
30.0
176
     1
 62
     7
420
 16777215
176
     1
 90
        0
176
     1
 90
        0
176
     1
 62
     7
176
     1
 62
   257
176
     1
 90
        1
176
     1
 90
        1
176
     1
 40
1.0
176
     1
 90
        0
176
     1
 62
     7
176
     1
 40
1.0
176
     1
 90
        1
176
     1
 90
        6
176
     1
 90
        2
176
     1
 62
     7
176
     1
 90
        5
176
     1
 90
        0
176
     1
 90
        0
176
     1
290
     0
176
     1
 90
       13
176
     1
 40
0.0
176
     1
 90
        0
176
     1
290
     0
176
     1
290
     1
176
     1
290
     1
176
     1
290
     0
176
     1
290
     0
176
     1
290
     0
176
     1
290
     0
176
     1
290
     0
176
     1
290
     0
176
     1
 90
       50
176
     1
 40
0.0
176
     1
 40
1.0
176
     1
 90
        0
176
     1
 62
    18
176
     1
 90
       50
176
     1
 90
        3
176
     1
 62
     5
420
      255
176
     1
290
     0
176
     1
 90
       50
176
     1
 90
       50
176
     1
 90
       50
176
     1
290
     0
176
     1
 90
       50
176
     1
 62
   256
176
     0
 40
1.0
176
     0
 90
        2
176
     1
  1
strokes_ogs.tif
176
     1
290
     0
176
     1
 40
1.0
176
     1
 40
1.0
176
     1
  0
VISUALSTYLE
  5
1010021
102
{ACAD_REACTORS
330
101001D
102
}
330
101001D
100
AcDbVisualStyle
  2
GouraudWithEdges
 70
     3
177
     3
291
     1
 70
    58
 90
        2
176
     1
 90
        2
176
     1
 90
        1
176
     1
 90
        2
176
     1
 40
0.6
176
     1
 40
30.0
176
     1
 62
     7
420
 16777215
176
     1
 90
        1
176
     1
 90
        0
176
     1
 62
     7
176
     1
 62
   257
176
     1
 90
        1
176
     1
 90
        1
176
     1
 40
1.0
176
     1
 90
        0
176
     1
 62
   257
176
     1
 40
1.0
176
     1
 90
        1
176
     1
 90
        6
176
     1
 90
        2
176
     1
 62
     7
176
     1
 90
        5
176
     1
 90
        0
176
     1
 90
        0
176
     1
290
     0
176
     1
 90
       13
176
     1
 40
0.0
176
     1
 90
        0
176
     1
290
     0
176
     1
290
     1
176
     1
290
     1
176
     1
290
     0
176
     1
290
     0
176
     1
290
     0
176
     1
290
     0
176
     1
290
     0
176
     1
290
     0
176
     1
 90
       50
176
     1
 40
0.0
176
     1
 40
1.0
176
     1
 90
        0
176
     1
 62
    18
176
     1
 90
       50
176
     1
 90
        3
176
     1
 62
     5
420
      255
176
     1
290
     0
176
     1
 90
       50
176
     1
 90
       50
176
     1
 90
       50
176
     1
290
     0
176
     1
 90
       50
176
     1
 62
   256
176
     0
 40
1.0
176
     0
 90
        2
176
     1
  1
strokes_ogs.tif
176
     1
290
     0
176
     1
 40
1.0
176
     1
 40
1.0
176
     1
  0
VISUALSTYLE
  5
1010025
102
{ACAD_REACTORS
330
101001D
102
}
330
101001D
100
AcDbVisualStyle
  2
Hidden
 70
     6
177
     3
291
     0
 70
    58
 90
        1
176
     1
 90
        2
176
     1
 90
        2
176
     1
 90
        0
176
     1
 40
0.6
176
     1
 40
30.0
176
     1
 62
     7
420
 16777215
176
     1
 90
        2
176
     1
 90
        2
176
     1
 62
     7
176
     1
 62
   257
176
     1
 90
        2
176
     1
 90
        1
176
     1
 40
40.0
176
     1
 90
        0
176
     1
 62
   257
176
     1
 40
1.0
176
     1
 90
        1
176
     1
 90
        6
176
     1
 90
        2
176
     1
 62
     7
176
     1
 90
        3
176
     1
 90
        0
176
     1
 90
        0
176
     1
290
     0
176
     1
 90
        1
176
     1
 40
0.0
176
     1
 90
        0
176
     1
290
     0
176
     1
290
     1
176
     1
290
     1
176
     1
290
     0
176
     1
290
     0
176
     1
290
     0
176
     1
290
     0
176
     1
290
     0
176
     1
290
     0
176
     1
 90
       50
176
     1
 40
0.0
176
     1
 40
1.0
176
     1
 90
        0
176
     1
 62
    18
176
     1
 90
       50
176
     1
 90
        3
176
     1
 62
     5
420
      255
176
     1
290
     0
176
     1
 90
       50
176
     1
 90
       50
176
     1
 90
       50
176
     1
290
     0
176
     1
 90
       50
176
     1
 62
   256
176
     0
 40
1.0
176
     0
 90
        2
176
     1
  1
strokes_ogs.tif
176
     1
290
     0
176
     1
 40
1.0
176
     1
 40
1.0
176
     1
  0
VISUALSTYLE
  5
1010033
102
{ACAD_REACTORS
330
101001D
102
}
330
101001D
100
AcDbVisualStyle
  2
JitterOff
 70
    20
177
     3
291
     1
 70
    58
 90
        2
176
     0
 90
        2
176
     0
 90
        0
176
     0
 90
        0
176
     0
 40
0.6
176
     0
 40
30.0
176
     0
 62
     7
420
 16777215
176
     0
 90
        1
176
     0
 90
        4
176
     0
 62
     7
176
     0
 62
   257
176
     0
 90
        1
176
     0
 90
        1
176
     0
 40
1.0
176
     0
 90
       10
176
     2
 62
     7
176
     0
 40
1.0
176
     0
 90
        1
176
     0
 90
        6
176
     0
 90
        2
176
     0
 62
     7
176
     0
 90
        5
176
     0
 90
        0
176
     0
 90
        0
176
     0
290
     0
176
     0
 90
        1
176
     0
 40
0.0
176
     0
 90
        0
176
     0
290
     0
176
     1
290
     1
176
     1
290
     1
176
     1
290
     0
176
     1
290
     0
176
     1
290
     0
176
     1
290
     0
176
     1
290
     0
176
     1
290
     0
176
     1
 90
       50
176
     0
 40
0.0
176
     0
 40
1.0
176
     0
 90
        0
176
     0
 62
    18
176
     0
 90
       50
176
     0
 90
        3
176
     0
 62
     5
420
      255
176
     0
290
     0
176
     1
 90
       50
176
     0
 90
       50
176
     0
 90
       50
176
     0
290
     0
176
     1
 90
       50
176
     0
 62
   256
176
     0
 40
1.0
176
     0
 90
        2
176
     0
  1
strokes_ogs.tif
176
     0
290
     0
176
     1
 40
1.0
176
     0
 40
1.0
176
     0
  0
VISUALSTYLE
  5
101002B
102
{ACAD_REACTORS
330
101001D
102
}
330
101001D
100
AcDbVisualStyle
  2
Linepattern
 70
    14
177
     3
291
     1
 70
    58
 90
        2
176
     1
 90
        2
176
     1
 90
        0
176
     1
 90
        0
176
     1
 40
0.6
176
     1
 40
30.0
176
     1
 62
     7
420
 16777215
176
     1
 90
        1
176
     1
 90
        4
176
     1
 62
     7
176
     1
 62
   257
176
     1
 90
        7
176
     1
 90
        7
176
     1
 40
1.0
176
     1
 90
        8
176
     1
 62
     7
176
     1
 40
1.0
176
     1
 90
        1
176
     1
 90
        6
176
     1
 90
        2
176
     1
 62
     7
176
     1
 90
        5
176
     1
 90
        0
176
     1
 90
        0
176
     1
290
     0
176
     1
 90
        1
176
     1
 40
0.0
176
     1
 90
        0
176
     1
290
     0
176
     1
290
     1
176
     1
290
     1
176
     1
290
     0
176
     1
290
     0
176
     1
290
     0
176
     1
290
     0
176
     1
290
     0
176
     1
290
     0
176
     1
 90
       50
176
     1
 40
0.0
176
     1
 40
1.0
176
     1
 90
        0
176
     1
 62
    18
176
     1
 90
       50
176
     1
 90
        3
176
     1
 62
     5
420
      255
176
     1
290
     0
176
     1
 90
       50
176
     1
 90
       50
176
     1
 90
       50
176
     1
290
     0
176
     1
 90
       50
176
     1
 62
   256
176
     0
 40
1.0
176
     0
 90
        2
176
     1
  1
strokes_ogs.tif
176
     1
290
     0
176
     1
 40
1.0
176
     1
 40
1.0
176
     1
  0
VISUALSTYLE
  5
1010034
102
{ACAD_REACTORS
330
101001D
102
}
330
101001D
100
AcDbVisualStyle
  2
OverhangOff
 70
    21
177
     3
291
     1
 70
    58
 90
        2
176
     0
 90
        2
176
     0
 90
        0
176
     0
 90
        0
176
     0
 40
0.6
176
     0
 40
30.0
176
     0
 62
     7
420
 16777215
176
     0
 90
        1
176
     0
 90
        4
176
     0
 62
     7
176
     0
 62
   257
176
     0
 90
        1
176
     0
 90
        1
176
     0
 40
1.0
176
     0
 90
        9
176
     2
 62
     7
176
     0
 40
1.0
176
     0
 90
        1
176
     0
 90
        6
176
     0
 90
        2
176
     0
 62
     7
176
     0
 90
        5
176
     0
 90
        0
176
     0
 90
        0
176
     0
290
     0
176
     0
 90
        1
176
     0
 40
0.0
176
     0
 90
        0
176
     0
290
     0
176
     1
290
     1
176
     1
290
     1
176
     1
290
     0
176
     1
290
     0
176
     1
290
     0
176
     1
290
     0
176
     1
290
     0
176
     1
290
     0
176
     1
 90
       50
176
     0
 40
0.0
176
     0
 40
1.0
176
     0
 90
        0
176
     0
 62
    18
176
     0
 90
       50
176
     0
 90
        3
176
     0
 62
     5
420
      255
176
     0
290
     0
176
     1
 90
       50
176
     0
 90
       50
176
     0
 90
       50
176
     0
290
     0
176
     1
 90
       50
176
     0
 62
   256
176
     0
 40
1.0
176
     0
 90
        2
176
     0
  1
strokes_ogs.tif
176
     0
290
     0
176
     1
 40
1.0
176
     0
 40
1.0
176
     0
  0
VISUALSTYLE
  5
1010027
102
{ACAD_REACTORS
330
101001D
102
}
330
101001D
100
AcDbVisualStyle
  2
Realistic
 70
     8
177
     3
291
     0
 70
    58
 90
        2
176
     1
 90
        3
176
     1
 90
        0
176
     1
 90
        2
176
     1
 40
0.6
176
     1
 40
30.0
176
     1
 62
     7
420
 16777215
176
     1
 90
        0
176
     1
 90
        0
176
     1
 62
     7
176
     1
 62
   257
176
     1
 90
        1
176
     1
 90
        1
176
     1
 40
1.0
176
     1
 90
        8
176
     1
 62
   257
176
     1
 40
1.0
176
     1
 90
        1
176
     1
 90
        6
176
     1
 90
        2
176
     1
 62
     7
176
     1
 90
        3
176
     1
 90
        0
176
     1
 90
        0
176
     1
290
     0
176
     1
 90
       13
176
     1
 40
0.0
176
     1
 90
        0
176
     1
290
     0
176
     1
290
     1
176
     1
290
     1
176
     1
290
     0
176
     1
290
     0
176
     1
290
     0
176
     1
290
     0
176
     1
290
     0
176
     1
290
     0
176
     1
 90
       50
176
     1
 40
0.0
176
     1
 40
1.0
176
     1
 90
        0
176
     1
 62
    18
176
     1
 90
       50
176
     1
 90
        3
176
     1
 62
     5
420
      255
176
     1
290
     0
176
     1
 90
       50
176
     1
 90
       50
176
     1
 90
       50
176
     1
290
     0
176
     1
 90
       50
176
     1
 62
   256
176
     0
 40
1.0
176
     0
 90
        2
176
     1
  1
strokes_ogs.tif
176
     1
290
     0
176
     1
 40
1.0
176
     1
 40
1.0
176
     1
  0
VISUALSTYLE
  5
1010032
102
{ACAD_REACTORS
330
101001D
102
}
330
101001D
100
AcDbVisualStyle
  2
Shaded
 70
    27
177
     3
291
     0
 70
    58
 90
        2
176
     1
 90
        2
176
     1
 90
        1
176
     1
 90
        2
176
     1
 40
0.6
176
     1
 40
30.0
176
     1
 62
     7
420
 16777215
176
     1
 90
        0
176
     1
 90
        4
176
     1
 62
     7
176
     1
 62
   257
176
     1
 90
        1
176
     1
 90
        1
176
     1
 40
1.0
176
     1
 90
        8
176
     1
 62
   257
176
     1
 40
1.0
176
     1
 90
        1
176
     1
 90
        6
176
     1
 90
        2
176
     1
 62
     8
420
  7895160
176
     1
 90
        3
176
     1
 90
        0
176
     1
 90
        0
176
     1
290
     0
176
     1
 90
        5
176
     1
 40
0.0
176
     1
 90
        0
176
     1
290
     0
176
     1
290
     1
176
     1
290
     1
176
     1
290
     0
176
     1
290
     0
176
     1
290
     0
176
     1
290
     0
176
     1
290
     0
176
     1
290
     0
176
     1
 90
       50
176
     1
 40
0.0
176
     1
 40
1.0
176
     1
 90
        0
176
     1
 62
    18
176
     1
 90
       50
176
     1
 90
        3
176
     1
 62
     5
420
      255
176
     1
290
     0
176
     1
 90
       50
176
     1
 90
       50
176
     1
 90
       50
176
     1
290
     0
176
     1
 90
       50
176
     1
 62
   256
176
     0
 40
1.0
176
     0
 90
        2
176
     1
  1
strokes_ogs.tif
176
     1
290
     0
176
     1
 40
1.0
176
     1
 40
1.0
176
     1
  0
VISUALSTYLE
  5
1010031
102
{ACAD_REACTORS
330
101001D
102
}
330
101001D
100
AcDbVisualStyle
  2
Shaded with edges
 70
    26
177
     3
291
     0
 70
    58
 90
        2
176
     1
 90
        2
176
     1
 90
        1
176
     1
 90
        2
176
     1
 40
0.6
176
     1
 40
30.0
176
     1
 62
     7
420
 16777215
176
     1
 90
        1
176
     1
 90
        2
176
     1
 62
     7
176
     1
 62
   257
176
     1
 90
        2
176
     1
 90
        1
176
     1
 40
1.0
176
     1
 90
        8
176
     1
 62
   257
176
     1
 40
1.0
176
     1
 90
        1
176
     1
 90
        6
176
     1
 90
        2
176
     1
 62
     7
176
     1
 90
        3
176
     1
 90
        0
176
     1
 90
        0
176
     1
290
     0
176
     1
 90
        5
176
     1
 40
0.0
176
     1
 90
        0
176
     1
290
     0
176
     1
290
     1
176
     1
290
     1
176
     1
290
     0
176
     1
290
     0
176
     1
290
     0
176
     1
290
     0
176
     1
290
     0
176
     1
290
     0
176
     1
 90
       50
176
     1
 40
0.0
176
     1
 40
1.0
176
     1
 90
        0
176
     1
 62
    18
176
     1
 90
       50
176
     1
 90
        3
176
     1
 62
     5
420
      255
176
     1
290
     0
176
     1
 90
       50
176
     1
 90
       50
176
     1
 90
       50
176
     1
290
     0
176
     1
 90
       50
176
     1
 62
   256
176
     0
 40
1.0
176
     0
 90
        2
176
     1
  1
strokes_ogs.tif
176
     1
290
     0
176
     1
 40
1.0
176
     1
 40
1.0
176
     1
  0
VISUALSTYLE
  5
101002E
102
{ACAD_REACTORS
330
101001D
102
}
330
101001D
100
AcDbVisualStyle
  2
Shades of Gray
 70
    23
177
     3
291
     0
 70
    58
 90
        2
176
     1
 90
        2
176
     1
 90
        3
176
     1
 90
        0
176
     1
 40
0.6
176
     1
 40
30.0
176
     1
 62
     7
420
 16777215
176
     1
 90
        2
176
     1
 90
        2
176
     1
 62
     7
176
     1
 62
     7
176
     1
 90
        1
176
     1
 90
        1
176
     1
 40
40.0
176
     1
 90
        8
176
     1
 62
     7
176
     1
 40
1.0
176
     1
 90
        1
176
     1
 90
        6
176
     1
 90
        2
176
     1
 62
     7
176
     1
 90
        3
176
     1
 90
        0
176
     1
 90
        0
176
     1
290
     0
176
     1
 90
        1
176
     1
 40
0.0
176
     1
 90
        0
176
     1
290
     0
176
     1
290
     1
176
     1
290
     1
176
     1
290
     0
176
     1
290
     0
176
     1
290
     0
176
     1
290
     0
176
     1
290
     0
176
     1
290
     0
176
     1
 90
       50
176
     1
 40
0.0
176
     1
 40
1.0
176
     1
 90
        0
176
     1
 62
    18
176
     1
 90
       50
176
     1
 90
        3
176
     1
 62
     5
420
      255
176
     1
290
     0
176
     1
 90
       50
176
     1
 90
       50
176
     1
 90
       50
176
     1
290
     0
176
     1
 90
       50
176
     1
 62
   256
176
     0
 40
1.0
176
     0
 90
        2
176
     1
  1
strokes_ogs.tif
176
     1
290
     0
176
     1
 40
1.0
176
     1
 40
1.0
176
     1
  0
VISUALSTYLE
  5
101002F
102
{ACAD_REACTORS
330
101001D
102
}
330
101001D
100
AcDbVisualStyle
  2
Sketchy
 70
    24
177
     3
291
     0
 70
    58
 90
        1
176
     1
 90
        2
176
     1
 90
        2
176
     1
 90
        0
176
     1
 40
0.6
176
     1
 40
30.0
176
     1
 62
     7
420
 16777215
176
     1
 90
        2
176
     1
 90
        2
176
     1
 62
     7
176
     1
 62
     7
176
     1
 90
        1
176
     1
 90
        1
176
     1
 40
40.0
176
     1
 90
       11
176
     1
 62
     7
176
     1
 40
1.0
176
     1
 90
        1
176
     1
 90
        6
176
     1
 90
        2
176
     1
 62
     7
176
     1
 90
        6
176
     1
 90
        0
176
     1
 90
        0
176
     1
290
     0
176
     1
 90
        1
176
     1
 40
0.0
176
     1
 90
        0
176
     1
290
     0
176
     1
290
     1
176
     1
290
     1
176
     1
290
     0
176
     1
290
     0
176
     1
290
     0
176
     1
290
     0
176
     1
290
     0
176
     1
290
     0
176
     1
 90
       50
176
     1
 40
0.0
176
     1
 40
1.0
176
     1
 90
        0
176
     1
 62
    18
176
     1
 90
       50
176
     1
 90
        3
176
     1
 62
     5
420
      255
176
     1
290
     0
176
     1
 90
       50
176
     1
 90
       50
176
     1
 90
       50
176
     1
290
     0
176
     1
 90
       50
176
     1
 62
   256
176
     0
 40
1.0
176
     0
 90
        2
176
     1
  1
strokes_ogs.tif
176
     1
290
     0
176
     1
 40
1.0
176
     1
 40
1.0
176
     1
  0
VISUALSTYLE
  5
101002A
102
{ACAD_REACTORS
330
101001D
102
}
330
101001D
100
AcDbVisualStyle
  2
Thicken
 70
    13
177
     3
291
     1
 70
    58
 90
        2
176
     1
 90
        2
176
     1
 90
        0
176
     1
 90
        0
176
     1
 40
0.6
176
     1
 40
30.0
176
     1
 62
     7
420
 16777215
176
     1
 90
        1
176
     1
 90
        4
176
     1
 62
     7
176
     1
 62
   257
176
     1
 90
        1
176
     1
 90
        1
176
     1
 40
1.0
176
     1
 90
       12
176
     1
 62
     7
176
     1
 40
1.0
176
     1
 90
        1
176
     1
 90
        6
176
     1
 90
        2
176
     1
 62
     7
176
     1
 90
        5
176
     1
 90
        0
176
     1
 90
        0
176
     1
290
     0
176
     1
 90
        1
176
     1
 40
0.0
176
     1
 90
        0
176
     1
290
     0
176
     1
290
     1
176
     1
290
     1
176
     1
290
     0
176
     1
290
     0
176
     1
290
     0
176
     1
290
     0
176
     1
290
     0
176
     1
290
     0
176
     1
 90
       50
176
     1
 40
0.0
176
     1
 40
1.0
176
     1
 90
        0
176
     1
 62
    18
176
     1
 90
       50
176
     1
 90
        3
176
     1
 62
     5
420
      255
176
     1
290
     0
176
     1
 90
       50
176
     1
 90
       50
176
     1
 90
       50
176
     1
290
     0
176
     1
 90
       50
176
     1
 62
   256
176
     0
 40
1.0
176
     0
 90
        2
176
     1
  1
strokes_ogs.tif
176
     1
290
     0
176
     1
 40
1.0
176
     1
 40
1.0
176
     1
  0
VISUALSTYLE
  5
1010024
102
{ACAD_REACTORS
330
101001D
102
}
330
101001D
100
AcDbVisualStyle
  2
Wireframe
 70
     5
177
     3
291
     0
 70
    58
 90
        0
176
     1
 90
        2
176
     1
 90
        0
176
     1
 90
        0
176
     1
 40
0.6
176
     1
 40
30.0
176
     1
 62
     7
420
 16777215
176
     1
 90
        1
176
     1
 90
        4
176
     1
 62
     7
176
     1
 62
   257
176
     1
 90
        1
176
     1
 90
        1
176
     1
 40
1.0
176
     1
 90
        0
176
     1
 62
   257
176
     1
 40
1.0
176
     1
 90
        1
176
     1
 90
        6
176
     1
 90
        2
176
     1
 62
     7
176
     1
 90
        3
176
     1
 90
        0
176
     1
 90
        0
176
     1
290
     0
176
     1
 90
        1
176
     1
 40
0.0
176
     1
 90
        0
176
     1
290
     0
176
     1
290
     1
176
     1
290
     1
176
     1
290
     0
176
     1
290
     0
176
     1
290
     0
176
     1
290
     0
176
     1
290
     0
176
     1
290
     0
176
     1
 90
       50
176
     1
 40
0.0
176
     1
 40
1.0
176
     1
 90
        0
176
     1
 62
    18
176
     1
 90
       50
176
     1
 90
        3
176
     1
 62
     5
420
      255
176
     1
290
     0
176
     1
 90
       50
176
     1
 90
       50
176
     1
 90
       50
176
     1
290
     0
176
     1
 90
       50
176
     1
 62
   256
176
     0
 40
1.0
176
     0
 90
        2
176
     1
  1
strokes_ogs.tif
176
     1
290
     0
176
     1
 40
1.0
176
     1
 40
1.0
176
     1
  0
VISUALSTYLE
  5
1010030
102
{ACAD_REACTORS
330
101001D
102
}
330
101001D
100
AcDbVisualStyle
  2
X-Ray
 70
    25
177
     3
291
     0
 70
    58
 90
        2
176
     1
 90
        2
176
     1
 90
        1
176
     1
 90
        1
176
     1
 40
0.5
176
     1
 40
30.0
176
     1
 62
     7
420
 16777215
176
     1
 90
        1
176
     1
 90
        0
176
     1
 62
     7
176
     1
 62
   257
176
     1
 90
        1
176
     1
 90
        1
176
     1
 40
1.0
176
     1
 90
        8
176
     1
 62
     7
176
     1
 40
1.0
176
     1
 90
        1
176
     1
 90
        6
176
     1
 90
        2
176
     1
 62
     7
176
     1
 90
        3
176
     1
 90
        0
176
     1
 90
        0
176
     1
290
     0
176
     1
 90
       13
176
     1
 40
0.0
176
     1
 90
        0
176
     1
290
     0
176
     1
290
     1
176
     1
290
     1
176
     1
290
     0
176
     1
290
     0
176
     1
290
     0
176
     1
290
     0
176
     1
290
     0
176
     1
290
     0
176
     1
 90
       50
176
     1
 40
0.0
176
     1
 40
1.0
176
     1
 90
        0
176
     1
 62
    18
176
     1
 90
       50
176
     1
 90
        3
176
     1
 62
     5
420
      255
176
     1
290
     0
176
     1
 90
       50
176
     1
 90
       50
176
     1
 90
       50
176
     1
290
     0
176
     1
 90
       50
176
     1
 62
   256
176
     0
 40
1.0
176
     0
 90
        2
176
     1
  1
strokes_ogs.tif
176
     1
290
     0
176
     1
 40
1.0
176
     1
 40
1.0
176
     1
  0
DICTIONARYVAR
  5
10100DB
102
{ACAD_REACTORS
330
10100D5
102
}
330
10100D5
100
DictionaryVariables
280
     0
  1
1:1
  0
DICTIONARYVAR
  5
10100D7
102
{ACAD_REACTORS
330
10100D5
102
}
330
10100D5
100
DictionaryVariables
280
     0
  1
STANDARD
  0
DICTIONARYVAR
  5
10100D6
102
{ACAD_REACTORS
330
10100D5
102
}
330
10100D5
100
DictionaryVariables
280
     0
  1
STANDARD
  0
DICTIONARYVAR
  5
10100D8
102
{ACAD_REACTORS
330
10100D5
102
}
330
10100D5
100
DictionaryVariables
280
     0
  1
Imperial24
  0
DICTIONARYVAR
  5
10100D9
102
{ACAD_REACTORS
330
10100D5
102
}
330
10100D5
100
DictionaryVariables
280
     0
  1
Imperial24
  0
DICTIONARYVAR
  5
10100DD
102
{ACAD_REACTORS
330
10100D5
102
}
330
10100D5
100
DictionaryVariables
280
     0
  1
1
  0
DICTIONARYVAR
  5
10100DE
102
{ACAD_REACTORS
330
10100D5
102
}
330
10100D5
100
DictionaryVariables
280
     0
  1
15
  0
DICTIONARYVAR
  5
10100DC
102
{ACAD_REACTORS
330
10100D5
102
}
330
10100D5
100
DictionaryVariables
280
     0
  1
0
  0
DICTIONARYVAR
  5
10100DA
102
{ACAD_REACTORS
330
10100D5
102
}
330
10100D5
100
DictionaryVariables
280
     0
  1
0
  0
DICTIONARY
  5
1010161
330
1010051
100
AcDbDictionary
280
     1
281
     1
  3
ACAD_XREC_ROUNDTRIP
360
10103BC
  0
DICTIONARY
  5
101000E
330
101000D
100
AcDbDictionary
280
     1
281
     1
  3
BUMPTILE
360
1010010
  3
DIFFUSETILE
360
101000F
  3
OPACITYTILE
360
1010013
  3
REFLECTIONTILE
360
1010012
  3
REFRACTIONTILE
360
1010014
  3
SPECULARTILE
360
1010011
  0
DICTIONARY
  5
1010006
330
1010005
100
AcDbDictionary
280
     1
281
     1
  3
BUMPTILE
360
1010008
  3
DIFFUSETILE
360
1010007
  3
OPACITYTILE
360
101000B
  3
REFLECTIONTILE
360
101000A
  3
REFRACTIONTILE
360
101000C
  3
SPECULARTILE
360
1010009
  0
DICTIONARY
  5
1010016
330
1010015
100
AcDbDictionary
280
     1
281
     1
  3
BUMPTILE
360
1010018
  3
DIFFUSETILE
360
1010017
  3
OPACITYTILE
360
101001B
  3
REFLECTIONTILE
360
101001A
  3
REFRACTIONTILE
360
101001C
  3
SPECULARTILE
360
1010019
  0
DICTIONARY
  5
101015F
330
101004F
100
AcDbDictionary
280
     1
281
     1
  3
ACAD_XREC_ROUNDTRIP
360
10103BB
  0
DICTIONARY
  5
101015D
330
1010038
100
AcDbDictionary
280
     1
281
     1
  3
ACAD_ROUNDTRIP_2008_TABLESTYLE_CELLSTYLEMAP
360
10103BA
  0
XRECORD
  5
10103BC
102
{ACAD_REACTORS
330
1010161
102
}
330
1010161
100
AcDbXrecord
280
     1
102
DISPLAYNAME
  1
Imperial24
102
FLAGS
 90
        0
  0
XRECORD
  5
1010010
102
{ACAD_REACTORS
330
101000E
102
}
330
101000E
100
AcDbXrecord
280
     1
270
     1
271
     1
  0
XRECORD
  5
101000F
102
{ACAD_REACTORS
330
101000E
102
}
330
101000E
100
AcDbXrecord
280
     1
270
     1
271
     1
  0
XRECORD
  5
1010013
102
{ACAD_REACTORS
330
101000E
102
}
330
101000E
100
AcDbXrecord
280
     1
270
     1
271
     1
  0
XRECORD
  5
1010012
102
{ACAD_REACTORS
330
101000E
102
}
330
101000E
100
AcDbXrecord
280
     1
270
     1
271
     1
  0
XRECORD
  5
1010014
102
{ACAD_REACTORS
330
101000E
102
}
330
101000E
100
AcDbXrecord
280
     1
270
     1
271
     1
  0
XRECORD
  5
1010011
102
{ACAD_REACTORS
330
101000E
102
}
330
101000E
100
AcDbXrecord
280
     1
270
     1
271
     1
  0
XRECORD
  5
1010008
102
{ACAD_REACTORS
330
1010006
102
}
330
1010006
100
AcDbXrecord
280
     1
270
     1
271
     1
  0
XRECORD
  5
1010007
102
{ACAD_REACTORS
330
1010006
102
}
330
1010006
100
AcDbXrecord
280
     1
270
     1
271
     1
  0
XRECORD
  5
101000B
102
{ACAD_REACTORS
330
1010006
102
}
330
1010006
100
AcDbXrecord
280
     1
270
     1
271
     1
  0
XRECORD
  5
101000A
102
{ACAD_REACTORS
330
1010006
102
}
330
1010006
100
AcDbXrecord
280
     1
270
     1
271
     1
  0
XRECORD
  5
101000C
102
{ACAD_REACTORS
330
1010006
102
}
330
1010006
100
AcDbXrecord
280
     1
270
     1
271
     1
  0
XRECORD
  5
1010009
102
{ACAD_REACTORS
330
1010006
102
}
330
1010006
100
AcDbXrecord
280
     1
270
     1
271
     1
  0
XRECORD
  5
1010018
102
{ACAD_REACTORS
330
1010016
102
}
330
1010016
100
AcDbXrecord
280
     1
270
     1
271
     1
  0
XRECORD
  5
1010017
102
{ACAD_REACTORS
330
1010016
102
}
330
1010016
100
AcDbXrecord
280
     1
270
     1
271
     1
  0
XRECORD
  5
101001B
102
{ACAD_REACTORS
330
1010016
102
}
330
1010016
100
AcDbXrecord
280
     1
270
     1
271
     1
  0
XRECORD
  5
101001A
102
{ACAD_REACTORS
330
1010016
102
}
330
1010016
100
AcDbXrecord
280
     1
270
     1
271
     1
  0
XRECORD
  5
101001C
102
{ACAD_REACTORS
330
1010016
102
}
330
1010016
100
AcDbXrecord
280
     1
270
     1
271
     1
  0
XRECORD
  5
1010019
102
{ACAD_REACTORS
330
1010016
102
}
330
1010016
100
AcDbXrecord
280
     1
270
     1
271
     1
  0
XRECORD
  5
10103BB
102
{ACAD_REACTORS
330
101015F
102
}
330
101015F
100
AcDbXrecord
280
     1
102
DISPLAYNAME
  1
Imperial24
102
FLAGS
 90
        0
  0
CELLSTYLEMAP
  5
10103BA
102
{ACAD_REACTORS
330
101015D
102
}
330
101015D
100
AcDbCellStyleMap
 90
        3
300
CELLSTYLE
  1
TABLEFORMAT_BEGIN
 90
        5
170
     1
 91
        0
 92
    32768
 62
   257
 93
        1
300
CONTENTFORMAT
  1
CONTENTFORMAT_BEGIN
 90
        0
 91
        0
 92
      512
 93
        0
300

 40
0.0
140
1.0
 94
        5
 62
     0
340
11
144
0.25
309
CONTENTFORMAT_END
171
     1
301
MARGIN
  1
CELLMARGIN_BEGIN
 40
0.06
 40
0.06
 40
0.06
 40
0.06
 40
0.18
 40
0.18
309
CELLMARGIN_END
 94
        6
 95
        1
302
GRIDFORMAT
  1
GRIDFORMAT_BEGIN
 90
        0
 91
        1
 62
     0
 92
       -2
340
0
 93
        0
 40
0.045
309
GRIDFORMAT_END
 95
        2
302
GRIDFORMAT
  1
GRIDFORMAT_BEGIN
 90
        0
 91
        1
 62
     0
 92
       -2
340
0
 93
        0
 40
0.045
309
GRIDFORMAT_END
 95
        4
302
GRIDFORMAT
  1
GRIDFORMAT_BEGIN
 90
        0
 91
        1
 62
     0
 92
       -2
340
0
 93
        0
 40
0.045
309
GRIDFORMAT_END
 95
        8
302
GRIDFORMAT
  1
GRIDFORMAT_BEGIN
 90
        0
 91
        1
 62
     0
 92
       -2
340
0
 93
        0
 40
0.045
309
GRIDFORMAT_END
 95
       16
302
GRIDFORMAT
  1
GRIDFORMAT_BEGIN
 90
        0
 91
        1
 62
     0
 92
       -2
340
0
 93
        0
 40
0.045
309
GRIDFORMAT_END
 95
       32
302
GRIDFORMAT
  1
GRIDFORMAT_BEGIN
 90
        0
 91
        1
 62
     0
 92
       -2
340
0
 93
        0
 40
0.045
309
GRIDFORMAT_END
309
TABLEFORMAT_END
  1
CELLSTYLE_BEGIN
 90
        1
 91
        1
300
_TITLE
309
CELLSTYLE_END
300
CELLSTYLE
  1
TABLEFORMAT_BEGIN
 90
        5
170
     1
 91
        0
 92
        0
 62
   257
 93
        1
300
CONTENTFORMAT
  1
CONTENTFORMAT_BEGIN
 90
        0
 91
        0
 92
      512
 93
        0
300

 40
0.0
140
1.0
 94
        5
 62
     0
340
11
144
0.18
309
CONTENTFORMAT_END
171
     1
301
MARGIN
  1
CELLMARGIN_BEGIN
 40
0.06
 40
0.06
 40
0.06
 40
0.06
 40
0.18
 40
0.18
309
CELLMARGIN_END
 94
        6
 95
        1
302
GRIDFORMAT
  1
GRIDFORMAT_BEGIN
 90
        0
 91
        1
 62
     0
 92
       -2
340
0
 93
        0
 40
0.045
309
GRIDFORMAT_END
 95
        2
302
GRIDFORMAT
  1
GRIDFORMAT_BEGIN
 90
        0
 91
        1
 62
     0
 92
       -2
340
0
 93
        0
 40
0.045
309
GRIDFORMAT_END
 95
        4
302
GRIDFORMAT
  1
GRIDFORMAT_BEGIN
 90
        0
 91
        1
 62
     0
 92
       -2
340
0
 93
        0
 40
0.045
309
GRIDFORMAT_END
 95
        8
302
GRIDFORMAT
  1
GRIDFORMAT_BEGIN
 90
        0
 91
        1
 62
     0
 92
       -2
340
0
 93
        0
 40
0.045
309
GRIDFORMAT_END
 95
       16
302
GRIDFORMAT
  1
GRIDFORMAT_BEGIN
 90
        0
 91
        1
 62
     0
 92
       -2
340
0
 93
        0
 40
0.045
309
GRIDFORMAT_END
 95
       32
302
GRIDFORMAT
  1
GRIDFORMAT_BEGIN
 90
        0
 91
        1
 62
     0
 92
       -2
340
0
 93
        0
 40
0.045
309
GRIDFORMAT_END
309
TABLEFORMAT_END
  1
CELLSTYLE_BEGIN
 90
        2
 91
        1
300
_HEADER
309
CELLSTYLE_END
300
CELLSTYLE
  1
TABLEFORMAT_BEGIN
 90
        5
170
     1
 91
        0
 92
        0
 62
   257
 93
        1
300
CONTENTFORMAT
  1
CONTENTFORMAT_BEGIN
 90
        0
 91
        0
 92
      512
 93
        0
300

 40
0.0
140
1.0
 94
        2
 62
     0
340
11
144
0.18
309
CONTENTFORMAT_END
171
     1
301
MARGIN
  1
CELLMARGIN_BEGIN
 40
0.06
 40
0.06
 40
0.06
 40
0.06
 40
0.18
 40
0.18
309
CELLMARGIN_END
 94
        6
 95
        1
302
GRIDFORMAT
  1
GRIDFORMAT_BEGIN
 90
        0
 91
        1
 62
     0
 92
       -2
340
0
 93
        0
 40
0.045
309
GRIDFORMAT_END
 95
        2
302
GRIDFORMAT
  1
GRIDFORMAT_BEGIN
 90
        0
 91
        1
 62
     0
 92
       -2
340
0
 93
        0
 40
0.045
309
GRIDFORMAT_END
 95
        4
302
GRIDFORMAT
  1
GRIDFORMAT_BEGIN
 90
        0
 91
        1
 62
     0
 92
       -2
340
0
 93
        0
 40
0.045
309
GRIDFORMAT_END
 95
        8
302
GRIDFORMAT
  1
GRIDFORMAT_BEGIN
 90
        0
 91
        1
 62
     0
 92
       -2
340
0
 93
        0
 40
0.045
309
GRIDFORMAT_END
 95
       16
302
GRIDFORMAT
  1
GRIDFORMAT_BEGIN
 90
        0
 91
        1
 62
     0
 92
       -2
340
0
 93
        0
 40
0.045
309
GRIDFORMAT_END
 95
       32
302
GRIDFORMAT
  1
GRIDFORMAT_BEGIN
 90
        0
 91
        1
 62
     0
 92
       -2
340
0
 93
        0
 40
0.045
309
GRIDFORMAT_END
309
TABLEFORMAT_END
  1
CELLSTYLE_BEGIN
 90
        3
 91
        2
300
_DATA
309
CELLSTYLE_END
  0
ENDSEC
  0
SECTION
  2
ACDSDATA
 70
     2
 71
     8
  0
ACDSSCHEMA
 90
        0
  1
AcDb_Thumbnail_Schema
  2
AcDbDs::ID
280
    10
 91
        8
  2
Thumbnail_Data
280
    15
 91
        0
101
ACDSRECORD
 95
        0
 90
        1
  2
AcDbDs::TreatedAsObjectData
280
     1
291
     1
101
ACDSRECORD
 95
        0
 90
        2
  2
AcDbDs::Legacy
280
     1
291
     1
101
ACDSRECORD
  1
AcDbDs::ID
 90
        3
  2
AcDs:Indexable
280
     1
291
     1
101
ACDSRECORD
  1
AcDbDs::ID
 90
        4
  2
AcDbDs::HandleAttribute
280
     7
282
     1
  0
ACDSSCHEMA
 90
        1
  1
AcDbDs::TreatedAsObjectDataSchema
  2
AcDbDs::TreatedAsObjectData
280
     1
 91
        0
  0
ACDSSCHEMA
 90
        2
  1
AcDbDs::LegacySchema
  2
AcDbDs::Legacy
280
     1
 91
        0
  0
ACDSSCHEMA
 90
        3
  1
AcDbDs::IndexedPropertySchema
  2
AcDs:Indexable
280
     1
 91
        0
  0
ACDSSCHEMA
 90
        4
  1
AcDbDs::HandleAttributeSchema
  2
AcDbDs::HandleAttribute
280
     7
 91
        1
284
     1
  0
ACDSRECORD
 90
        0
  2
AcDbDs::ID
280
    10
320
1010055
  2
Thumbnail_Data
280
    15
 94
     1712
310
89504E470D0A1A0A0000000D4948445200000100000000790803000000E1F60FE900000300504C5445212830000000C8C8C80000000000000000000000000000000000000000000000000000330000660000990000CC0000FF0033000033330033660033990033CC0033FF0066000066330066660066990066CC0066FF0099
310
000099330099660099990099CC0099FF00CC0000CC3300CC6600CC9900CCCC00CCFF00FF0000FF3300FF6600FF9900FFCC00FFFF3300003300333300663300993300CC3300FF3333003333333333663333993333CC3333FF3366003366333366663366993366CC3366FF3399003399333399663399993399CC3399FF33CC00
310
33CC3333CC6633CC9933CCCC33CCFF33FF0033FF3333FF6633FF9933FFCC33FFFF6600006600336600666600996600CC6600FF6633006633336633666633996633CC6633FF6666006666336666666666996666CC6666FF6699006699336699666699996699CC6699FF66CC0066CC3366CC6666CC9966CCCC66CCFF66FF0066
310
FF3366FF6666FF9966FFCC66FFFF9900009900339900669900999900CC9900FF9933009933339933669933999933CC9933FF9966009966339966669966999966CC9966FF9999009999339999669999999999CC9999FF99CC0099CC3399CC6699CC9999CCCC99CCFF99FF0099FF3399FF6699FF9999FFCC99FFFFCC0000CC00
310
33CC0066CC0099CC00CCCC00FFCC3300CC3333CC3366CC3399CC33CCCC33FFCC6600CC6633CC6666CC6699CC66CCCC66FFCC9900CC9933CC9966CC9999CC99CCCC99FFCCCC00CCCC33CCCC66CCCC99CCCCCCCCCCFFCCFF00CCFF33CCFF66CCFF99CCFFCCCCFFFFFF0000FF0033FF0066FF0099FF00CCFF00FFFF3300FF3333
310
FF3366FF3399FF33CCFF33FFFF6600FF6633FF6666FF6699FF66CCFF66FFFF9900FF9933FF9966FF9999FF99CCFF99FFFFCC00FFCC33FFCC66FFCC99FFCCCCFFCCFFFFFF00FFFF33FFFF66FFFF99FFFFCCFFFFFF0000000D0D0D1A1A1A2828283535354343435050505D5D5D6B6B6B787878868686939393A1A1A1AEAEAEBB
310
BBBBC9C9C9D6D6D6E4E4E4F1F1F1FFFFFF000000000000000000000000000000000000000000000000000000000000B21171F60000020F4944415478DAED9C4D72C2300C4675035DA31BDF7FC7C63BCEC009728A26FE21761A68169DB6A3EF3D660A0D6CFC90645B18CC00000000007E83E53A08082AE0A75F880004200001
310
084000021080000420000108400002108080FFCDC775A246807F87D5BB25B48017CFCE22F4044CE32702A8013105BC1EB74DEF7DD875805B4A8F4E5AAFA4F566C3A52412018F87BD0F06B91418E23F7604ECD1BE65404D8021038A805541DC1A7098DED271220C1F0117B0D01170BFBF7FC5FDEEF2118080D0024801BFB21B
310
08BC14CE9E7399E9CBAC97B701E73AF99B480DA8F37D9DF2EBBB5D1E3DA5E4ED96C36E876B04E466618F00EF06DAC08337444ED3BE2E02A347C0E2E6A79D206B4F08B4C44E2E4FD16FA11B22CB6968B7D10FAD404D017B02041770BBDD9E57CAC3D209ED2ACA5F3901E6A9507A24C91553405C80560AC817C177D3606B0C0B
310
A6C0BE210CDD137C29C0DAC6B0AD8A1523606A0B4B0BD0AC01E6430D948C80F15884E24268B833975C095A5902F77F45F7029B8415222076040C7BE1BE233ED480D045D0FC44C0B806883E0D9E08B0FEB180EDEDF1C8024E8B801F62404F406B8A34032E2DC08505F4A3B2CA29500B82780AE846C07326109E065DB306D81C
310
022E1D01265C04F7A3C2084080B080F09BA12FE703D404C8474021D9F07D91F92B431202523F11D2C67FF86C68113B29EA733A4416C06F8A6A0B000000000000000000000000F8333E01FEF93765E7BC03B10000000049454E44AE4260822F0066FEEC282D9E053FA58172F45119DA5262894A3E2CE57D46689199AD8BB807
310
80BB040E002C4B5B19435382EB24BA92809AFFFA686F9B4433832B007A0BC00A099E23F45E029645A261E51242B9C23376B00500150C4D00907698DA31E9291CE62C02B2293D537E12220D0051832829B13300CC3A202F3D42E6E2D726317EB5CDB90420D6903D2E01D2A931874AB0F883C520904700BA5794E0C3E1A2EC8C
310
196485C01D00D519902D813B006203C94746A896844C81B0F608B80050222265046B8F8437097801406991B96C05506E98B80080A024E042382C69A2001000D86334E85802C4FF25DD3B087FCB4C00F86E096001B8A00441009C2E8CA8BB68010124B931CA88802E8D552C8000CC8F299A15D0D606712440D7BBCBB5D722A0
310
676FDAC58074402DF6261922E7DFFE9290544731FECB8CAD7AA7891FDD0703D08098F8287F2E16F8072C94083B36EC7E180000000049454E44AE426082
  0
ENDSEC
  0
EOF
